<svg xmlns="http://www.w3.org/2000/svg" height="16" width="16"><title>Gnome Symbolic Icon Theme</title><path d="M3.12 3.12h1.26c.31.013.62.156.838.38l2.784 2.784L10.824 3.5c.324-.28.545-.372.84-.38h1.22v1.22c0 .35-.043.67-.306.915L9.794 8.038l2.746 2.746c.23.23.343.553.343.877v1.22h-1.22c-.324 0-.648-.112-.877-.342L8.002 9.754l-2.784 2.784c-.23.23-.553.343-.877.343H3.12v-1.22c0-.323.114-.647.344-.876l2.784-2.746-2.784-2.783a1.11 1.11 0 0 1-.343-.916V3.12z" style="line-height:normal;-inkscape-font-specification:'Andale Mono';text-indent:0;text-align:start;text-decoration-line:none;text-transform:none;block-progression:tb" color="#bebebe" font-weight="400" font-family="Andale Mono" overflow="visible" fill="#666"/></svg>