<svg xmlns="http://www.w3.org/2000/svg" height="16" width="16"><title>Gnome Symbolic Icon Theme</title><path d="M7.365.31A7.49 7.49 0 0 0 5.88.485l-1.87.684a7.49 7.49 0 0 0-3.37 9.664 7.49 7.49 0 0 0 9.42 4.004 7.49 7.49 0 0 0 4.9-7.467 3.757 3.757 0 0 1-3.7-2.224 3.757 3.757 0 0 1 .32-3.62A7.49 7.49 0 0 0 7.365.312zm.143 3.006a1.26 1.26 0 0 1 1.23.907A1.26 1.26 0 0 1 7.96 5.76a1.26 1.26 0 0 1-1.58-.674 1.26 1.26 0 0 1 .565-1.625l.315-.114a1.26 1.26 0 0 1 .248-.03zm-3.07 3.05a1.15 1.15 0 0 1 1.125.827 1.15 1.15 0 0 1-.71 1.4 1.15 1.15 0 0 1-1.445-.613 1.15 1.15 0 0 1 .516-1.482l.287-.105a1.15 1.15 0 0 1 .23-.028zm5.02.618a1.04 1.04 0 0 1 1.013.748 1.04 1.04 0 0 1-.64 1.266 1.04 1.04 0 0 1-1.305-.555 1.04 1.04 0 0 1 .467-1.34l.26-.095a1.04 1.04 0 0 1 .205-.024zm-3.27 2.829a.906.906 0 0 1 .886.652.906.906 0 0 1-.558 1.105.906.906 0 0 1-1.14-.484.906.906 0 0 1 .407-1.17l.227-.082a.906.906 0 0 1 .18-.02z" fill="#666"/></svg>