<?xml version="1.0" encoding="UTF-8" standalone="no"?>
<!-- Created with Inkscape (http://www.inkscape.org/) -->

<svg
   xmlns:dc="http://purl.org/dc/elements/1.1/"
   xmlns:cc="http://creativecommons.org/ns#"
   xmlns:rdf="http://www.w3.org/1999/02/22-rdf-syntax-ns#"
   xmlns:svg="http://www.w3.org/2000/svg"
   xmlns="http://www.w3.org/2000/svg"
   xmlns:sodipodi="http://sodipodi.sourceforge.net/DTD/sodipodi-0.dtd"
   xmlns:inkscape="http://www.inkscape.org/namespaces/inkscape"
   id="svg7384"
   version="1.1"
   inkscape:version="0.91 r13725"
   height="16.000019"
   sodipodi:docname="cookies.svg"
   width="16">
  <metadata
     id="metadata90">
    <rdf:RDF>
      <cc:Work
         rdf:about="">
        <dc:format>image/svg+xml</dc:format>
        <dc:type
           rdf:resource="http://purl.org/dc/dcmitype/StillImage" />
        <dc:title>Gnome Symbolic Icon Theme</dc:title>
      </cc:Work>
    </rdf:RDF>
  </metadata>
  <sodipodi:namedview
     inkscape:object-paths="true"
     inkscape:cy="8.5374737"
     inkscape:current-layer="layer11"
     inkscape:window-width="1920"
     pagecolor="#555753"
     showborder="false"
     showguides="true"
     inkscape:snap-nodes="false"
     objecttolerance="10"
     showgrid="true"
     inkscape:object-nodes="true"
     inkscape:pageshadow="2"
     inkscape:guide-bbox="true"
     inkscape:window-x="0"
     inkscape:snap-bbox="true"
     bordercolor="#666666"
     id="namedview88"
     inkscape:window-maximized="1"
     inkscape:snap-global="true"
     inkscape:window-y="0"
     gridtolerance="10"
     inkscape:zoom="22.627417"
     inkscape:window-height="1023"
     borderopacity="1"
     guidetolerance="10"
     inkscape:snap-bbox-midpoints="false"
     inkscape:cx="16.287339"
     inkscape:bbox-paths="false"
     inkscape:snap-grids="true"
     inkscape:pageopacity="1"
     inkscape:snap-to-guides="true">
    <inkscape:grid
       visible="true"
       spacingx="1px"
       type="xygrid"
       spacingy="1px"
       id="grid4866"
       empspacing="2"
       enabled="true"
       snapvisiblegridlinesonly="true" />
  </sodipodi:namedview>
  <title
     id="title9167">Gnome Symbolic Icon Theme</title>
  <defs
     id="defs7386" />
  <g
     transform="translate(-122,-489.99998)"
     inkscape:groupmode="layer"
     id="layer9"
     inkscape:label="status"
     style="display:inline" />
  <g
     transform="translate(-122,-489.99998)"
     inkscape:groupmode="layer"
     id="layer10"
     inkscape:label="devices" />
  <g
     transform="translate(-122,-489.99998)"
     inkscape:groupmode="layer"
     id="layer11"
     inkscape:label="apps">
    <path
       style="opacity:1;fill:#666666;fill-opacity:1;stroke:none;stroke-width:0.5;stroke-miterlimit:4;stroke-dasharray:none;stroke-opacity:1"
       d="M 7.3652344 0.31054688 A 7.4909124 7.4909124 0 0 0 5.8789062 0.484375 L 4.0097656 1.1679688 A 7.4909124 7.4909124 0 0 0 0.640625 10.832031 A 7.4909124 7.4909124 0 0 0 10.060547 14.835938 A 7.4909124 7.4909124 0 0 0 14.960938 7.3691406 A 3.7565048 3.7565048 0 0 1 11.259766 5.1464844 A 3.7565048 3.7565048 0 0 1 11.580078 1.5273438 A 7.4909124 7.4909124 0 0 0 7.3652344 0.31054688 z M 7.5078125 3.3164062 A 1.2595339 1.2595339 0 0 1 8.7382812 4.2226562 A 1.2595339 1.2595339 0 0 1 7.9609375 5.7597656 A 1.2595339 1.2595339 0 0 1 6.3789062 5.0859375 A 1.2595339 1.2595339 0 0 1 6.9453125 3.4609375 L 7.2597656 3.3457031 A 1.2595339 1.2595339 0 0 1 7.5078125 3.3164062 z M 4.4394531 6.3652344 A 1.1490484 1.1490484 0 0 1 5.5625 7.1933594 A 1.1490484 1.1490484 0 0 1 4.8515625 8.59375 A 1.1490484 1.1490484 0 0 1 3.4082031 7.9804688 A 1.1490484 1.1490484 0 0 1 3.9238281 6.4980469 L 4.2109375 6.3925781 A 1.1490484 1.1490484 0 0 1 4.4394531 6.3652344 z M 9.4570312 6.984375 A 1.038563 1.038563 0 0 1 10.470703 7.7324219 A 1.038563 1.038563 0 0 1 9.8300781 8.9980469 A 1.038563 1.038563 0 0 1 8.5253906 8.4433594 A 1.038563 1.038563 0 0 1 8.9921875 7.1035156 L 9.2519531 7.0078125 A 1.038563 1.038563 0 0 1 9.4570312 6.984375 z M 6.1894531 9.8125 A 0.90598047 0.90598047 0 0 1 7.0742188 10.464844 A 0.90598047 0.90598047 0 0 1 6.515625 11.570312 A 0.90598047 0.90598047 0 0 1 5.375 11.085938 A 0.90598047 0.90598047 0 0 1 5.7832031 9.9160156 L 6.0097656 9.8339844 A 0.90598047 0.90598047 0 0 1 6.1894531 9.8125 z "
       transform="translate(122,489.99998)"
       id="path4240" />
  </g>
  <g
     transform="translate(-122,-489.99998)"
     inkscape:groupmode="layer"
     id="layer12"
     inkscape:label="actions" />
  <g
     transform="translate(-122,-489.99998)"
     inkscape:groupmode="layer"
     id="layer13"
     inkscape:label="places" />
  <g
     transform="translate(-122,-489.99998)"
     inkscape:groupmode="layer"
     id="layer14"
     inkscape:label="mimetypes" />
  <g
     transform="translate(-122,-489.99998)"
     inkscape:groupmode="layer"
     id="layer15"
     inkscape:label="emblems"
     style="display:inline" />
  <g
     transform="translate(-122,-489.99998)"
     inkscape:groupmode="layer"
     id="g4953"
     inkscape:label="categories"
     style="display:inline" />
</svg>
