<?xml version="1.0" encoding="UTF-8" standalone="no"?>
<!-- Created with Inkscape (http://www.inkscape.org/) -->

<svg
   xmlns:dc="http://purl.org/dc/elements/1.1/"
   xmlns:cc="http://creativecommons.org/ns#"
   xmlns:rdf="http://www.w3.org/1999/02/22-rdf-syntax-ns#"
   xmlns:svg="http://www.w3.org/2000/svg"
   xmlns="http://www.w3.org/2000/svg"
   xmlns:xlink="http://www.w3.org/1999/xlink"
   xmlns:sodipodi="http://sodipodi.sourceforge.net/DTD/sodipodi-0.dtd"
   xmlns:inkscape="http://www.inkscape.org/namespaces/inkscape"
   sodipodi:docname="evince.svg"
   inkscape:export-filename="/home/sam/dev/RESOURCES/gnome-icon-theme-symbolic/src/gnome-stencils.png"
   inkscape:export-xdpi="90"
   inkscape:export-ydpi="90"
   height="15.999979"
   id="svg7384"
   version="1.1"
   inkscape:version="0.92.1 r"
   width="16.012655">
  <metadata
     id="metadata90">
    <rdf:RDF>
      <cc:Work
         rdf:about="">
        <dc:format>image/svg+xml</dc:format>
        <dc:type
           rdf:resource="http://purl.org/dc/dcmitype/StillImage" />
        <dc:title>Gnome Symbolic Icon Theme</dc:title>
      </cc:Work>
    </rdf:RDF>
  </metadata>
  <sodipodi:namedview
     inkscape:bbox-nodes="false"
     inkscape:bbox-paths="true"
     bordercolor="#666666"
     borderopacity="1"
     inkscape:current-layer="layer12"
     inkscape:cx="20.332295"
     inkscape:cy="2.6529471"
     gridtolerance="10"
     inkscape:guide-bbox="true"
     guidetolerance="10"
     id="namedview88"
     inkscape:object-nodes="false"
     inkscape:object-paths="false"
     objecttolerance="10"
     pagecolor="#3a3b39"
     inkscape:pageopacity="1"
     inkscape:pageshadow="2"
     showborder="false"
     showgrid="false"
     showguides="true"
     inkscape:snap-bbox="true"
     inkscape:snap-bbox-midpoints="false"
     inkscape:snap-global="true"
     inkscape:snap-grids="true"
     inkscape:snap-nodes="true"
     inkscape:snap-others="false"
     inkscape:snap-to-guides="true"
     inkscape:window-height="1013"
     inkscape:window-maximized="1"
     inkscape:window-width="1920"
     inkscape:window-x="0"
     inkscape:window-y="0"
     inkscape:zoom="16.000001">
    <inkscape:grid
       empspacing="2"
       enabled="true"
       id="grid4866"
       originx="196.00653"
       originy="732.00001"
       snapvisiblegridlinesonly="true"
       spacingx="1"
       spacingy="1"
       type="xygrid"
       visible="true" />
  </sodipodi:namedview>
  <title
     id="title9167">Gnome Symbolic Icon Theme</title>
  <defs
     id="defs7386">
    <linearGradient
       x1="32.251034"
       y1="6.1317081"
       x2="32.251034"
       y2="90.238609"
       id="linearGradient3026"
       xlink:href="#ButtonShadow-0"
       gradientUnits="userSpaceOnUse"
       gradientTransform="matrix(1.0238095,0,0,1.0119048,-1.1428571,-98.071429)" />
    <linearGradient
       x1="45.447727"
       y1="92.539597"
       x2="45.447727"
       y2="7.0165396"
       id="ButtonShadow-0"
       gradientUnits="userSpaceOnUse"
       gradientTransform="matrix(1.0058652,0,0,0.994169,100,0)">
      <stop
         id="stop3750-8"
         style="stop-color:#000000;stop-opacity:1"
         offset="0" />
      <stop
         id="stop3752-5"
         style="stop-color:#000000;stop-opacity:0.58823532"
         offset="1" />
    </linearGradient>
    <linearGradient
       x1="32.251034"
       y1="6.1317081"
       x2="32.251034"
       y2="90.238609"
       id="linearGradient3721"
       xlink:href="#ButtonShadow-0"
       gradientUnits="userSpaceOnUse"
       gradientTransform="translate(0,-97)" />
    <linearGradient
       x1="8"
       y1="1033.3622"
       x2="50"
       y2="1033.3622"
       id="linearGradient3870"
       xlink:href="#linearGradient3843"
       gradientUnits="userSpaceOnUse"
       gradientTransform="translate(-2,-956.3622)"
       spreadMethod="reflect" />
    <linearGradient
       id="linearGradient3843">
      <stop
         id="stop3845"
         style="stop-color:#523823;stop-opacity:1"
         offset="0" />
      <stop
         id="stop3847"
         style="stop-color:#79563a;stop-opacity:1"
         offset="0.11780351" />
      <stop
         id="stop3849"
         style="stop-color:#875c38;stop-opacity:1"
         offset="0.23809524" />
      <stop
         id="stop3851"
         style="stop-color:#a66e40;stop-opacity:1"
         offset="1" />
    </linearGradient>
    <linearGradient
       x1="48"
       y1="86"
       x2="48"
       y2="5.9877172"
       id="linearGradient3088"
       xlink:href="#linearGradient3688"
       gradientUnits="userSpaceOnUse" />
    <linearGradient
       id="linearGradient3688">
      <stop
         id="stop3690"
         style="stop-color:#b30707;stop-opacity:1"
         offset="0" />
      <stop
         id="stop3692"
         style="stop-color:#e42c0d;stop-opacity:1"
         offset="1" />
    </linearGradient>
    <linearGradient
       x1="62.336792"
       y1="79.015236"
       x2="62.336792"
       y2="12.797539"
       id="linearGradient2936"
       xlink:href="#linearGradient3694"
       gradientUnits="userSpaceOnUse"
       gradientTransform="matrix(0.87485882,0,0,0.90698611,2.762671,4.33428)" />
    <linearGradient
       id="linearGradient3694">
      <stop
         id="stop3696"
         style="stop-color:#e6e6e6;stop-opacity:1"
         offset="0" />
      <stop
         id="stop3698"
         style="stop-color:#f5f5f5;stop-opacity:1"
         offset="1" />
    </linearGradient>
    <linearGradient
       x1="55"
       y1="18"
       x2="55"
       y2="112"
       id="linearGradient3831"
       xlink:href="#linearGradient3825"
       gradientUnits="userSpaceOnUse"
       gradientTransform="translate(0,-2)" />
    <linearGradient
       id="linearGradient3825">
      <stop
         id="stop3827"
         style="stop-color:#501616;stop-opacity:1"
         offset="0" />
      <stop
         id="stop3829"
         style="stop-color:#501616;stop-opacity:0"
         offset="1" />
    </linearGradient>
    <radialGradient
       cx="48"
       cy="87.792389"
       r="42"
       fx="48"
       fy="87.792389"
       id="radialGradient4375"
       xlink:href="#linearGradient4367"
       gradientUnits="userSpaceOnUse"
       gradientTransform="matrix(1,-6.7114942e-8,8.4282233e-8,1.2557894,109.99999,-24.505592)" />
    <linearGradient
       id="linearGradient4367">
      <stop
         id="stop4369"
         style="stop-color:#ffffff;stop-opacity:0.71755725"
         offset="0" />
      <stop
         id="stop4371"
         style="stop-color:#ffffff;stop-opacity:1"
         offset="1" />
    </linearGradient>
    <linearGradient
       x1="48"
       y1="88"
       x2="48"
       y2="-40"
       id="linearGradient4390"
       xlink:href="#linearGradient4384"
       gradientUnits="userSpaceOnUse"
       gradientTransform="matrix(1,0,0,-1,0,92)" />
    <linearGradient
       id="linearGradient4384">
      <stop
         id="stop4386"
         style="stop-color:#ffffff;stop-opacity:1"
         offset="0" />
      <stop
         id="stop4388"
         style="stop-color:#ffffff;stop-opacity:0"
         offset="1" />
    </linearGradient>
    <linearGradient
       x1="48"
       y1="82"
       x2="112.12357"
       y2="82.454597"
       id="linearGradient4429"
       xlink:href="#linearGradient4384"
       gradientUnits="userSpaceOnUse"
       spreadMethod="reflect" />
    <linearGradient
       x1="48"
       y1="20.220806"
       x2="48"
       y2="138.66119"
       id="linearGradient3613"
       xlink:href="#linearGradient4384"
       gradientUnits="userSpaceOnUse" />
    <clipPath
       id="clipPath4355">
      <rect
         width="84"
         height="80"
         rx="6"
         ry="6"
         x="6"
         y="6"
         id="rect4357"
         style="fill:#ffffff;fill-opacity:1;fill-rule:nonzero;stroke:none" />
    </clipPath>
    <filter
       style="color-interpolation-filters:sRGB"
       x="-0.192"
       y="-0.192"
       width="1.3839999"
       height="1.3839999"
       id="filter3794">
      <feGaussianBlur
         id="feGaussianBlur3796"
         stdDeviation="5.28" />
    </filter>
    <linearGradient
       x1="48"
       y1="90"
       x2="48"
       y2="5.9877172"
       id="linearGradient3128"
       xlink:href="#linearGradient4598"
       gradientUnits="userSpaceOnUse"
       gradientTransform="translate(0,-96)" />
    <linearGradient
       id="linearGradient4598">
      <stop
         id="stop4600"
         style="stop-color:#e6eef7;stop-opacity:1"
         offset="0" />
      <stop
         id="stop4602"
         style="stop-color:#8ab0d8;stop-opacity:1"
         offset="1" />
    </linearGradient>
    <linearGradient
       x1="90"
       y1="88"
       x2="48"
       y2="88"
       id="linearGradient3228"
       xlink:href="#linearGradient3892"
       gradientUnits="userSpaceOnUse"
       spreadMethod="reflect" />
    <linearGradient
       id="linearGradient3892">
      <stop
         id="stop3894"
         style="stop-color:#000000;stop-opacity:0.58823532"
         offset="0" />
      <stop
         id="stop3896"
         style="stop-color:#000000;stop-opacity:0.47058824"
         offset="0.11780351" />
      <stop
         id="stop3898"
         style="stop-color:#000000;stop-opacity:0.39215687"
         offset="0.23809524" />
      <stop
         id="stop3900"
         style="stop-color:#000000;stop-opacity:0.3137255"
         offset="1" />
    </linearGradient>
    <clipPath
       id="clipPath4355-6">
      <rect
         width="84"
         height="80"
         rx="6"
         ry="6"
         x="6"
         y="6"
         id="rect4357-1"
         style="fill:#ffffff;fill-opacity:1;fill-rule:nonzero;stroke:none" />
    </clipPath>
    <filter
       style="color-interpolation-filters:sRGB"
       x="-0.192"
       y="-0.192"
       width="1.3839999"
       height="1.3839999"
       id="filter3794-5">
      <feGaussianBlur
         id="feGaussianBlur3796-9"
         stdDeviation="5.28" />
    </filter>
    <radialGradient
       cx="48"
       cy="87.792389"
       r="42"
       fx="48"
       fy="87.792389"
       id="radialGradient4375-4"
       xlink:href="#linearGradient4367"
       gradientUnits="userSpaceOnUse"
       gradientTransform="matrix(1,-6.7114942e-8,8.4282233e-8,1.2557894,109.99999,-24.505592)" />
    <linearGradient
       x1="24.689142"
       y1="24.109001"
       x2="53.568085"
       y2="24.109001"
       id="linearGradient3149"
       xlink:href="#ButtonShadow-0"
       gradientUnits="userSpaceOnUse"
       gradientTransform="matrix(2.2852239,0,0,2.3028703,-8.420222,-9.437083)" />
    <linearGradient
       id="linearGradient4617">
      <stop
         id="stop4592"
         style="stop-color:#cc0000;stop-opacity:1"
         offset="0" />
      <stop
         id="stop4594"
         style="stop-color:#ffa2a2;stop-opacity:1"
         offset="1" />
    </linearGradient>
    <linearGradient
       inkscape:collect="always"
       xlink:href="#ButtonShadow-0"
       id="linearGradient4685"
       gradientUnits="userSpaceOnUse"
       gradientTransform="matrix(1.0238095,0,0,1.0119048,-1.1428571,-98.071429)"
       x1="32.251034"
       y1="6.1317081"
       x2="32.251034"
       y2="90.238609" />
    <linearGradient
       inkscape:collect="always"
       xlink:href="#ButtonShadow-0"
       id="linearGradient4687"
       gradientUnits="userSpaceOnUse"
       gradientTransform="matrix(1.0238095,0,0,1.0119048,-1.1428571,-98.071429)"
       x1="32.251034"
       y1="6.1317081"
       x2="32.251034"
       y2="90.238609" />
    <linearGradient
       inkscape:collect="always"
       xlink:href="#ButtonShadow-0"
       id="linearGradient4689"
       gradientUnits="userSpaceOnUse"
       gradientTransform="matrix(1.0238095,0,0,1.0119048,-1.1428571,-98.071429)"
       x1="32.251034"
       y1="6.1317081"
       x2="32.251034"
       y2="90.238609" />
    <linearGradient
       inkscape:collect="always"
       xlink:href="#ButtonShadow-0"
       id="linearGradient4691"
       gradientUnits="userSpaceOnUse"
       gradientTransform="matrix(1.0238095,0,0,1.0119048,-1.1428571,-98.071429)"
       x1="32.251034"
       y1="6.1317081"
       x2="32.251034"
       y2="90.238609" />
    <linearGradient
       inkscape:collect="always"
       xlink:href="#ButtonShadow-0"
       id="linearGradient4693"
       gradientUnits="userSpaceOnUse"
       gradientTransform="translate(0,-97)"
       x1="32.251034"
       y1="6.1317081"
       x2="32.251034"
       y2="90.238609" />
    <linearGradient
       inkscape:collect="always"
       xlink:href="#linearGradient4384"
       id="linearGradient4695"
       gradientUnits="userSpaceOnUse"
       x1="48"
       y1="20.220806"
       x2="48"
       y2="138.66119" />
    <linearGradient
       inkscape:collect="always"
       xlink:href="#linearGradient4384"
       id="linearGradient4697"
       gradientUnits="userSpaceOnUse"
       gradientTransform="matrix(1,0,0,-1,0,92)"
       x1="48"
       y1="88"
       x2="48"
       y2="-40" />
    <linearGradient
       inkscape:collect="always"
       xlink:href="#linearGradient4384"
       id="linearGradient4699"
       gradientUnits="userSpaceOnUse"
       x1="48"
       y1="82"
       x2="112.12357"
       y2="82.454597"
       spreadMethod="reflect" />
  </defs>
  <g
     inkscape:groupmode="layer"
     id="layer9"
     inkscape:label="status"
     style="display:inline"
     transform="translate(-44.993672,-949.00003)" />
  <g
     inkscape:groupmode="layer"
     id="layer10"
     inkscape:label="devices"
     style="display:inline"
     transform="translate(-44.993672,-949.00003)" />
  <g
     inkscape:groupmode="layer"
     id="layer11"
     inkscape:label="apps"
     transform="translate(-44.993672,-949.00003)" />
  <g
     inkscape:groupmode="layer"
     id="layer13"
     inkscape:label="places"
     style="display:inline"
     transform="translate(-44.993672,-949.00003)" />
  <g
     inkscape:groupmode="layer"
     id="layer14"
     inkscape:label="mimetypes"
     transform="translate(-44.993672,-949.00003)" />
  <g
     inkscape:groupmode="layer"
     id="layer15"
     inkscape:label="emblems"
     style="display:inline"
     transform="translate(-44.993672,-949.00003)" />
  <g
     inkscape:groupmode="layer"
     id="g71291"
     inkscape:label="emotes"
     style="display:inline"
     transform="translate(-44.993672,-949.00003)" />
  <g
     inkscape:groupmode="layer"
     id="g4953"
     inkscape:label="categories"
     style="display:inline"
     transform="translate(-44.993672,-949.00003)" />
  <g
     inkscape:groupmode="layer"
     id="layer12"
     inkscape:label="actions"
     style="display:inline"
     transform="translate(-44.993672,-949.00003)">
    <g
       id="g5273"
       transform="matrix(0.01951237,0,0,0.01951234,54.951211,939.68103)">
      <title
         id="title5275">go-home</title>
      <g
         id="g5277"
         style="fill:#bebebe;fill-opacity:1"
         transform="matrix(0.02603569,0,0,0.02603569,345.96663,902.07624)">
        <g
           id="g5279"
           style="fill:#bebebe;fill-opacity:1" />
        <g
           id="g5281"
           style="fill:#bebebe;fill-opacity:1" />
      </g>
      <g
         id="g5283"
         inkscape:label="go-down"
         transform="matrix(0,1,1,0,-360.61998,639.9031)" />
    </g>
    <g
       transform="matrix(0.01951237,0,0,0.01951237,53.300251,954.96707)"
       id="layer6" />
    <g
       transform="matrix(0.14020355,0,0,0.14020355,46.270229,950.25974)"
       id="layer3-7"
       style="display:inline">
      <path
         inkscape:connector-curvature="0"
         d="m 12,-95.03125 c -5.5110903,0 -10.03125,4.52016 -10.03125,10.03125 v 71 c 0,5.5110902 4.5201598,10.03125 10.03125,10.03125 h 72 c 5.51109,0 10.03125,-4.5201597 10.03125,-10.03125 v -71 c 0,-5.51109 -4.52016,-10.03125 -10.03125,-10.03125 z"
         transform="scale(1,-1)"
         id="path3786-7"
         style="display:inline;opacity:0.07999998;fill:url(#linearGradient4685);fill-opacity:1;fill-rule:nonzero;stroke:none" />
      <path
         inkscape:connector-curvature="0"
         d="m 12,-94.03125 c -4.971633,0 -9.03125,4.059617 -9.03125,9.03125 v 71 c 0,4.9716329 4.0596171,9.03125 9.03125,9.03125 h 72 c 4.971633,0 9.03125,-4.059617 9.03125,-9.03125 v -71 c 0,-4.971633 -4.059617,-9.03125 -9.03125,-9.03125 z"
         transform="scale(1,-1)"
         id="path3778-1"
         style="display:inline;opacity:0.1;fill:url(#linearGradient4687);fill-opacity:1;fill-rule:nonzero;stroke:none" />
      <path
         inkscape:connector-curvature="0"
         d="m 12,-93 c -4.4091333,0 -8,3.590867 -8,8 v 71 c 0,4.4091333 3.5908667,8 8,8 h 72 c 4.409133,0 8,-3.5908667 8,-8 v -71 c 0,-4.409133 -3.590867,-8 -8,-8 z"
         transform="scale(1,-1)"
         id="path3770-1"
         style="display:inline;opacity:0.2;fill:url(#linearGradient4689);fill-opacity:1;fill-rule:nonzero;stroke:none" />
      <rect
         width="86"
         height="85"
         rx="7"
         ry="7"
         x="5"
         y="-92"
         transform="scale(1,-1)"
         id="rect3723-5"
         style="display:inline;opacity:0.3;fill:url(#linearGradient4691);fill-opacity:1;fill-rule:nonzero;stroke:none" />
      <rect
         width="84"
         height="84"
         rx="6"
         ry="6"
         x="6"
         y="-91"
         transform="scale(1,-1)"
         id="rect3716-9"
         style="display:inline;opacity:0.45;fill:url(#linearGradient4693);fill-opacity:1;fill-rule:nonzero;stroke:none" />
    </g>
    <g
       transform="matrix(0.14020355,0,0,0.14020355,46.270229,950.25974)"
       id="layer1-7">
      <rect
         width="84"
         height="84"
         rx="6"
         ry="6"
         x="6"
         y="-90"
         transform="scale(1,-1)"
         id="rect2419-7"
         style="fill:url(#linearGradient3128);fill-opacity:1;fill-rule:nonzero;stroke:none" />
    </g>
    <g
       transform="matrix(0.14020355,0,0,0.14020355,46.270229,950.25974)"
       id="layer4-6"
       style="display:inline">
      <path
         d="m 6,80 v 4 c 0,3.324 2.676,6 6,6 h 72 c 3.324,0 6,-2.676 6,-6 v -4 c 0,3.324 -2.676,6 -6,6 H 12 C 8.676,86 6,83.324 6,80 Z"
         inkscape:connector-curvature="0"
         id="path3888"
         style="display:inline;fill:url(#linearGradient3228);fill-opacity:1;fill-rule:nonzero;stroke:none" />
      <path
         d="m 6,82 v 2 c 0,3.324 2.676,6 6,6 h 72 c 3.324,0 6,-2.676 6,-6 v -2 c 0,3.324 -2.676,6 -6,6 H 12 C 8.676,88 6,85.324 6,82 Z"
         inkscape:connector-curvature="0"
         id="rect4345-7"
         style="color:#000000;display:inline;overflow:visible;visibility:visible;opacity:0.1;fill:#000000;fill-opacity:1;fill-rule:nonzero;stroke:none;stroke-width:1.5;marker:none;enable-background:accumulate" />
      <path
         d="m 6,83 v 1 c 0,3.324 2.676,6 6,6 h 72 c 3.324,0 6,-2.676 6,-6 v -1 c 0,3.324 -2.676,6 -6,6 H 12 C 8.676,89 6,86.324 6,83 Z"
         inkscape:connector-curvature="0"
         id="rect4336-3"
         style="color:#000000;display:inline;overflow:visible;visibility:visible;opacity:0.15;fill:#000000;fill-opacity:1;fill-rule:nonzero;stroke:none;stroke-width:1.5;marker:none;enable-background:accumulate" />
    </g>
    <g
       transform="matrix(0.14020355,0,0,0.14020355,46.270229,950.25974)"
       id="layer5-6"
       style="display:inline">
      <rect
         width="66"
         height="62"
         rx="12"
         ry="12"
         x="15"
         y="15"
         clip-path="url(#clipPath4355-6)"
         id="rect3171-5"
         style="opacity:0.1;fill:url(#linearGradient4695);fill-opacity:1;fill-rule:nonzero;stroke:#ffffff;stroke-width:0.5;stroke-linecap:round;stroke-linejoin:miter;stroke-miterlimit:4;stroke-dasharray:none;stroke-dashoffset:0;stroke-opacity:1;filter:url(#filter3794-5)" />
    </g>
    <g
       transform="matrix(0.14020355,0,0,0.14020355,46.270229,950.25974)"
       id="layer6-6">
      <path
         d="M 6.0000005,76 C 16.603001,66.660921 62.334763,24.085774 50.813625,23.146472 44.836008,22.65913 30.833707,26.539934 24.586785,38.321496 12.89009,60.381235 39.258983,63.616377 50.207491,62.280846 68.146141,59.46461 90,47.725281 90,47.725281 L 89.9872,59.704237 C 51.539781,70.661661 27.107338,69.204795 13.708991,56.084871 0.6742585,43.320994 31.806991,14.513282 57.03454,17.163783 83.08194,19.900419 6.0000005,76 6.0000005,76 Z"
         inkscape:connector-curvature="0"
         id="path3792"
         style="color:#000000;display:inline;overflow:visible;visibility:visible;fill:url(#linearGradient3149);fill-opacity:1;fill-rule:nonzero;stroke:none;stroke-width:1;marker:none" />
      <path
         d="m 54.65625,16 c -20.837235,-0.596015 -44.556374,18.7404 -44,32.25 0.625865,-13.970342 25.51477,-33.285404 46.375,-31.09375 3.521452,0.369977 5.146872,1.731081 5.34375,3.78125 0.278255,-2.615646 -1.273844,-4.353651 -5.34375,-4.78125 C 56.242889,16.073422 55.454616,16.022836 54.65625,16 Z M 52.625,24.40625 C 51.78509,29.82261 38.511751,43.941789 26.03125,56.1875 23.557265,54.182642 21.891648,51.51609 21.6875,48 c -0.07612,4.01173 1.641408,6.997587 4.34375,9.1875 C 39.355294,44.114116 53.585107,28.871803 52.625,24.40625 Z M 90,46.71875 c 0,0 -21.8426,11.746264 -39.78125,14.5625 C 44.768446,61.946094 35.4948,61.452747 29,58.09375 c -0.254771,0.209358 -0.496486,0.386299 -0.75,0.59375 6.512606,3.730603 16.303914,4.284763 21.96875,3.59375 C 68.1574,59.465014 90,47.71875 90,47.71875 Z m -69.25,14.625 C 14.4709,67.352525 8.9050687,72.441227 6,75 c 0,0 2.4757237,-1.798922 6.28125,-4.6875 2.696317,-2.485491 5.801926,-5.405309 9.15625,-8.625 -0.225779,-0.12049 -0.465692,-0.219196 -0.6875,-0.34375 z"
         inkscape:connector-curvature="0"
         id="path3801"
         style="color:#000000;display:inline;overflow:visible;visibility:visible;opacity:0.2;fill:#000000;fill-opacity:1;fill-rule:nonzero;stroke:none;stroke-width:1;marker:none" />
      <path
         d="m 62.375,21.9375 c -0.848737,7.978289 -18.726632,24.149464 -34.125,36.75 0.246638,0.141281 0.494355,0.274035 0.75,0.40625 C 44.90363,46.024983 63.088285,29.365234 62.375,21.9375 Z m -12.78125,1.15625 c -6.48662,0.06795 -19.143511,4.173536 -25,15.21875 -2.23414,4.213545 -3.07691,7.748194 -2.90625,10.6875 0.05183,-2.731241 0.918795,-5.939199 2.90625,-9.6875 6.246922,-11.781562 20.241133,-15.643592 26.21875,-15.15625 1.065653,0.08688 1.653386,0.509945 1.8125,1.25 0.205371,-1.324383 -0.339751,-2.129929 -1.8125,-2.25 -0.373601,-0.03046 -0.786309,-0.06703 -1.21875,-0.0625 z M 10.65625,49.3125 c -0.114922,2.900509 0.822155,5.587459 3.0625,7.78125 2.077325,2.034158 4.41233,3.779366 7.03125,5.25 0.227295,-0.21751 0.458364,-0.436311 0.6875,-0.65625 -2.89159,-1.54314 -5.465487,-3.387311 -7.71875,-5.59375 -1.979741,-1.938603 -2.945045,-4.268874 -3.0625,-6.78125 z M 90,59.71875 c -30.551773,8.707183 -52.245743,9.531357 -66.59375,2.9375 -4.282669,3.418552 -8.115586,6.37196 -11.125,8.65625 C 9.7051426,73.68718 7.4707979,75.704527 6,77 6,77 13.707971,71.397699 23.40625,63.65625 37.754257,70.250107 59.448227,69.425933 90,60.71875 Z"
         inkscape:connector-curvature="0"
         id="path3810"
         style="color:#000000;display:inline;overflow:visible;visibility:visible;opacity:0.6;fill:#ffffff;fill-opacity:1;fill-rule:nonzero;stroke:none;stroke-width:1;marker:none" />
      <path
         d="M 52.3125,17 C 28.133419,17.977389 1.4859592,44.11515 13.71875,56.09375 15.972013,58.300189 18.54591,60.14436 21.4375,61.6875 14.878398,67.983338 9.010228,73.348603 6,76 6,76 13.707971,70.397699 23.40625,62.65625 37.754257,69.250107 59.448227,68.425933 90,59.71875 V 57.875 l -2.40625,0.4375 c -0.0099,0.0027 -0.02137,-0.0027 -0.03125,0 C 58.216702,66.443914 37.567663,66.903099 24.25,60.75 A 1.9744012,1.9744012 0 0 0 23.1875,60.59375 1.9744012,1.9744012 0 0 0 22.40625,59.8125 c -2.763636,-1.482204 -5.259047,-3.114219 -7.3125,-5.125 -2.543261,-2.490413 -3.017222,-5.404542 -2,-9.0625 C 14.110972,41.967042 16.848842,37.745391 20.75,33.84375 28.552316,26.040468 40.941436,19.485037 52.34375,19 c 0.766337,-0.0326 1.507159,-0.05145 2.25,-0.03125 0.742841,0.0202 1.487702,0.07944 2.21875,0.15625 1.807657,0.189919 2.793181,0.651775 3.1875,1.03125 0.394319,0.379475 0.516337,0.718722 0.40625,1.625 C 60.186076,23.593806 58.247516,27.084075 55,31 50.906774,35.935701 44.820796,41.636035 38.40625,47.3125 c 3.874091,-4.074231 7.441244,-8.022475 10.21875,-11.5 2.642371,-3.308331 4.612722,-6.107149 5.53125,-8.5625 0.459264,-1.227675 0.754777,-2.46688 0.21875,-3.8125 -0.536027,-1.34562 -2.048636,-2.139316 -3.40625,-2.25 -3.53413,-0.28813 -8.67981,0.640124 -14,3.15625 -5.32019,2.516126 -10.757548,6.680307 -14.125,13.03125 -2.570576,4.848058 -3.465935,9.034957 -2.96875,12.625 0.497185,3.590043 2.435907,6.452972 4.96875,8.53125 a 1.9744012,1.9744012 0 0 0 1.53125,0.40625 1.9744012,1.9744012 0 0 0 0.96875,1.40625 c 7.167194,4.10706 17.049957,4.647301 23.125,3.90625 a 1.9744012,1.9744012 0 0 0 0.0625,-0.03125 C 66.990228,61.634812 83.94901,52.993289 88,50.875 v -0.03125 h 0.03125 L 90,49.78125 v -2.0625 c 0,0 -21.8426,11.746264 -39.78125,14.5625 C 44.553914,62.972263 34.762606,62.418103 28.25,58.6875 48.696653,41.955936 73.515257,18.888121 57.03125,17.15625 56.242889,17.07342 55.454616,17.022836 54.65625,17 53.882833,16.97788 53.09247,16.96847 52.3125,17 Z m -2.71875,6.09375 c 0.432441,-0.0045 0.845149,0.03204 1.21875,0.0625 7.495885,0.611129 -9.249074,18.791274 -24.78125,34.03125 -4.542134,-3.680836 -6.344189,-9.62108 -1.4375,-18.875 5.856489,-11.045214 18.51338,-15.150804 25,-15.21875 z"
         inkscape:connector-curvature="0"
         id="path3828"
         style="color:#000000;display:inline;overflow:visible;visibility:visible;opacity:0.2;fill:#550000;fill-opacity:1;fill-rule:nonzero;stroke:none;stroke-width:1;marker:none" />
      <path
         d="m 54.65625,17 c -20.837235,-0.596015 -44.556374,18.7404 -44,32.25 0.625865,-13.970342 25.51477,-33.285404 46.375,-31.09375 3.521452,0.369977 5.146872,1.731081 5.34375,3.78125 0.278255,-2.615646 -1.273844,-4.353651 -5.34375,-4.78125 C 56.242889,17.073422 55.454616,17.022836 54.65625,17 Z M 52.625,25.40625 C 51.78509,30.82261 38.511751,44.941789 26.03125,57.1875 23.557265,55.182642 21.891648,52.51609 21.6875,49 c -0.07612,4.01173 1.641408,6.997587 4.34375,9.1875 C 39.355294,45.114116 53.585107,29.871803 52.625,25.40625 Z M 90,47.71875 c 0,0 -21.8426,11.746264 -39.78125,14.5625 C 44.768446,62.946094 35.4948,62.452747 29,59.09375 c -0.254771,0.209358 -0.496486,0.386299 -0.75,0.59375 6.512606,3.730603 16.303914,4.284763 21.96875,3.59375 C 68.1574,60.465014 90,48.71875 90,48.71875 Z m -69.25,14.625 C 14.4709,68.352525 8.9050687,73.441227 6,76 c 0,0 2.4757237,-1.798922 6.28125,-4.6875 2.696317,-2.485491 5.801926,-5.405309 9.15625,-8.625 -0.225779,-0.12049 -0.465692,-0.219196 -0.6875,-0.34375 z"
         inkscape:connector-curvature="0"
         id="path3819"
         style="color:#000000;display:inline;overflow:visible;visibility:visible;opacity:0.4;fill:#550000;fill-opacity:1;fill-rule:nonzero;stroke:none;stroke-width:1;marker:none" />
      <path
         d="M 12,86 C 8.676,86 6,83.324 6,80 V 12 C 6,8.676 8.676,6 12,6 h 72 c 3.324,0 6,2.676 6,6 v 68 c 0,3.324 -2.676,6 -6,6 z m 0,-0.96875 h 72 c 2.80489,0 5.03125,-2.22636 5.03125,-5.03125 V 12 C 89.03125,9.19511 86.80489,6.96875 84,6.96875 H 12 C 9.1951102,6.96875 6.96875,9.19511 6.96875,12 v 68 c 0,2.80489 2.2263602,5.03125 5.03125,5.03125 z"
         inkscape:connector-curvature="0"
         id="rect4377-9"
         style="display:inline;opacity:0.35;fill:url(#linearGradient4697);fill-opacity:1;fill-rule:nonzero;stroke:none" />
      <path
         d="m 6,78 v 2 c 0,3.324 2.676,6 6,6 h 72 c 3.324,0 6,-2.676 6,-6 v -2 c 0,3.324 -2.676,6 -6,6 H 12 C 8.676,84 6,81.324 6,78 Z"
         inkscape:connector-curvature="0"
         id="rect4414-4"
         style="display:inline;opacity:0.1;fill:url(#linearGradient4699);fill-opacity:1;fill-rule:nonzero;stroke:none" />
    </g>
  </g>
</svg>
