<svg xmlns="http://www.w3.org/2000/svg" xmlns:xlink="http://www.w3.org/1999/xlink" height="16" width="16.013"><title>Gnome Symbolic Icon Theme</title><defs><linearGradient x1="45.448" y1="92.54" x2="45.448" y2="7.017" id="a" gradientUnits="userSpaceOnUse" gradientTransform="matrix(1.00587 0 0 .99417 100 0)"><stop offset="0"/><stop offset="1" stop-opacity=".588"/></linearGradient><linearGradient id="b"><stop offset="0" stop-color="#523823"/><stop offset=".118" stop-color="#79563a"/><stop offset=".238" stop-color="#875c38"/><stop offset="1" stop-color="#a66e40"/></linearGradient><linearGradient id="c"><stop offset="0" stop-color="#b30707"/><stop offset="1" stop-color="#e42c0d"/></linearGradient><linearGradient id="d"><stop offset="0" stop-color="#e6e6e6"/><stop offset="1" stop-color="#f5f5f5"/></linearGradient><linearGradient id="e"><stop offset="0" stop-color="#501616"/><stop offset="1" stop-color="#501616" stop-opacity="0"/></linearGradient><linearGradient id="f"><stop offset="0" stop-color="#fff" stop-opacity=".718"/><stop offset="1" stop-color="#fff"/></linearGradient><linearGradient id="g"><stop offset="0" stop-color="#fff"/><stop offset="1" stop-color="#fff" stop-opacity="0"/></linearGradient><linearGradient x1="48" y1="90" x2="48" y2="5.988" id="o" xlink:href="#h" gradientUnits="userSpaceOnUse" gradientTransform="translate(0 -96)"/><linearGradient id="h"><stop offset="0" stop-color="#e6eef7"/><stop offset="1" stop-color="#8ab0d8"/></linearGradient><linearGradient x1="90" y1="88" x2="48" y2="88" id="p" xlink:href="#i" gradientUnits="userSpaceOnUse" spreadMethod="reflect"/><linearGradient id="i"><stop offset="0" stop-opacity=".588"/><stop offset=".118" stop-opacity=".471"/><stop offset=".238" stop-opacity=".392"/><stop offset="1" stop-opacity=".314"/></linearGradient><clipPath id="q"><rect width="84" height="80" rx="6" ry="6" x="6" y="6" fill="#fff"/></clipPath><filter x="-.192" y="-.192" width="1.384" height="1.384" id="s" color-interpolation-filters="sRGB"><feGaussianBlur stdDeviation="5.28"/></filter><linearGradient x1="24.689" y1="24.109" x2="53.568" y2="24.109" id="t" xlink:href="#a" gradientUnits="userSpaceOnUse" gradientTransform="matrix(2.28522 0 0 2.30287 -8.42 -9.437)"/><linearGradient xlink:href="#a" id="j" gradientUnits="userSpaceOnUse" gradientTransform="matrix(1.0238 0 0 1.0119 -1.143 -98.07)" x1="32.251" y1="6.132" x2="32.251" y2="90.239"/><linearGradient xlink:href="#a" id="k" gradientUnits="userSpaceOnUse" gradientTransform="matrix(1.0238 0 0 1.0119 -1.143 -98.07)" x1="32.251" y1="6.132" x2="32.251" y2="90.239"/><linearGradient xlink:href="#a" id="l" gradientUnits="userSpaceOnUse" gradientTransform="matrix(1.0238 0 0 1.0119 -1.143 -98.07)" x1="32.251" y1="6.132" x2="32.251" y2="90.239"/><linearGradient xlink:href="#a" id="m" gradientUnits="userSpaceOnUse" gradientTransform="matrix(1.0238 0 0 1.0119 -1.143 -98.07)" x1="32.251" y1="6.132" x2="32.251" y2="90.239"/><linearGradient xlink:href="#a" id="n" gradientUnits="userSpaceOnUse" gradientTransform="translate(0 -97)" x1="32.251" y1="6.132" x2="32.251" y2="90.239"/><linearGradient xlink:href="#g" id="r" gradientUnits="userSpaceOnUse" x1="48" y1="20.221" x2="48" y2="138.661"/><linearGradient xlink:href="#g" id="u" gradientUnits="userSpaceOnUse" gradientTransform="matrix(1 0 0 -1 0 92)" x1="48" y1="88" x2="48" y2="-40"/><linearGradient xlink:href="#g" id="v" gradientUnits="userSpaceOnUse" x1="48" y1="82" x2="112.124" y2="82.455" spreadMethod="reflect"/></defs><g transform="translate(9.958 -9.32) scale(.0195)"><title>go-home</title></g><g transform="matrix(.1402 0 0 -.1402 1.277 1.26)"><path d="M12-95.03C6.49-95.03 1.97-90.51 1.97-85v71C1.97-8.49 6.49-3.97 12-3.97h72c5.51 0 10.03-4.52 10.03-10.03v-71c0-5.51-4.52-10.03-10.03-10.03z" opacity=".08" fill="url(#j)"/><path d="M12-94.03c-4.972 0-9.03 4.058-9.03 9.03v71c0 4.972 4.058 9.03 9.03 9.03h72c4.972 0 9.03-4.058 9.03-9.03v-71c0-4.972-4.058-9.03-9.03-9.03z" opacity=".1" fill="url(#k)"/><path d="M12-93c-4.41 0-8 3.59-8 8v71c0 4.41 3.59 8 8 8h72c4.41 0 8-3.59 8-8v-71c0-4.41-3.59-8-8-8z" opacity=".2" fill="url(#l)"/><rect width="86" height="85" rx="7" ry="7" x="5" y="-92" opacity=".3" fill="url(#m)"/><rect width="84" height="84" rx="6" ry="6" x="6" y="-91" opacity=".45" fill="url(#n)"/></g><rect width="84" height="84" rx="6" ry="6" x="6" y="-90" transform="matrix(.1402 0 0 -.1402 1.277 1.26)" fill="url(#o)"/><path d="M6 80v4c0 3.324 2.676 6 6 6h72c3.324 0 6-2.676 6-6v-4c0 3.324-2.676 6-6 6H12c-3.324 0-6-2.676-6-6z" fill="url(#p)" transform="matrix(.1402 0 0 .1402 1.277 1.26)"/><path d="M2.118 12.756v.28c0 .467.375.842.84.842h10.096a.84.84 0 0 0 .84-.84v-.282a.84.84 0 0 1-.84.842H2.96a.84.84 0 0 1-.842-.842z" color="#000" overflow="visible" opacity=".1" enable-background="accumulate"/><path d="M2.118 12.897v.14c0 .466.375.84.84.84h10.096a.84.84 0 0 0 .84-.84v-.14a.84.84 0 0 1-.84.84H2.96a.84.84 0 0 1-.842-.84z" color="#000" overflow="visible" opacity=".15" enable-background="accumulate"/><g transform="matrix(.1402 0 0 .1402 1.277 1.26)"><rect width="66" height="62" rx="12" ry="12" x="15" y="15" clip-path="url(#q)" opacity=".1" fill="url(#r)" stroke="#fff" stroke-width=".5" stroke-linecap="round" filter="url(#s)"/></g><g><path d="M6 76c10.603-9.34 56.335-51.914 44.814-52.854-5.978-.487-19.98 3.394-26.227 15.175C12.89 60.38 39.26 63.617 50.207 62.28 68.147 59.466 90 47.726 90 47.726l-.013 11.98c-38.447 10.957-62.88 9.5-76.278-3.62C.673 43.32 31.806 14.513 57.034 17.165 83.082 19.9 6 76 6 76z" color="#000" overflow="visible" fill="url(#t)" transform="translate(1.277 1.26) scale(.1402)"/><path d="M8.94 3.503C6.018 3.42 2.693 6.13 2.77 8.025c.09-1.96 3.578-4.667 6.503-4.36.493.052.72.243.75.53.038-.366-.18-.61-.75-.67-.11-.012-.22-.02-.333-.022zm-.285 1.18c-.118.758-1.98 2.738-3.728 4.454-.347-.28-.58-.654-.61-1.147-.01.562.23.98.61 1.288 1.868-1.833 3.863-3.97 3.728-4.596zm5.24 3.127s-3.062 1.647-5.577 2.042c-.764.093-2.065.024-2.975-.447-.036.03-.07.054-.105.083.913.523 2.285.6 3.08.504 2.515-.395 5.577-2.042 5.577-2.042zm-9.71 2.05c-.88.843-1.66 1.556-2.067 1.915 0 0 .347-.252.88-.657a88.52 88.52 0 0 0 1.285-1.21c-.032-.016-.066-.03-.097-.048z" color="#000" overflow="visible" opacity=".2"/><path d="M10.022 4.336c-.12 1.118-2.625 3.385-4.784 5.152.034.02.07.038.105.057 2.23-1.832 4.78-4.168 4.68-5.21zm-1.792.162c-.91.01-2.684.585-3.505 2.133-.313.592-.43 1.088-.407 1.5.007-.383.128-.833.407-1.358C5.6 5.12 7.563 4.578 8.4 4.647c.15.012.233.07.255.175.03-.186-.048-.3-.254-.315-.05-.005-.11-.01-.17-.01zM2.77 8.174c-.015.406.116.783.43 1.09.292.286.62.53.986.737l.097-.09A4.682 4.682 0 0 1 3.2 9.123a1.388 1.388 0 0 1-.43-.95zm11.125 1.46c-4.283 1.22-7.325 1.335-9.336.41-.602.48-1.14.894-1.56 1.214-.362.333-.676.616-.882.797 0 0 1.08-.785 2.44-1.87 2.012.924 5.054.81 9.337-.412z" color="#000" overflow="visible" opacity=".6" fill="#fff"/><path d="M8.61 3.643c-3.39.137-7.125 3.802-5.41 5.48.316.31.677.57 1.083.786a77.132 77.132 0 0 1-2.165 2.005s1.08-.785 2.44-1.87c2.012.924 5.054.808 9.337-.412v-.26l-.337.062h-.005c-4.114 1.14-7.01 1.205-8.876.342a.277.277 0 0 0-.15-.022.277.277 0 0 0-.11-.11c-.386-.207-.736-.436-1.024-.718-.356-.35-.423-.758-.28-1.27.142-.513.526-1.105 1.073-1.652 1.094-1.094 2.83-2.013 4.43-2.08a4.037 4.037 0 0 1 .627.018c.254.024.392.09.447.142.054.053.07.1.056.228-.03.254-.303.743-.758 1.292-.574.692-1.427 1.49-2.326 2.287A26.05 26.05 0 0 0 8.094 6.28c.37-.463.647-.855.776-1.2.064-.172.106-.345.03-.534-.075-.19-.287-.3-.477-.316-.496-.04-1.217.09-1.963.443S4.952 5.61 4.48 6.5c-.36.68-.486 1.267-.417 1.77.07.503.342.905.697 1.196a.277.277 0 0 0 .215.057.277.277 0 0 0 .136.197c1.005.576 2.39.652 3.243.548a.277.277 0 0 0 .008-.005c2.31-.362 4.687-1.573 5.255-1.87v-.005h.004l.275-.15V7.95s-3.062 1.647-5.577 2.042c-.795.097-2.167.02-3.08-.504 2.866-2.346 6.346-5.58 4.035-5.823a4.786 4.786 0 0 0-.662-.022zm-.38.855c.06 0 .12.004.17.01 1.052.084-1.296 2.633-3.473 4.77-.637-.516-.89-1.35-.202-2.647C5.545 5.084 7.32 4.508 8.23 4.5z" color="#000" overflow="visible" opacity=".2" fill="#500"/><path d="M8.94 3.643C6.018 3.56 2.693 6.27 2.77 8.165c.09-1.96 3.578-4.667 6.503-4.36.493.052.72.243.75.53.038-.366-.18-.61-.75-.67-.11-.01-.22-.018-.333-.022zm-.285 1.18c-.118.758-1.98 2.738-3.728 4.455-.347-.28-.58-.655-.61-1.148-.01.562.23.98.61 1.288 1.868-1.833 3.863-3.97 3.728-4.596zm5.24 3.127s-3.062 1.647-5.577 2.042c-.764.093-2.065.024-2.975-.447-.036.03-.07.054-.105.083.913.523 2.285.6 3.08.504 2.515-.395 5.577-2.042 5.577-2.042zM4.185 10c-.88.843-1.66 1.556-2.067 1.915 0 0 .347-.252.88-.657a88.52 88.52 0 0 0 1.285-1.21c-.032-.016-.066-.03-.097-.047z" color="#000" overflow="visible" opacity=".4" fill="#500"/><path d="M12 86c-3.324 0-6-2.676-6-6V12c0-3.324 2.676-6 6-6h72c3.324 0 6 2.676 6 6v68c0 3.324-2.676 6-6 6zm0-.97h72A4.998 4.998 0 0 0 89.03 80V12A4.998 4.998 0 0 0 84 6.97H12A4.998 4.998 0 0 0 6.97 12v68A4.998 4.998 0 0 0 12 85.03z" opacity=".35" fill="url(#u)" transform="translate(1.277 1.26) scale(.1402)"/><path d="M6 78v2c0 3.324 2.676 6 6 6h72c3.324 0 6-2.676 6-6v-2c0 3.324-2.676 6-6 6H12c-3.324 0-6-2.676-6-6z" opacity=".1" fill="url(#v)" transform="translate(1.277 1.26) scale(.1402)"/></g></svg>