<svg xmlns="http://www.w3.org/2000/svg" xmlns:xlink="http://www.w3.org/1999/xlink" height="16" width="16.013"><title>Gnome Symbolic Icon Theme</title><defs><linearGradient x1="32.251" y1="6.132" x2="32.251" y2="90.239" id="k" xlink:href="#a" gradientUnits="userSpaceOnUse" gradientTransform="matrix(1.0238 0 0 1.0119 -1.143 -98.07)"/><linearGradient x1="45.448" y1="92.54" x2="45.448" y2="7.017" id="a" gradientUnits="userSpaceOnUse" gradientTransform="matrix(1.00587 0 0 .99417 100 0)"><stop offset="0"/><stop offset="1" stop-opacity=".588"/></linearGradient><linearGradient x1="32.251" y1="6.132" x2="32.251" y2="90.239" id="l" xlink:href="#a" gradientUnits="userSpaceOnUse" gradientTransform="translate(0 -97)"/><linearGradient x1="8" y1="1033.362" x2="50" y2="1033.362" id="m" xlink:href="#b" gradientUnits="userSpaceOnUse" gradientTransform="translate(-2 -956.362)" spreadMethod="reflect"/><linearGradient id="b"><stop offset="0" stop-color="#523823"/><stop offset=".118" stop-color="#79563a"/><stop offset=".238" stop-color="#875c38"/><stop offset="1" stop-color="#a66e40"/></linearGradient><linearGradient x1="48" y1="86" x2="48" y2="5.988" id="n" xlink:href="#c" gradientUnits="userSpaceOnUse"/><linearGradient id="c"><stop offset="0" stop-color="#b30707"/><stop offset="1" stop-color="#e42c0d"/></linearGradient><linearGradient x1="62.337" y1="79.015" x2="62.337" y2="12.798" id="o" xlink:href="#d" gradientUnits="userSpaceOnUse" gradientTransform="matrix(.87486 0 0 .907 2.763 4.334)"/><linearGradient id="d"><stop offset="0" stop-color="#e6e6e6"/><stop offset="1" stop-color="#f5f5f5"/></linearGradient><linearGradient x1="55" y1="18" x2="55" y2="112" id="p" xlink:href="#e" gradientUnits="userSpaceOnUse" gradientTransform="translate(0 -2)"/><linearGradient id="e"><stop offset="0" stop-color="#501616"/><stop offset="1" stop-color="#501616" stop-opacity="0"/></linearGradient><linearGradient id="f"><stop offset="0" stop-color="#fff" stop-opacity=".718"/><stop offset="1" stop-color="#fff"/></linearGradient><linearGradient x1="48" y1="88" x2="48" y2="-40" id="q" xlink:href="#g" gradientUnits="userSpaceOnUse" gradientTransform="matrix(1 0 0 -1 0 92)"/><linearGradient id="g"><stop offset="0" stop-color="#fff"/><stop offset="1" stop-color="#fff" stop-opacity="0"/></linearGradient><linearGradient x1="48" y1="82" x2="112.124" y2="82.455" id="r" xlink:href="#g" gradientUnits="userSpaceOnUse" spreadMethod="reflect"/><linearGradient x1="48" y1="20.221" x2="48" y2="138.661" id="t" xlink:href="#g" gradientUnits="userSpaceOnUse"/><clipPath id="s"><rect width="84" height="80" rx="6" ry="6" x="6" y="6" fill="#fff"/></clipPath><filter x="-.192" y="-.192" width="1.384" height="1.384" id="u" color-interpolation-filters="sRGB"><feGaussianBlur stdDeviation="5.28"/></filter><linearGradient xlink:href="#a" id="h" gradientUnits="userSpaceOnUse" gradientTransform="matrix(1.0238 0 0 1.0119 -1.143 -98.07)" x1="32.251" y1="6.132" x2="32.251" y2="90.239"/><linearGradient xlink:href="#a" id="i" gradientUnits="userSpaceOnUse" gradientTransform="matrix(1.0238 0 0 1.0119 -1.143 -98.07)" x1="32.251" y1="6.132" x2="32.251" y2="90.239"/><linearGradient xlink:href="#a" id="j" gradientUnits="userSpaceOnUse" gradientTransform="matrix(1.0238 0 0 1.0119 -1.143 -98.07)" x1="32.251" y1="6.132" x2="32.251" y2="90.239"/></defs><g transform="translate(6.718 -107.777) scale(.13917)"><title>go-home</title></g><g transform="matrix(.13917 0 0 -.13917 1.326 1.25)"><path d="M12-95.03C6.49-95.03 1.97-90.51 1.97-85v71C1.97-8.49 6.49-3.97 12-3.97h72c5.51 0 10.03-4.52 10.03-10.03v-71c0-5.51-4.52-10.03-10.03-10.03z" opacity=".08" fill="url(#h)"/><path d="M12-94.03c-4.972 0-9.03 4.058-9.03 9.03v71c0 4.972 4.058 9.03 9.03 9.03h72c4.972 0 9.03-4.058 9.03-9.03v-71c0-4.972-4.058-9.03-9.03-9.03z" opacity=".1" fill="url(#i)"/><path d="M12-93c-4.41 0-8 3.59-8 8v71c0 4.41 3.59 8 8 8h72c4.41 0 8-3.59 8-8v-71c0-4.41-3.59-8-8-8z" opacity=".2" fill="url(#j)"/><rect width="86" height="85" rx="7" ry="7" x="5" y="-92" opacity=".3" fill="url(#k)"/><rect width="84" height="84" rx="6" ry="6" x="6" y="-91" opacity=".45" fill="url(#l)"/></g><g transform="translate(1.326 1.25) scale(.13917)"><rect width="84" height="26" rx="6" ry="6" x="6" y="64" color="#000" overflow="visible" fill="url(#m)" enable-background="accumulate"/><path d="M6 82v2c0 3.324 2.676 6 6 6h72c3.324 0 6-2.676 6-6v-2c0 3.324-2.676 6-6 6H12c-3.324 0-6-2.676-6-6z" color="#000" overflow="visible" opacity=".1" enable-background="accumulate"/><path d="M6 83v1c0 3.324 2.676 6 6 6h72c3.324 0 6-2.676 6-6v-1c0 3.324-2.676 6-6 6H12c-3.324 0-6-2.676-6-6z" color="#000" overflow="visible" opacity=".1" enable-background="accumulate"/><path d="M6 80v1c0 3.324 2.676 6 6 6h72c3.324 0 6-2.676 6-6v-1c0 3.324-2.676 6-6 6H12c-3.324 0-6-2.676-6-6z" opacity=".2"/></g><g transform="translate(1.326 1.25) scale(.13917)"><rect width="84" height="80" rx="6" ry="6" x="6" y="6" fill="url(#n)"/><path d="M72 16.02v12.07c-12.05.212-15.013 11.964-15.013 11.964h9.09v12.07H51.983C43.506 78.276 24 75.947 24 75.947v-12.07s12.378 2.296 18.69-20.752C50.583 14.293 72 16.02 72 16.02z" fill="url(#o)"/><path d="M71.063 16c-4.208.064-21.467 1.898-28.376 27.125C36.377 66.173 24 63.875 24 63.875v12.063s19.492 2.34 27.97-23.813h14.093V40.062H57s2.95-11.756 15-11.968V16.03s-.336-.04-.938-.03zM71 17.062V27.22c-5.757.42-9.574 3.383-11.813 6.343-2.37 3.133-3.156 6.25-3.156 6.25a.993.993 0 0 0 .97 1.25h8.063v10.062H51.968a.993.993 0 0 0-.94.688C46.865 64.668 40.105 70.36 34.407 72.936c-4.866 2.202-8.328 2.073-9.406 2V64.876c.408.02.476.078 1.156 0 1.38-.158 3.24-.644 5.313-1.875 4.143-2.462 8.985-7.933 12.186-19.625 3.886-14.19 10.985-20.665 17.094-23.72 5.266-2.63 9.11-2.628 10.25-2.593z" opacity=".25" fill="url(#p)"/><path d="M71.063 15c-4.208.064-21.467 1.898-28.376 27.125C36.377 65.173 24 62.875 24 62.875v1s12.376 2.298 18.688-20.75C50.581 14.295 72 16.03 72 16.03v-1s-.336-.04-.938-.03zm-13.75 24.063c-.206.574-.313 1-.313 1h9.063v-1z" opacity=".3"/><path d="M72 28.094c-12.05.212-15 11.968-15 11.968h.313C58.303 37.29 62.016 29.27 72 29.095zm-20.03 24.03C43.49 78.278 24 75.938 24 75.938v1s19.492 2.34 27.97-23.812h14.093v-1z" opacity=".4" fill="#fff6d5"/><path d="M12 86c-3.324 0-6-2.676-6-6V12c0-3.324 2.676-6 6-6h72c3.324 0 6 2.676 6 6v68c0 3.324-2.676 6-6 6zm0-.97h72A4.998 4.998 0 0 0 89.03 80V12A4.998 4.998 0 0 0 84 6.97H12A4.998 4.998 0 0 0 6.97 12v68A4.998 4.998 0 0 0 12 85.03z" opacity=".3" fill="url(#q)"/><path d="M6 78v2c0 3.324 2.676 6 6 6h72c3.324 0 6-2.676 6-6v-2c0 3.324-2.676 6-6 6H12c-3.324 0-6-2.676-6-6z" opacity=".1" fill="url(#r)"/></g><rect width="66" height="62" rx="12" ry="12" x="15" y="15" clip-path="url(#s)" opacity=".1" fill="url(#t)" stroke="#fff" stroke-width=".5" stroke-linecap="round" filter="url(#u)" transform="translate(1.326 1.25) scale(.13917)"/></svg>