<svg xmlns="http://www.w3.org/2000/svg" height="16" width="16.013"><title>Gnome Symbolic Icon Theme</title><g transform="translate(-157.373 -759.902)"><title>go-home</title></g><path d="M7.913 1a1 1 0 0 0-.5.187l-7 5A1.006 1.006 0 1 0 1.6 7.812L8.006 3.25l6.407 4.562A1.006 1.006 0 1 0 15.6 6.187l-7-5A1 1 0 0 0 7.913 1z" style="text-indent:0;text-align:start;line-height:normal;text-transform:none;block-progression:tb;-inkscape-font-specification:Sans" font-weight="400" color="#000" fill="#666" overflow="visible" font-family="Sans"/><path d="M2.782 10.21V6.344l2.53-1.8c1.392-.992 2.57-1.827 2.618-1.856.093-.058-.012-.13 4.594 3.155l.707.504V14.08H9.42V9.612H6.593v4.466H2.782v-3.87z" fill="#666"/></svg>