<svg xmlns="http://www.w3.org/2000/svg" xmlns:xlink="http://www.w3.org/1999/xlink" height="16" width="16.013"><title>Gnome Symbolic Icon Theme</title><defs><linearGradient x1="45.448" y1="92.54" x2="45.448" y2="7.017" id="a" gradientUnits="userSpaceOnUse" gradientTransform="matrix(1.00587 0 0 .99417 100 0)"><stop offset="0"/><stop offset="1" stop-opacity=".588"/></linearGradient><linearGradient id="b"><stop offset="0" stop-color="#523823"/><stop offset=".118" stop-color="#79563a"/><stop offset=".238" stop-color="#875c38"/><stop offset="1" stop-color="#a66e40"/></linearGradient><linearGradient id="c"><stop offset="0" stop-color="#b30707"/><stop offset="1" stop-color="#e42c0d"/></linearGradient><linearGradient id="d"><stop offset="0" stop-color="#e6e6e6"/><stop offset="1" stop-color="#f5f5f5"/></linearGradient><linearGradient id="e"><stop offset="0" stop-color="#501616"/><stop offset="1" stop-color="#501616" stop-opacity="0"/></linearGradient><linearGradient id="f"><stop offset="0" stop-color="#fff" stop-opacity=".718"/><stop offset="1" stop-color="#fff"/></linearGradient><linearGradient id="g"><stop offset="0" stop-color="#fff"/><stop offset="1" stop-color="#fff" stop-opacity="0"/></linearGradient><linearGradient x1="48" y1="90" x2="48" y2="5.988" id="n" xlink:href="#h" gradientUnits="userSpaceOnUse"/><linearGradient id="h"><stop offset="0" stop-color="#e1e1e1"/><stop offset="1" stop-color="#f0f0f0"/></linearGradient><linearGradient x1="36.357" y1="6" x2="36.357" y2="63.893" id="o" xlink:href="#g" gradientUnits="userSpaceOnUse"/><radialGradient cx="48" cy="90.172" r="42" fx="48" fy="90.172" id="p" xlink:href="#g" gradientUnits="userSpaceOnUse" gradientTransform="matrix(1.1573 0 0 .9959 -7.55 .197)"/><clipPath id="q"><rect width="84" height="84" rx="6" ry="6" x="6" y="6" fill="#fff"/></clipPath><filter x="-.192" y="-.192" width="1.384" height="1.384" id="s" color-interpolation-filters="sRGB"><feGaussianBlur stdDeviation="5.28"/></filter><linearGradient xlink:href="#a" id="i" gradientUnits="userSpaceOnUse" gradientTransform="matrix(1.0238 0 0 1.0119 -1.143 -98.07)" x1="32.251" y1="6.132" x2="32.251" y2="90.239"/><linearGradient xlink:href="#a" id="j" gradientUnits="userSpaceOnUse" gradientTransform="matrix(1.0238 0 0 1.0119 -1.143 -98.07)" x1="32.251" y1="6.132" x2="32.251" y2="90.239"/><linearGradient xlink:href="#a" id="k" gradientUnits="userSpaceOnUse" gradientTransform="matrix(1.0238 0 0 1.0119 -1.143 -98.07)" x1="32.251" y1="6.132" x2="32.251" y2="90.239"/><linearGradient xlink:href="#a" id="l" gradientUnits="userSpaceOnUse" gradientTransform="matrix(1.0238 0 0 1.0119 -1.143 -98.07)" x1="32.251" y1="6.132" x2="32.251" y2="90.239"/><linearGradient xlink:href="#a" id="m" gradientUnits="userSpaceOnUse" gradientTransform="translate(0 -97)" x1="32.251" y1="6.132" x2="32.251" y2="90.239"/><linearGradient xlink:href="#g" id="r" gradientUnits="userSpaceOnUse" x1="48" y1="20.221" x2="48" y2="138.661"/></defs><g transform="matrix(.13917 0 0 -.13917 1.326 1.26)"><path d="M12-95.03C6.49-95.03 1.97-90.51 1.97-85v71C1.97-8.49 6.49-3.97 12-3.97h72c5.51 0 10.03-4.52 10.03-10.03v-71c0-5.51-4.52-10.03-10.03-10.03z" opacity=".08" fill="url(#i)"/><path d="M12-94.03c-4.972 0-9.03 4.058-9.03 9.03v71c0 4.972 4.058 9.03 9.03 9.03h72c4.972 0 9.03-4.058 9.03-9.03v-71c0-4.972-4.058-9.03-9.03-9.03z" opacity=".1" fill="url(#j)"/><path d="M12-93c-4.41 0-8 3.59-8 8v71c0 4.41 3.59 8 8 8h72c4.41 0 8-3.59 8-8v-71c0-4.41-3.59-8-8-8z" opacity=".2" fill="url(#k)"/><rect width="86" height="85" rx="7" ry="7" x="5" y="-92" opacity=".3" fill="url(#l)"/><rect width="84" height="84" rx="6" ry="6" x="6" y="-91" opacity=".45" fill="url(#m)"/></g><g transform="translate(1.326 1.26) scale(.13917)"><rect width="84" height="84" rx="6" ry="6" x="6" y="6" fill="url(#n)"/><path d="M12 6c-3.324 0-6 2.676-6 6v72c0 .335.04.65.094.97.048.294.097.596.187.874l.032.094c.1.287.235.547.375.812.145.274.316.536.5.78a6.105 6.105 0 0 0 2.094 1.78c.28.142.575.25.876.346a4.843 4.843 0 0 1-.72-.375c-.006-.003-.022.006-.03 0-.032-.018-.062-.04-.094-.06-.12-.078-.23-.165-.343-.25-.107-.082-.215-.162-.314-.25a5.042 5.042 0 0 1-.5-.532 5.092 5.092 0 0 1-.312-.407c-.025-.037-.04-.085-.063-.124-.064-.103-.13-.204-.186-.312a5.37 5.37 0 0 1-.282-.625c-.007-.023-.023-.042-.03-.064-.033-.092-.037-.187-.063-.28-.032-.108-.072-.204-.095-.314A5.098 5.098 0 0 1 7 85V13c0-2.782 2.218-5 5-5h72c2.782 0 5 2.218 5 5v72c0 .364-.052.72-.125 1.063a4.896 4.896 0 0 1-.156.593c-.01.022-.025.04-.032.063a5.482 5.482 0 0 1-.22.53c-.04.083-.078.17-.124.25-.055.097-.127.188-.188.28-.094.142-.205.277-.312.407a5.05 5.05 0 0 1-.47.5l-.03.032a4.818 4.818 0 0 1-.438.343c-.102.073-.204.153-.312.218-.008.006-.024-.003-.03 0-.234.14-.464.276-.72.376.3-.097.596-.204.875-.344a6.105 6.105 0 0 0 2.093-1.78c.184-.246.355-.508.5-.782a5.69 5.69 0 0 0 .374-.813l.032-.093c.09-.278.138-.58.186-.875.053-.32.094-.635.094-.97V12c0-3.324-2.676-6-6-6z" opacity=".6" fill="url(#o)"/><path d="M12 90c-3.324 0-6-2.676-6-6V12c0-.335.04-.65.094-.97.048-.294.097-.596.187-.874l.032-.094c.1-.287.235-.547.375-.812.145-.274.316-.536.5-.78a6.105 6.105 0 0 1 2.094-1.78c.28-.142.575-.25.876-.346-.256.1-.486.236-.72.375-.006.003-.022-.006-.03 0-.032.018-.062.04-.094.06-.12.078-.23.165-.343.25-.107.082-.215.162-.314.25-.178.163-.347.347-.5.532-.107.13-.218.266-.312.407-.025.037-.04.085-.063.124-.064.103-.13.204-.186.312a5.37 5.37 0 0 0-.282.625c-.007.023-.023.042-.03.064-.033.092-.037.187-.063.28-.032.108-.072.204-.095.313A5.098 5.098 0 0 0 7 11v72c0 2.782 2.218 5 5 5h72c2.782 0 5-2.218 5-5V11c0-.364-.052-.72-.125-1.063a4.896 4.896 0 0 0-.156-.593c-.01-.022-.025-.04-.032-.063a5.482 5.482 0 0 0-.22-.53c-.04-.083-.078-.17-.124-.25-.055-.097-.127-.188-.188-.28a5.092 5.092 0 0 0-.312-.408 5.05 5.05 0 0 0-.47-.5l-.03-.03a4.818 4.818 0 0 0-.438-.345c-.102-.073-.204-.153-.312-.218-.008-.006-.024.003-.03 0a4.843 4.843 0 0 0-.72-.376c.3.097.596.204.875.343a6.105 6.105 0 0 1 2.093 1.782c.184.244.355.506.5.78.14.265.276.525.374.813l.032.093c.09.278.138.58.186.875.053.32.094.635.094.97v72c0 3.324-2.676 6-6 6z" opacity=".2" fill="url(#p)"/></g><rect width="66" height="66" rx="12" ry="12" x="15" y="15" clip-path="url(#q)" opacity=".5" fill="url(#r)" stroke="#fff" stroke-width=".5" stroke-linecap="round" filter="url(#s)" transform="translate(1.326 1.26) scale(.13917)"/><g fill-rule="evenodd"><path d="M6.8 10.173s-.35.205.25.273c.73.084 1.1.072 1.902-.08 0 0 .212.132.506.247-1.798.77-4.07-.045-2.657-.44zM6.58 9.168s-.393.29.21.353c.776.082 1.39.088 2.453-.116 0 0 .147.15.378.23-2.173.636-4.594.05-3.04-.466z" fill="#0074bd"/><path d="M8.433 7.462c.444.51-.116.97-.116.97s1.125-.582.608-1.31c-.482-.677-.852-1.014 1.15-2.176 0 0-3.143.785-1.642 2.516z" fill="#ea2d2e"/><path d="M10.812 10.917s.26.214-.286.38c-1.038.314-4.32.41-5.232.012-.327-.143.287-.34.48-.383.202-.043.317-.035.317-.035-.364-.257-2.355.504-1.01.722 3.666.594 6.682-.268 5.732-.697zM6.97 8.126s-1.67.396-.592.54c.456.06 1.363.047 2.21-.023.69-.058 1.383-.182 1.383-.182s-.242.105-.418.225c-1.696.446-4.97.238-4.028-.217.797-.386 1.446-.342 1.446-.342zM9.964 9.8c1.724-.896.927-1.756.37-1.64-.135.028-.196.053-.196.053s.05-.08.147-.114c1.1-.388 1.946 1.14-.355 1.745 0 0 .026-.024.034-.045z" fill="#0074bd"/><path d="M8.925 3.07s.955.955-.905 2.423c-1.49 1.177-.34 1.85 0 2.616-.87-.786-1.51-1.478-1.08-2.12.628-.946 2.37-1.404 1.985-2.92z" fill="#ea2d2e"/><path d="M7.14 12.226c1.653.106 4.193-.058 4.254-.84 0 0-.116.296-1.367.53-1.412.267-3.154.236-4.186.065 0 0 .212.177 1.3.246z" fill="#0074bd"/></g></svg>