<?xml version="1.0" encoding="UTF-8" standalone="no"?>
<!-- Created with Inkscape (http://www.inkscape.org/) -->

<svg
   xmlns:dc="http://purl.org/dc/elements/1.1/"
   xmlns:cc="http://creativecommons.org/ns#"
   xmlns:rdf="http://www.w3.org/1999/02/22-rdf-syntax-ns#"
   xmlns:svg="http://www.w3.org/2000/svg"
   xmlns="http://www.w3.org/2000/svg"
   xmlns:xlink="http://www.w3.org/1999/xlink"
   xmlns:sodipodi="http://sodipodi.sourceforge.net/DTD/sodipodi-0.dtd"
   xmlns:inkscape="http://www.inkscape.org/namespaces/inkscape"
   version="1.0"
   width="96"
   height="96"
   id="svg2408"
   inkscape:version="0.91 r13725"
   sodipodi:docname="logo.svg">
  <sodipodi:namedview
     pagecolor="#ffffff"
     bordercolor="#666666"
     borderopacity="1"
     objecttolerance="10"
     gridtolerance="10"
     guidetolerance="10"
     inkscape:pageopacity="0"
     inkscape:pageshadow="2"
     inkscape:window-width="1920"
     inkscape:window-height="1023"
     id="namedview70"
     showgrid="false"
     inkscape:zoom="4.9166667"
     inkscape:cx="34.635475"
     inkscape:cy="74.649754"
     inkscape:window-x="0"
     inkscape:window-y="0"
     inkscape:window-maximized="1"
     inkscape:current-layer="svg2408" />
  <defs
     id="defs2410">
    <linearGradient
       id="linearGradient4384">
      <stop
         id="stop4386"
         style="stop-color:#ffffff;stop-opacity:1"
         offset="0" />
      <stop
         id="stop4388"
         style="stop-color:#ffffff;stop-opacity:0"
         offset="1" />
    </linearGradient>
    <linearGradient
       id="linearGradient4367">
      <stop
         id="stop4369"
         style="stop-color:#ffffff;stop-opacity:0.71755725"
         offset="0" />
      <stop
         id="stop4371"
         style="stop-color:#ffffff;stop-opacity:1"
         offset="1" />
    </linearGradient>
    <linearGradient
       x1="45.447727"
       y1="92.539597"
       x2="45.447727"
       y2="7.0165396"
       id="ButtonShadow"
       gradientUnits="userSpaceOnUse"
       gradientTransform="scale(1.0058652,0.994169)">
      <stop
         id="stop3750"
         style="stop-color:#000000;stop-opacity:1"
         offset="0" />
      <stop
         id="stop3752"
         style="stop-color:#000000;stop-opacity:0.58823532"
         offset="1" />
    </linearGradient>
    <linearGradient
       id="linearGradient3737">
      <stop
         id="stop3739"
         style="stop-color:#ffffff;stop-opacity:1"
         offset="0" />
      <stop
         id="stop3741"
         style="stop-color:#ffffff;stop-opacity:0"
         offset="1" />
    </linearGradient>
    <filter
       color-interpolation-filters="sRGB"
       id="filter3174">
      <feGaussianBlur
         id="feGaussianBlur3176"
         stdDeviation="1.71" />
    </filter>
    <filter
       x="-0.192"
       y="-0.192"
       width="1.3839999"
       height="1.3839999"
       color-interpolation-filters="sRGB"
       id="filter3794">
      <feGaussianBlur
         id="feGaussianBlur3796"
         stdDeviation="5.28" />
    </filter>
    <linearGradient
       x1="48"
       y1="20.220806"
       x2="48"
       y2="138.66119"
       id="linearGradient3613"
       xlink:href="#linearGradient3737"
       gradientUnits="userSpaceOnUse" />
    <linearGradient
       x1="45.447727"
       y1="92.539597"
       x2="45.447727"
       y2="7.0165396"
       id="ButtonShadow-0"
       gradientUnits="userSpaceOnUse"
       gradientTransform="matrix(1.0058652,0,0,0.994169,100,0)">
      <stop
         id="stop3750-8"
         style="stop-color:#000000;stop-opacity:1"
         offset="0" />
      <stop
         id="stop3752-5"
         style="stop-color:#000000;stop-opacity:0.58823532"
         offset="1" />
    </linearGradient>
    <linearGradient
       x1="32.251034"
       y1="6.1317081"
       x2="32.251034"
       y2="90.238609"
       id="linearGradient3780"
       xlink:href="#ButtonShadow-0"
       gradientUnits="userSpaceOnUse"
       gradientTransform="matrix(1.0238095,0,0,1.0119048,-1.1428571,-98.071429)" />
    <linearGradient
       x1="32.251034"
       y1="6.1317081"
       x2="32.251034"
       y2="90.238609"
       id="linearGradient3772"
       xlink:href="#ButtonShadow-0"
       gradientUnits="userSpaceOnUse"
       gradientTransform="matrix(1.0238095,0,0,1.0119048,-1.1428571,-98.071429)" />
    <linearGradient
       x1="32.251034"
       y1="6.1317081"
       x2="32.251034"
       y2="90.238609"
       id="linearGradient3725"
       xlink:href="#ButtonShadow-0"
       gradientUnits="userSpaceOnUse"
       gradientTransform="matrix(1.0238095,0,0,1.0119048,-1.1428571,-98.071429)" />
    <linearGradient
       x1="32.251034"
       y1="6.1317081"
       x2="32.251034"
       y2="90.238609"
       id="linearGradient3721"
       xlink:href="#ButtonShadow-0"
       gradientUnits="userSpaceOnUse"
       gradientTransform="translate(0,-97)" />
    <linearGradient
       x1="32.251034"
       y1="6.1317081"
       x2="32.251034"
       y2="90.238609"
       id="linearGradient3026"
       xlink:href="#ButtonShadow-0"
       gradientUnits="userSpaceOnUse"
       gradientTransform="matrix(1.0238095,0,0,1.0119048,-1.1428571,-98.071429)" />
    <clipPath
       id="clipPath4355">
      <rect
         width="84"
         height="80"
         rx="6"
         ry="6"
         x="6"
         y="6"
         id="rect4357"
         style="fill:#ffffff;fill-opacity:1;fill-rule:nonzero;stroke:none" />
    </clipPath>
    <radialGradient
       cx="48"
       cy="87.792389"
       r="42"
       fx="48"
       fy="87.792389"
       id="radialGradient4375"
       xlink:href="#linearGradient4367"
       gradientUnits="userSpaceOnUse"
       gradientTransform="matrix(1,-6.7114942e-8,8.4282233e-8,1.2557894,109.99999,-24.505592)" />
    <linearGradient
       x1="48"
       y1="88"
       x2="48"
       y2="-40"
       id="linearGradient4390"
       xlink:href="#linearGradient4384"
       gradientUnits="userSpaceOnUse"
       gradientTransform="matrix(1,0,0,-1,0,92)" />
    <linearGradient
       x1="48"
       y1="82"
       x2="112.12357"
       y2="82.454597"
       id="linearGradient4429"
       xlink:href="#linearGradient4384"
       gradientUnits="userSpaceOnUse"
       spreadMethod="reflect" />
    <linearGradient
       id="linearGradient3843">
      <stop
         id="stop3845"
         style="stop-color:#523823;stop-opacity:1"
         offset="0" />
      <stop
         id="stop3847"
         style="stop-color:#79563a;stop-opacity:1"
         offset="0.11780351" />
      <stop
         id="stop3849"
         style="stop-color:#875c38;stop-opacity:1"
         offset="0.23809524" />
      <stop
         id="stop3851"
         style="stop-color:#a66e40;stop-opacity:1"
         offset="1" />
    </linearGradient>
    <linearGradient
       x1="8"
       y1="1033.3622"
       x2="50"
       y2="1033.3622"
       id="linearGradient3870"
       xlink:href="#linearGradient3843"
       gradientUnits="userSpaceOnUse"
       gradientTransform="translate(-2,-956.3622)"
       spreadMethod="reflect" />
    <linearGradient
       x1="53.194679"
       y1="89.16983"
       x2="53.194679"
       y2="8.3280878"
       id="linearGradient3156"
       xlink:href="#linearGradient4146-2-3"
       gradientUnits="userSpaceOnUse"
       gradientTransform="translate(0,-92)" />
    <linearGradient
       id="linearGradient4146-2-3">
      <stop
         id="stop4148-2-7"
         style="stop-color:#3abef0;stop-opacity:1"
         offset="0" />
      <stop
         id="stop4150-8-4"
         style="stop-color:#0f96c9;stop-opacity:1"
         offset="1" />
    </linearGradient>
    <filter
       inkscape:menu="Shadows and Glows"
       inkscape:menu-tooltip="Cut out, add inner shadow and colorize some parts of an image"
       style="color-interpolation-filters:sRGB"
       inkscape:label="Drop Shadow"
       id="filter4221">
      <feColorMatrix
         values="0 0 0 0 0 0 0 0 0 0 0 0 0 0 0 0.21 0.72 0.07 0 0 "
         result="result1"
         id="feColorMatrix4223" />
      <feColorMatrix
         values="1 0 0 0 0 0 1 0 0 0 0 0 1 0 0 0 0 0 2 0 "
         result="result9"
         id="feColorMatrix4225" />
      <feComposite
         in2="result9"
         in="SourceGraphic"
         operator="in"
         result="result4"
         id="feComposite4227" />
      <feFlood
         result="result2"
         flood-color="rgb(0,0,0)"
         id="feFlood4229" />
      <feComposite
         in2="result9"
         operator="in"
         result="result10"
         id="feComposite4231" />
      <feComposite
         in2="result4"
         operator="atop"
         id="feComposite4233" />
      <feGaussianBlur
         stdDeviation="3"
         result="result8"
         id="feGaussianBlur4235" />
      <feOffset
         dx="-28.199999999999999"
         dy="5.2999999999999998"
         result="result3"
         in="result8"
         id="feOffset4237" />
      <feFlood
         flood-opacity="1"
         flood-color="rgb(219,173,62)"
         result="result5"
         id="feFlood4239" />
      <feMerge
         result="result6"
         id="feMerge4241">
        <feMergeNode
           in="result5"
           id="feMergeNode4243" />
        <feMergeNode
           in="result3"
           id="feMergeNode4245" />
        <feMergeNode
           in="result4"
           id="feMergeNode4247" />
      </feMerge>
      <feComposite
         in2="SourceGraphic"
         operator="in"
         result="fbSourceGraphic"
         id="feComposite4249" />
      <feColorMatrix
         result="fbSourceGraphicAlpha"
         in="fbSourceGraphic"
         values="0 0 0 -1 0 0 0 0 -1 0 0 0 0 -1 0 0 0 0 1 0"
         id="feColorMatrix5454" />
      <feFlood
         id="feFlood5456"
         flood-opacity="0.396078"
         flood-color="rgb(0,0,0)"
         result="flood"
         in="fbSourceGraphic" />
      <feComposite
         id="feComposite5458"
         in2="fbSourceGraphic"
         in="flood"
         operator="in"
         result="composite1" />
      <feGaussianBlur
         id="feGaussianBlur5460"
         in="composite1"
         stdDeviation="0"
         result="blur" />
      <feOffset
         id="feOffset5462"
         dx="-1.9"
         dy="1.1"
         result="offset" />
      <feComposite
         id="feComposite5464"
         in2="offset"
         in="fbSourceGraphic"
         operator="over"
         result="fbSourceGraphic" />
      <feColorMatrix
         result="fbSourceGraphicAlpha"
         in="fbSourceGraphic"
         values="0 0 0 -1 0 0 0 0 -1 0 0 0 0 -1 0 0 0 0 1 0"
         id="feColorMatrix5466" />
      <feFlood
         id="feFlood5468"
         flood-opacity="0.396078"
         flood-color="rgb(0,0,0)"
         result="flood"
         in="fbSourceGraphic" />
      <feComposite
         id="feComposite5470"
         in2="fbSourceGraphic"
         in="flood"
         operator="in"
         result="composite1" />
      <feGaussianBlur
         id="feGaussianBlur5472"
         in="composite1"
         stdDeviation="0"
         result="blur" />
      <feOffset
         id="feOffset5474"
         dx="-1.9"
         dy="1.1"
         result="offset" />
      <feComposite
         id="feComposite5476"
         in2="offset"
         in="fbSourceGraphic"
         operator="over"
         result="composite2" />
    </filter>
    <filter
       inkscape:menu="Shadows and Glows"
       inkscape:menu-tooltip="Cut out, add inner shadow and colorize some parts of an image"
       style="color-interpolation-filters:sRGB"
       inkscape:label="Drop Shadow"
       id="filter4237">
      <feColorMatrix
         values="0 0 0 0 0 0 0 0 0 0 0 0 0 0 0 0.21 0.72 0.07 0 0 "
         result="result1"
         id="feColorMatrix4239" />
      <feColorMatrix
         values="1 0 0 0 0 0 1 0 0 0 0 0 1 0 0 0 0 0 2 0 "
         result="result9"
         id="feColorMatrix4241" />
      <feComposite
         in2="result9"
         in="SourceGraphic"
         operator="in"
         result="result4"
         id="feComposite4243" />
      <feFlood
         result="result2"
         flood-color="rgb(0,0,0)"
         id="feFlood4245" />
      <feComposite
         in2="result9"
         operator="in"
         result="result10"
         id="feComposite4247" />
      <feComposite
         in2="result4"
         operator="atop"
         id="feComposite4250" />
      <feGaussianBlur
         stdDeviation="3"
         result="result8"
         id="feGaussianBlur4252" />
      <feOffset
         dx="-28.199999999999999"
         dy="5.2999999999999998"
         result="result3"
         in="result8"
         id="feOffset4254" />
      <feFlood
         flood-opacity="1"
         flood-color="rgb(219,173,62)"
         result="result5"
         id="feFlood4256" />
      <feMerge
         result="result6"
         id="feMerge4258">
        <feMergeNode
           in="result5"
           id="feMergeNode4260" />
        <feMergeNode
           in="result3"
           id="feMergeNode4262" />
        <feMergeNode
           in="result4"
           id="feMergeNode4264" />
      </feMerge>
      <feComposite
         in2="SourceGraphic"
         operator="in"
         result="fbSourceGraphic"
         id="feComposite4266" />
      <feColorMatrix
         result="fbSourceGraphicAlpha"
         in="fbSourceGraphic"
         values="0 0 0 -1 0 0 0 0 -1 0 0 0 0 -1 0 0 0 0 1 0"
         id="feColorMatrix4268" />
      <feFlood
         id="feFlood4270"
         flood-opacity="0.396078"
         flood-color="rgb(0,0,0)"
         result="flood"
         in="fbSourceGraphic" />
      <feComposite
         id="feComposite4272"
         in2="fbSourceGraphic"
         in="flood"
         operator="in"
         result="composite1" />
      <feGaussianBlur
         id="feGaussianBlur4274"
         in="composite1"
         stdDeviation="0"
         result="blur" />
      <feOffset
         id="feOffset4276"
         dx="-1.9"
         dy="1.1"
         result="offset" />
      <feComposite
         id="feComposite4278"
         in2="offset"
         in="fbSourceGraphic"
         operator="over"
         result="fbSourceGraphic" />
      <feColorMatrix
         result="fbSourceGraphicAlpha"
         in="fbSourceGraphic"
         values="0 0 0 -1 0 0 0 0 -1 0 0 0 0 -1 0 0 0 0 1 0"
         id="feColorMatrix4280" />
      <feFlood
         id="feFlood4282"
         flood-opacity="0.396078"
         flood-color="rgb(0,0,0)"
         result="flood"
         in="fbSourceGraphic" />
      <feComposite
         id="feComposite4284"
         in2="fbSourceGraphic"
         in="flood"
         operator="in"
         result="composite1" />
      <feGaussianBlur
         id="feGaussianBlur4286"
         in="composite1"
         stdDeviation="0"
         result="blur" />
      <feOffset
         id="feOffset4288"
         dx="-1.9"
         dy="1.1"
         result="offset" />
      <feComposite
         id="feComposite4290"
         in2="offset"
         in="fbSourceGraphic"
         operator="over"
         result="composite2" />
    </filter>
    <filter
       inkscape:menu="Shadows and Glows"
       inkscape:menu-tooltip="Cut out, add inner shadow and colorize some parts of an image"
       style="color-interpolation-filters:sRGB"
       inkscape:label="Drop Shadow"
       id="filter4292">
      <feColorMatrix
         values="0 0 0 0 0 0 0 0 0 0 0 0 0 0 0 0.21 0.72 0.07 0 0 "
         result="result1"
         id="feColorMatrix4294" />
      <feColorMatrix
         values="1 0 0 0 0 0 1 0 0 0 0 0 1 0 0 0 0 0 2 0 "
         result="result9"
         id="feColorMatrix4296" />
      <feComposite
         in2="result9"
         in="SourceGraphic"
         operator="in"
         result="result4"
         id="feComposite4298" />
      <feFlood
         result="result2"
         flood-color="rgb(0,0,0)"
         id="feFlood4300" />
      <feComposite
         in2="result9"
         operator="in"
         result="result10"
         id="feComposite4302" />
      <feComposite
         in2="result4"
         operator="atop"
         id="feComposite4304" />
      <feGaussianBlur
         stdDeviation="3"
         result="result8"
         id="feGaussianBlur4306" />
      <feOffset
         dx="-28.199999999999999"
         dy="5.2999999999999998"
         result="result3"
         in="result8"
         id="feOffset4308" />
      <feFlood
         flood-opacity="1"
         flood-color="rgb(219,173,62)"
         result="result5"
         id="feFlood4310" />
      <feMerge
         result="result6"
         id="feMerge4312">
        <feMergeNode
           in="result5"
           id="feMergeNode4314" />
        <feMergeNode
           in="result3"
           id="feMergeNode4316" />
        <feMergeNode
           in="result4"
           id="feMergeNode4318" />
      </feMerge>
      <feComposite
         in2="SourceGraphic"
         operator="in"
         result="fbSourceGraphic"
         id="feComposite4320" />
      <feColorMatrix
         result="fbSourceGraphicAlpha"
         in="fbSourceGraphic"
         values="0 0 0 -1 0 0 0 0 -1 0 0 0 0 -1 0 0 0 0 1 0"
         id="feColorMatrix4322" />
      <feFlood
         id="feFlood4324"
         flood-opacity="0.396078"
         flood-color="rgb(0,0,0)"
         result="flood"
         in="fbSourceGraphic" />
      <feComposite
         id="feComposite4326"
         in2="fbSourceGraphic"
         in="flood"
         operator="in"
         result="composite1" />
      <feGaussianBlur
         id="feGaussianBlur4328"
         in="composite1"
         stdDeviation="0"
         result="blur" />
      <feOffset
         id="feOffset4330"
         dx="-1.9"
         dy="1.1"
         result="offset" />
      <feComposite
         id="feComposite4332"
         in2="offset"
         in="fbSourceGraphic"
         operator="over"
         result="fbSourceGraphic" />
      <feColorMatrix
         result="fbSourceGraphicAlpha"
         in="fbSourceGraphic"
         values="0 0 0 -1 0 0 0 0 -1 0 0 0 0 -1 0 0 0 0 1 0"
         id="feColorMatrix4334" />
      <feFlood
         id="feFlood4336"
         flood-opacity="0.396078"
         flood-color="rgb(0,0,0)"
         result="flood"
         in="fbSourceGraphic" />
      <feComposite
         id="feComposite4338"
         in2="fbSourceGraphic"
         in="flood"
         operator="in"
         result="composite1" />
      <feGaussianBlur
         id="feGaussianBlur4340"
         in="composite1"
         stdDeviation="0"
         result="blur" />
      <feOffset
         id="feOffset4342"
         dx="-1.9"
         dy="1.1"
         result="offset" />
      <feComposite
         id="feComposite4344"
         in2="offset"
         in="fbSourceGraphic"
         operator="over"
         result="composite2" />
    </filter>
  </defs>
  <metadata
     id="metadata2413">
    <rdf:RDF>
      <cc:Work
         rdf:about="">
        <dc:format>image/svg+xml</dc:format>
        <dc:type
           rdf:resource="http://purl.org/dc/dcmitype/StillImage" />
        <dc:title />
      </cc:Work>
    </rdf:RDF>
  </metadata>
  <g
     id="layer2"
     style="display:none">
    <rect
       width="86"
       height="85"
       rx="6"
       ry="6"
       x="5"
       y="7"
       id="rect3745"
       style="opacity:0.9;fill:url(#ButtonShadow);fill-opacity:1;fill-rule:nonzero;stroke:none;filter:url(#filter3174)" />
  </g>
  <g
     id="layer3"
     style="display:inline">
    <path
       d="m 12,-95.03125 c -5.5110903,0 -10.03125,4.52016 -10.03125,10.03125 l 0,71 c 0,5.5110902 4.5201598,10.03125 10.03125,10.03125 l 72,0 c 5.51109,0 10.03125,-4.5201597 10.03125,-10.03125 l 0,-71 c 0,-5.51109 -4.52016,-10.03125 -10.03125,-10.03125 l -72,0 z"
       transform="scale(1,-1)"
       id="path3786"
       style="opacity:0.07999998;fill:url(#linearGradient3026);fill-opacity:1;fill-rule:nonzero;stroke:none;display:inline" />
    <path
       d="m 12,-94.03125 c -4.971633,0 -9.03125,4.059617 -9.03125,9.03125 l 0,71 c 0,4.9716329 4.0596171,9.03125 9.03125,9.03125 l 72,0 c 4.971633,0 9.03125,-4.059617 9.03125,-9.03125 l 0,-71 c 0,-4.971633 -4.059617,-9.03125 -9.03125,-9.03125 l -72,0 z"
       transform="scale(1,-1)"
       id="path3778"
       style="opacity:0.1;fill:url(#linearGradient3780);fill-opacity:1;fill-rule:nonzero;stroke:none;display:inline" />
    <path
       d="m 12,-93 c -4.4091333,0 -8,3.590867 -8,8 l 0,71 c 0,4.4091333 3.5908667,8 8,8 l 72,0 c 4.409133,0 8,-3.5908667 8,-8 l 0,-71 c 0,-4.409133 -3.590867,-8 -8,-8 l -72,0 z"
       transform="scale(1,-1)"
       id="path3770"
       style="opacity:0.2;fill:url(#linearGradient3772);fill-opacity:1;fill-rule:nonzero;stroke:none;display:inline" />
    <rect
       width="86"
       height="85"
       rx="7"
       ry="7"
       x="5"
       y="-92"
       transform="scale(1,-1)"
       id="rect3723"
       style="opacity:0.3;fill:url(#linearGradient3725);fill-opacity:1;fill-rule:nonzero;stroke:none;display:inline" />
    <rect
       width="84"
       height="84"
       rx="6"
       ry="6"
       x="6"
       y="-91"
       transform="scale(1,-1)"
       id="rect3716"
       style="opacity:0.45;fill:url(#linearGradient3721);fill-opacity:1;fill-rule:nonzero;stroke:none;display:inline" />
  </g>
  <g
     id="layer4">
    <rect
       width="84"
       height="26.000017"
       rx="6"
       ry="6"
       x="6"
       y="64"
       id="rect2841"
       style="color:#000000;fill:url(#linearGradient3870);fill-opacity:1;fill-rule:nonzero;stroke:none;stroke-width:1.5;marker:none;visibility:visible;display:inline;overflow:visible;enable-background:accumulate" />
    <path
       d="m 6,82 0,2 c 0,3.324 2.676,6 6,6 l 72,0 c 3.324,0 6,-2.676 6,-6 l 0,-2 c 0,3.324 -2.676,6 -6,6 L 12,88 C 8.676,88 6,85.324 6,82 z"
       inkscape:connector-curvature="0"
       id="rect4345"
       style="opacity:0.1;color:#000000;fill:#000000;fill-opacity:1;fill-rule:nonzero;stroke:none;stroke-width:1.5;marker:none;visibility:visible;display:inline;overflow:visible;enable-background:accumulate" />
    <path
       d="m 6,83 0,1 c 0,3.324 2.676,6 6,6 l 72,0 c 3.324,0 6,-2.676 6,-6 l 0,-1 c 0,3.324 -2.676,6 -6,6 L 12,89 C 8.676,89 6,86.324 6,83 z"
       inkscape:connector-curvature="0"
       id="rect4336"
       style="opacity:0.1;color:#000000;fill:#000000;fill-opacity:1;fill-rule:nonzero;stroke:none;stroke-width:1.5;marker:none;visibility:visible;display:inline;overflow:visible;enable-background:accumulate" />
    <path
       d="m 6,80 0,1 c 0,3.324 2.676,6 6,6 l 72,0 c 3.324,0 6,-2.676 6,-6 l 0,-1 c 0,3.324 -2.676,6 -6,6 L 12,86 C 8.676,86 6,83.324 6,80 z"
       inkscape:connector-curvature="0"
       id="path4412"
       style="opacity:0.2;fill:#000000;fill-opacity:1;fill-rule:nonzero;stroke:none" />
  </g>
  <g
     id="layer1">
    <rect
       width="84"
       height="80"
       rx="6"
       ry="6"
       x="6"
       y="-86"
       transform="scale(1,-1)"
       id="rect2419-8"
       style="fill:url(#linearGradient3156);fill-opacity:1;fill-rule:nonzero;stroke:none;display:inline" />
    <path
       d="M 120.78125,6.125 C 118.04223,6.6826484 116,9.0915 116,12 l 0,68 c 0,3.324 2.676,6 6,6 l 72,0 c 3.324,0 6,-2.676 6,-6 l 0,-68 c 0,-2.9085 -2.04223,-5.3173516 -4.78125,-5.875 2.20512,0.5362071 3.8125,2.4908437 3.8125,4.875 l 0,68 c 0,2.80489 -2.22636,5.03125 -5.03125,5.03125 l -72,0 c -2.80489,0 -5.03125,-2.22636 -5.03125,-5.03125 l 0,-68 c 0,-2.3841563 1.60738,-4.3387929 3.8125,-4.875 z"
       inkscape:connector-curvature="0"
       id="rect4359"
       style="opacity:0.2;fill:url(#radialGradient4375);fill-opacity:1;fill-rule:nonzero;stroke:none" />
    <path
       d="M 12,86 C 8.676,86 6,83.324 6,80 L 6,12 C 6,8.676 8.676,6 12,6 l 72,0 c 3.324,0 6,2.676 6,6 l 0,68 c 0,3.324 -2.676,6 -6,6 z m 0,-0.96875 72,0 c 2.80489,0 5.03125,-2.22636 5.03125,-5.03125 l 0,-68 C 89.03125,9.19511 86.80489,6.96875 84,6.96875 l -72,0 C 9.1951102,6.96875 6.96875,9.19511 6.96875,12 l 0,68 c 0,2.80489 2.2263602,5.03125 5.03125,5.03125 z"
       inkscape:connector-curvature="0"
       id="rect4377"
       style="opacity:0.35;fill:url(#linearGradient4390);fill-opacity:1;fill-rule:nonzero;stroke:none" />
    <path
       d="m 6,78 0,2 c 0,3.324 2.676,6 6,6 l 72,0 c 3.324,0 6,-2.676 6,-6 l 0,-2 c 0,3.324 -2.676,6 -6,6 L 12,84 C 8.676,84 6,81.324 6,78 z"
       inkscape:connector-curvature="0"
       id="rect4414"
       style="opacity:0.15;fill:url(#linearGradient4429);fill-opacity:1;fill-rule:nonzero;stroke:none" />
  </g>
  <g
     id="layer5"
     style="display:inline">
    <rect
       width="66"
       height="62"
       rx="12"
       ry="12"
       x="15"
       y="15"
       clip-path="url(#clipPath4355)"
       id="rect3171"
       style="opacity:0.1;fill:url(#linearGradient3613);fill-opacity:1;fill-rule:nonzero;stroke:#ffffff;stroke-width:0.5;stroke-linecap:round;stroke-linejoin:miter;stroke-miterlimit:4;stroke-opacity:1;stroke-dasharray:none;stroke-dashoffset:0;filter:url(#filter3794)" />
  </g>
  <path
     style="fill:#ffffff;fill-opacity:1"
     d="M 45.474532,69.780663 C 44.179285,62.04562 43.028595,55.615879 42.917439,55.492345 c -0.11115,-0.123536 -2.426766,1.375854 -5.145805,3.331973 -2.71904,1.95612 -5.858729,4.199621 -6.97709,4.98555 l -2.033378,1.428968 1.428968,-2.033376 c 0.785929,-1.118363 3.02943,-4.25805 4.98555,-6.977089 1.956121,-2.719042 3.455511,-5.033652 3.331975,-5.143583 -0.123533,-0.109932 -6.553407,-1.25923 -14.288611,-2.554005 -7.735201,-1.294773 -14.064002,-2.43231 -14.064002,-2.527859 0,-0.09555 6.328801,-1.234037 14.064002,-2.529969 7.735204,-1.295933 14.165078,-2.446548 14.288611,-2.556923 0.123536,-0.110376 -1.375854,-2.425352 -3.331975,-5.144392 -1.95612,-2.719042 -4.199621,-5.858731 -4.98555,-6.977089 l -1.428968,-2.033379 2.033378,1.428967 c 1.118361,0.785931 4.25805,3.029431 6.97709,4.985552 2.719039,1.95612 5.034655,3.455508 5.145805,3.331972 0.111156,-0.123533 1.261846,-6.553277 2.557093,-14.288317 C 46.769778,14.484308 47.90624,8.1556391 48,8.1556391 c 0.09376,0 1.230219,6.3286689 2.525468,14.0637069 1.295245,7.73504 2.445937,14.164782 2.557092,14.288317 0.111151,0.123534 2.426765,-1.375852 5.145804,-3.331972 2.719042,-1.956121 5.858731,-4.199621 6.97709,-4.985552 l 2.033378,-1.428967 -1.428966,2.033379 c -0.785932,1.118358 -3.029432,4.258047 -4.985553,6.977089 -1.95612,2.71904 -3.455508,5.034016 -3.331974,5.144392 0.123535,0.110375 6.553409,1.26099 14.28861,2.556923 7.735201,1.295932 14.064005,2.434416 14.064005,2.529969 0,0.09555 -6.328804,1.233086 -14.064005,2.527859 -7.735201,1.294775 -14.165075,2.444073 -14.28861,2.554005 -0.123534,0.109931 1.375854,2.424543 3.331974,5.143583 1.956121,2.719039 4.199621,5.858726 4.985553,6.977089 l 1.428966,2.033376 -2.033378,-1.428968 c -1.118359,-0.785929 -4.258048,-3.02943 -6.97709,-4.98555 -2.719039,-1.956119 -5.034653,-3.455511 -5.145804,-3.331973 -0.111155,0.123534 -1.261847,6.553273 -2.557092,14.288318 C 49.230219,77.5157 48.09376,83.844361 48,83.844361 c -0.09376,0 -1.230222,-6.328661 -2.525468,-14.063698 z m 5.108717,-19.908274 c 2.450372,-1.605546 2.75727,-4.987102 0.644369,-7.100005 -1.911739,-1.911733 -4.543497,-1.911733 -6.455237,0 -1.921614,1.921614 -1.911556,4.543685 0.02485,6.480095 0.620766,0.620766 1.48027,1.200527 1.910004,1.288355 1.143575,0.23372 2.983358,-0.08356 3.876006,-0.668445 z"
     id="path4209"
     inkscape:connector-curvature="0" />
  <path
     id="rect4211"
     style="fill:#ff0000;fill-opacity:1;stroke:none;stroke-opacity:0.52965237;filter:url(#filter4221)"
     d="M 269.37504,782.70162 386.3355,795.19006 269.56883,808.24262 252.0218,795.12186 Z"
     inkscape:connector-curvature="0"
     sodipodi:nodetypes="ccccc"
     transform="matrix(0.19098346,-0.11026435,0.11026435,0.19098346,-88.610146,-77.913607)" />
  <path
     sodipodi:nodetypes="ccccc"
     inkscape:connector-curvature="0"
     d="m 242.20812,808.24262 -116.96046,-12.48844 116.76667,-13.05256 17.54703,13.12076 z"
     style="fill:#ffffff;fill-opacity:1;stroke:none;stroke-opacity:0.52965237;filter:url(#filter4221)"
     id="path4215"
     transform="matrix(0.19098346,-0.11026435,0.11026435,0.19098346,-88.610146,-77.913607)" />
  <path
     style="fill:#999999;fill-opacity:1;stroke:none;stroke-opacity:0.52965237;filter:url(#filter4221)"
     id="path4253"
     sodipodi:type="arc"
     sodipodi:cx="256"
     sodipodi:cy="796.36218"
     sodipodi:rx="14.899751"
     sodipodi:ry="14.899751"
     sodipodi:start="4.4955802"
     sodipodi:end="4.2290286"
     d="m 252.79485,781.81125 a 14.899751,14.899751 0 0 1 17.51036,10.38397 14.899751,14.899751 0 0 1 -9.19493,18.16295 14.899751,14.899751 0 0 1 -18.73492,-7.96508 14.899751,14.899751 0 0 1 6.69987,-19.22372"
     sodipodi:open="true"
     transform="matrix(0.22052871,0,0,0.22052871,-8.4553498,-129.62072)" />
</svg>
