<svg xmlns="http://www.w3.org/2000/svg" xmlns:xlink="http://www.w3.org/1999/xlink" version="1" width="96" height="96"><defs><linearGradient id="d"><stop offset="0" stop-color="#fff"/><stop offset="1" stop-color="#fff" stop-opacity="0"/></linearGradient><linearGradient id="c"><stop offset="0" stop-color="#fff" stop-opacity=".718"/><stop offset="1" stop-color="#fff"/></linearGradient><linearGradient x1="45.448" y1="92.54" x2="45.448" y2="7.017" id="g" gradientUnits="userSpaceOnUse" gradientTransform="scale(1.00587 .99417)"><stop offset="0"/><stop offset="1" stop-opacity=".588"/></linearGradient><linearGradient id="a"><stop offset="0" stop-color="#fff"/><stop offset="1" stop-color="#fff" stop-opacity="0"/></linearGradient><filter color-interpolation-filters="sRGB" id="h"><feGaussianBlur stdDeviation="1.71"/></filter><linearGradient x1="45.448" y1="92.54" x2="45.448" y2="7.017" id="b" gradientUnits="userSpaceOnUse" gradientTransform="matrix(1.00587 0 0 .99417 100 0)"><stop offset="0"/><stop offset="1" stop-opacity=".588"/></linearGradient><linearGradient x1="32.251" y1="6.132" x2="32.251" y2="90.239" id="j" xlink:href="#b" gradientUnits="userSpaceOnUse" gradientTransform="matrix(1.0238 0 0 1.0119 -1.143 -98.07)"/><linearGradient x1="32.251" y1="6.132" x2="32.251" y2="90.239" id="k" xlink:href="#b" gradientUnits="userSpaceOnUse" gradientTransform="matrix(1.0238 0 0 1.0119 -1.143 -98.07)"/><linearGradient x1="32.251" y1="6.132" x2="32.251" y2="90.239" id="l" xlink:href="#b" gradientUnits="userSpaceOnUse" gradientTransform="matrix(1.0238 0 0 1.0119 -1.143 -98.07)"/><linearGradient x1="32.251" y1="6.132" x2="32.251" y2="90.239" id="m" xlink:href="#b" gradientUnits="userSpaceOnUse" gradientTransform="translate(0 -97)"/><linearGradient x1="32.251" y1="6.132" x2="32.251" y2="90.239" id="i" xlink:href="#b" gradientUnits="userSpaceOnUse" gradientTransform="matrix(1.0238 0 0 1.0119 -1.143 -98.07)"/><radialGradient cx="48" cy="87.792" r="42" fx="48" fy="87.792" id="o" xlink:href="#c" gradientUnits="userSpaceOnUse" gradientTransform="matrix(1 0 0 1.2558 110 -24.506)"/><linearGradient x1="48" y1="88" x2="48" y2="-40" id="p" xlink:href="#d" gradientUnits="userSpaceOnUse" gradientTransform="matrix(1 0 0 -1 0 92)"/><linearGradient x1="48" y1="82" x2="112.124" y2="82.455" id="q" xlink:href="#d" gradientUnits="userSpaceOnUse" spreadMethod="reflect"/><linearGradient id="e"><stop offset="0" stop-color="#523823"/><stop offset=".118" stop-color="#79563a"/><stop offset=".238" stop-color="#875c38"/><stop offset="1" stop-color="#a66e40"/></linearGradient><linearGradient x1="8" y1="1033.362" x2="50" y2="1033.362" id="n" xlink:href="#e" gradientUnits="userSpaceOnUse" gradientTransform="translate(-2 -956.362)" spreadMethod="reflect"/><linearGradient id="f"><stop offset="0" stop-color="#3abef0"/><stop offset="1" stop-color="#0f96c9"/></linearGradient><filter id="r" color-interpolation-filters="sRGB"><feColorMatrix values="0 0 0 0 0 0 0 0 0 0 0 0 0 0 0 0.21 0.72 0.07 0 0" result="result1"/><feColorMatrix values="1 0 0 0 0 0 1 0 0 0 0 0 1 0 0 0 0 0 2 0" result="result9"/><feComposite in2="result9" in="SourceGraphic" operator="in" result="result4"/><feFlood result="result2" flood-color="#000"/><feComposite in2="result9" operator="in" result="result10"/><feComposite in2="result4" operator="atop"/><feGaussianBlur stdDeviation="3" result="result8"/><feOffset dx="-28.2" dy="5.3" result="result3" in="result8"/><feFlood flood-opacity="1" flood-color="#DBAD3E" result="result5"/><feMerge result="result6"><feMergeNode in="result5"/><feMergeNode in="result3"/><feMergeNode in="result4"/></feMerge><feComposite in2="SourceGraphic" operator="in" result="fbSourceGraphic"/><feColorMatrix result="fbSourceGraphicAlpha" in="fbSourceGraphic" values="0 0 0 -1 0 0 0 0 -1 0 0 0 0 -1 0 0 0 0 1 0"/><feFlood flood-opacity=".396" flood-color="#000" result="flood"/><feComposite in2="fbSourceGraphic" in="flood" operator="in" result="composite1"/><feGaussianBlur in="composite1" result="blur"/><feOffset dx="-1.9" dy="1.1" result="offset"/><feComposite in2="offset" in="fbSourceGraphic" result="fbSourceGraphic"/><feColorMatrix result="fbSourceGraphicAlpha" in="fbSourceGraphic" values="0 0 0 -1 0 0 0 0 -1 0 0 0 0 -1 0 0 0 0 1 0"/><feFlood flood-opacity=".396" flood-color="#000" result="flood"/><feComposite in2="fbSourceGraphic" in="flood" operator="in" result="composite1"/><feGaussianBlur in="composite1" result="blur"/><feOffset dx="-1.9" dy="1.1" result="offset"/><feComposite in2="offset" in="fbSourceGraphic" result="composite2"/></filter></defs><g transform="scale(1 -1)"><path d="M12-95.03C6.49-95.03 1.97-90.51 1.97-85v71C1.97-8.49 6.49-3.97 12-3.97h72c5.51 0 10.03-4.52 10.03-10.03v-71c0-5.51-4.52-10.03-10.03-10.03H12z" opacity=".08" fill="url(#i)"/><path d="M12-94.03c-4.972 0-9.03 4.058-9.03 9.03v71c0 4.972 4.058 9.03 9.03 9.03h72c4.972 0 9.03-4.058 9.03-9.03v-71c0-4.972-4.058-9.03-9.03-9.03H12z" opacity=".1" fill="url(#j)"/><path d="M12-93c-4.41 0-8 3.59-8 8v71c0 4.41 3.59 8 8 8h72c4.41 0 8-3.59 8-8v-71c0-4.41-3.59-8-8-8H12z" opacity=".2" fill="url(#k)"/><rect width="86" height="85" rx="7" ry="7" x="5" y="-92" opacity=".3" fill="url(#l)"/><rect width="84" height="84" rx="6" ry="6" x="6" y="-91" opacity=".45" fill="url(#m)"/></g><rect width="84" height="26" rx="6" ry="6" x="6" y="64" color="#000" fill="url(#n)" overflow="visible" enable-background="accumulate"/><path d="M6 82v2c0 3.324 2.676 6 6 6h72c3.324 0 6-2.676 6-6v-2c0 3.324-2.676 6-6 6H12c-3.324 0-6-2.676-6-6z" opacity=".1" color="#000" overflow="visible" enable-background="accumulate"/><path d="M6 83v1c0 3.324 2.676 6 6 6h72c3.324 0 6-2.676 6-6v-1c0 3.324-2.676 6-6 6H12c-3.324 0-6-2.676-6-6z" opacity=".1" color="#000" overflow="visible" enable-background="accumulate"/><path d="M6 80v1c0 3.324 2.676 6 6 6h72c3.324 0 6-2.676 6-6v-1c0 3.324-2.676 6-6 6H12c-3.324 0-6-2.676-6-6z" opacity=".2"/><rect width="84" height="80" rx="6" ry="6" x="6" y="-86" transform="scale(1 -1)" fill="#3abefc"/><path d="M120.78 6.125A5.977 5.977 0 0 0 116 12v68c0 3.324 2.676 6 6 6h72c3.324 0 6-2.676 6-6V12a5.977 5.977 0 0 0-4.78-5.875A4.98 4.98 0 0 1 199.03 11v68a4.998 4.998 0 0 1-5.03 5.03h-72a4.998 4.998 0 0 1-5.03-5.03V11a4.98 4.98 0 0 1 3.81-4.875z" opacity=".2" fill="url(#o)"/><path d="M12 86c-3.324 0-6-2.676-6-6V12c0-3.324 2.676-6 6-6h72c3.324 0 6 2.676 6 6v68c0 3.324-2.676 6-6 6zm0-.97h72A4.998 4.998 0 0 0 89.03 80V12A4.998 4.998 0 0 0 84 6.97H12A4.998 4.998 0 0 0 6.97 12v68A4.998 4.998 0 0 0 12 85.03z" opacity=".35" fill="url(#p)"/><path d="M6 78v2c0 3.324 2.676 6 6 6h72c3.324 0 6-2.676 6-6v-2c0 3.324-2.676 6-6 6H12c-3.324 0-6-2.676-6-6z" opacity=".15" fill="url(#q)"/><g transform="matrix(1.05945 0 0 1.00186 21.856 19.113)" fill="#fff"><path d="M22.094 51c-1.324-7.91-2.5-14.488-2.615-14.614-.115-.126-2.483 1.407-5.264 3.408-2.78 2-5.992 4.295-7.136 5.1L5 46.353l1.462-2.08a1131.69 1131.69 0 0 1 5.1-7.135c2-2.782 3.533-5.15 3.407-5.262-.128-.112-6.704-1.288-14.616-2.612-7.91-1.324-14.384-2.488-14.384-2.586 0-.097 6.473-1.262 14.384-2.587 7.912-1.326 14.488-2.503 14.615-2.615.125-.113-1.41-2.48-3.41-5.262-2-2.78-4.295-5.992-5.098-7.136L5 7l2.08 1.462c1.144.803 4.355 3.098 7.136 5.1 2.78 2 5.15 3.533 5.263 3.407.113-.128 1.29-6.704 2.614-14.615C23.42-5.557 24.58-12.03 24.677-12.03c.096 0 1.26 6.473 2.583 14.385 1.325 7.91 2.502 14.487 2.616 14.614.113.125 2.482-1.41 5.263-3.41 2.78-2 5.99-4.295 7.135-5.098L44.355 7l-1.462 2.08a1132 1132 0 0 1-5.1 7.136c-2 2.78-3.533 5.15-3.407 5.262.126.112 6.703 1.29 14.614 2.615 7.912 1.325 14.385 2.49 14.385 2.587 0 .098-6.473 1.262-14.385 2.586-7.91 1.324-14.488 2.5-14.614 2.612-.126.112 1.407 2.48 3.408 5.26 2 2.782 4.295 5.993 5.1 7.137l1.46 2.08-2.08-1.462c-1.143-.804-4.354-3.098-7.135-5.1-2.782-2-5.15-3.533-5.264-3.407-.114.126-1.29 6.703-2.616 14.614-1.324 7.91-2.487 14.384-2.583 14.384-.096 0-1.258-6.473-2.583-14.384zm5.226-20.362c2.506-1.642 2.82-5.1.66-7.262-1.957-1.955-4.65-1.955-6.604 0-1.965 1.966-2.37 4.647-.39 6.628.634.635 1.93 1.228 2.37 1.318 1.17.24 3.05-.086 3.964-.684z"/><rect ry="6" rx="6" y="19.829" x="18.529" height="12.944" width="13.95"/></g><path d="M269.375 782.702l116.96 12.488-116.766 13.053-17.548-13.12z" transform="rotate(-30 -189.696 126.39) scale(.22053)" fill="red" filter="url(#r)"/><path d="M242.208 808.243l-116.96-12.49 116.766-13.05 17.547 13.12z" transform="rotate(-30 -189.696 126.39) scale(.22053)" fill="red" filter="url(#r)"/><path d="M252.795 781.81a14.9 14.9 0 0 1 17.51 10.385 14.9 14.9 0 0 1-9.195 18.163 14.9 14.9 0 0 1-18.735-7.965 14.9 14.9 0 0 1 6.7-19.224" transform="matrix(.22053 0 0 .22053 -8.455 -129.62)" fill="red" filter="url(#r)"/><path d="M47.466 43.784a2.364 2.364 0 0 1 2.78 1.648 2.364 2.364 0 0 1-1.46 2.882 2.364 2.364 0 0 1-2.973-1.264A2.364 2.364 0 0 1 46.876 44" fill="#fff"/></svg>