<svg xmlns="http://www.w3.org/2000/svg" xmlns:xlink="http://www.w3.org/1999/xlink" height="16" width="16.013"><title>Gnome Symbolic Icon Theme</title><defs><linearGradient x1="45.448" y1="92.54" x2="45.448" y2="7.017" id="a" gradientUnits="userSpaceOnUse" gradientTransform="matrix(1.00587 0 0 .99417 100 0)"><stop offset="0"/><stop offset="1" stop-opacity=".588"/></linearGradient><linearGradient id="b"><stop offset="0" stop-color="#523823"/><stop offset=".118" stop-color="#79563a"/><stop offset=".238" stop-color="#875c38"/><stop offset="1" stop-color="#a66e40"/></linearGradient><linearGradient id="c"><stop offset="0" stop-color="#b30707"/><stop offset="1" stop-color="#e42c0d"/></linearGradient><linearGradient id="d"><stop offset="0" stop-color="#e6e6e6"/><stop offset="1" stop-color="#f5f5f5"/></linearGradient><linearGradient id="e"><stop offset="0" stop-color="#501616"/><stop offset="1" stop-color="#501616" stop-opacity="0"/></linearGradient><linearGradient id="f"><stop offset="0" stop-color="#fff" stop-opacity=".718"/><stop offset="1" stop-color="#fff"/></linearGradient><linearGradient id="g"><stop offset="0" stop-color="#fff"/><stop offset="1" stop-color="#fff" stop-opacity="0"/></linearGradient><linearGradient id="h"><stop offset="0" stop-color="#e1e1e1"/><stop offset="1" stop-color="#f0f0f0"/></linearGradient><clipPath id="au"><rect width="84" height="84" rx="6" ry="6" x="6" y="6" fill="#fff"/></clipPath><filter x="-.192" y="-.192" width="1.384" height="1.384" id="av" color-interpolation-filters="sRGB"><feGaussianBlur stdDeviation="5.28"/></filter><linearGradient xlink:href="#a" id="ap" gradientUnits="userSpaceOnUse" gradientTransform="matrix(1.0238 0 0 1.0119 -1.143 -98.07)" x1="32.251" y1="6.132" x2="32.251" y2="90.239"/><linearGradient xlink:href="#a" id="aq" gradientUnits="userSpaceOnUse" gradientTransform="matrix(1.0238 0 0 1.0119 -1.143 -98.07)" x1="32.251" y1="6.132" x2="32.251" y2="90.239"/><linearGradient xlink:href="#a" id="ar" gradientUnits="userSpaceOnUse" gradientTransform="matrix(1.0238 0 0 1.0119 -1.143 -98.07)" x1="32.251" y1="6.132" x2="32.251" y2="90.239"/><linearGradient xlink:href="#a" id="as" gradientUnits="userSpaceOnUse" gradientTransform="matrix(1.0238 0 0 1.0119 -1.143 -98.07)" x1="32.251" y1="6.132" x2="32.251" y2="90.239"/><linearGradient xlink:href="#a" id="at" gradientUnits="userSpaceOnUse" gradientTransform="translate(0 -97)" x1="32.251" y1="6.132" x2="32.251" y2="90.239"/><radialGradient cx="232.407" cy="-168.505" r="33.058" id="i" gradientUnits="userSpaceOnUse" gradientTransform="matrix(1 0 0 -1 -270.96 -122.075)"><stop offset=".001" stop-color="#d1e7ee"/><stop offset=".098" stop-color="#cde4ec"/><stop offset=".203" stop-color="#c0dce8"/><stop offset=".298" stop-color="#add0e1"/><stop offset=".65" stop-color="#3982b1"/><stop offset=".72" stop-color="#3474aa"/><stop offset=".899" stop-color="#285699"/><stop offset="1" stop-color="#244b93"/></radialGradient><radialGradient cx="232.389" cy="-168.276" r="33.26" id="j" gradientUnits="userSpaceOnUse" gradientTransform="matrix(1 0 0 -1 -270.96 -122.075)"><stop offset=".004" stop-color="#d8eeed"/><stop offset=".173" stop-color="#98d8d7"/><stop offset=".224" stop-color="#8ed3d3"/><stop offset=".309" stop-color="#74c6ca"/><stop offset=".418" stop-color="#49b1ba"/><stop offset=".448" stop-color="#3caab5"/><stop offset=".56" stop-color="#2e81a4"/><stop offset=".684" stop-color="#215b94"/><stop offset=".783" stop-color="#19448b"/><stop offset=".845" stop-color="#163b87"/><stop offset="1" stop-color="#0b317d"/></radialGradient><radialGradient cx="232.386" cy="-168.443" r="33.178" id="k" gradientUnits="userSpaceOnUse" gradientTransform="matrix(1 0 0 -1 -270.96 -122.075)"><stop offset=".004" stop-color="#d8eeed"/><stop offset=".173" stop-color="#98d8d7"/><stop offset=".224" stop-color="#8ed3d3"/><stop offset=".309" stop-color="#74c6ca"/><stop offset=".418" stop-color="#49b1ba"/><stop offset=".448" stop-color="#3caab5"/><stop offset=".56" stop-color="#2e81a4"/><stop offset=".684" stop-color="#215b94"/><stop offset=".783" stop-color="#19448b"/><stop offset=".845" stop-color="#163b87"/><stop offset="1" stop-color="#152469"/></radialGradient><radialGradient cx="232.41" cy="-168.416" r="33.192" id="l" gradientUnits="userSpaceOnUse" gradientTransform="matrix(1 0 0 -1 -270.96 -122.075)"><stop offset=".004" stop-color="#d8eeed"/><stop offset=".173" stop-color="#98d8d7"/><stop offset=".224" stop-color="#8ed3d3"/><stop offset=".309" stop-color="#74c6ca"/><stop offset=".418" stop-color="#49b1ba"/><stop offset=".448" stop-color="#3caab5"/><stop offset=".56" stop-color="#2e81a4"/><stop offset=".684" stop-color="#215b94"/><stop offset=".783" stop-color="#19448b"/><stop offset=".845" stop-color="#163b87"/><stop offset="1" stop-color="#0b317d"/></radialGradient><linearGradient x1="230.576" y1="-169.541" x2="225.406" y2="-187.729" id="m" gradientUnits="userSpaceOnUse" gradientTransform="matrix(1 0 0 -1 -270.96 -122.075)"><stop offset="0" stop-color="#98d8d7"/><stop offset="1" stop-color="#152469"/></linearGradient><radialGradient cx="232.418" cy="-168.404" r="33.31" id="n" gradientUnits="userSpaceOnUse" gradientTransform="matrix(1 0 0 -1 -270.96 -122.075)"><stop offset=".004" stop-color="#d8eeed"/><stop offset=".173" stop-color="#98d8d7"/><stop offset=".224" stop-color="#8ed3d3"/><stop offset=".309" stop-color="#74c6ca"/><stop offset=".418" stop-color="#49b1ba"/><stop offset=".448" stop-color="#3caab5"/><stop offset=".56" stop-color="#2e81a4"/><stop offset=".684" stop-color="#215b94"/><stop offset=".783" stop-color="#19448b"/><stop offset=".845" stop-color="#163b87"/><stop offset="1" stop-color="#152469"/></radialGradient><linearGradient x1="200.45" y1="-178.688" x2="207.315" y2="-178.688" id="o" gradientUnits="userSpaceOnUse" gradientTransform="matrix(1 0 0 -1 -270.96 -122.075)"><stop offset="0" stop-color="#def3f1"/><stop offset="1" stop-color="#5085bc"/></linearGradient><linearGradient x1="223.903" y1="-179.954" x2="230.89" y2="-179.954" id="p" gradientUnits="userSpaceOnUse" gradientTransform="matrix(1 0 0 -1 -270.96 -122.075)"><stop offset="0" stop-color="#def3f1"/><stop offset="1" stop-color="#5085bc"/></linearGradient><linearGradient x1="206.641" y1="-167.061" x2="230.795" y2="-167.061" id="q" gradientUnits="userSpaceOnUse" gradientTransform="matrix(1 0 0 -1 -270.96 -122.075)"><stop offset="0" stop-color="#094992"/><stop offset=".669" stop-color="#8bcde2"/><stop offset="1" stop-color="#e6f6f9"/></linearGradient><linearGradient x1="206.69" y1="-167.532" x2="206.69" y2="-167.532" id="r" gradientUnits="userSpaceOnUse" gradientTransform="matrix(1 0 0 -1 -270.96 -122.075)"><stop offset="0" stop-color="#7e9ec4"/><stop offset="1" stop-color="#151d89"/></linearGradient><linearGradient x1="207.226" y1="-167.477" x2="230.318" y2="-167.477" id="s" gradientUnits="userSpaceOnUse" gradientTransform="matrix(1 0 0 -1 -270.96 -122.075)"><stop offset=".006" stop-color="#bbc7e1"/><stop offset=".225" stop-color="#7090c3"/><stop offset=".545" stop-color="#c8eaef"/><stop offset="1" stop-color="#fff"/></linearGradient><linearGradient x1="206.696" y1="-166.776" x2="230.795" y2="-166.776" id="t" gradientUnits="userSpaceOnUse" gradientTransform="matrix(1 0 0 -1 -270.96 -122.075)"><stop offset=".006" stop-color="#7090c3"/><stop offset=".545" stop-color="#c1e7ed"/><stop offset="1" stop-color="#fff"/></linearGradient><radialGradient cx="206.623" cy="-167.599" r=".082" id="u" gradientUnits="userSpaceOnUse" gradientTransform="matrix(1 0 0 -1 -270.96 -122.075)"><stop offset="0" stop-color="#7e9ec4"/><stop offset="1" stop-color="#0a50a1"/></radialGradient><radialGradient cx="190.719" cy="-188.167" r="40.777" id="v" gradientUnits="userSpaceOnUse" gradientTransform="matrix(1 0 0 -1 -270.96 -122.075)"><stop offset=".004" stop-color="#d8eeed"/><stop offset=".173" stop-color="#98d8d7"/><stop offset=".224" stop-color="#8ed3d3"/><stop offset=".309" stop-color="#74c6ca"/><stop offset=".418" stop-color="#49b1ba"/><stop offset=".448" stop-color="#3caab5"/><stop offset=".499" stop-color="#369fb5"/><stop offset=".631" stop-color="#2a88b4"/><stop offset=".713" stop-color="#257fb4"/><stop offset="1" stop-color="#4161ab"/></radialGradient><radialGradient cx="232.379" cy="-169.231" r="30.777" id="w" gradientUnits="userSpaceOnUse" gradientTransform="matrix(1 0 0 -1 -270.96 -122.075)"><stop offset="0" stop-color="#fcf5b0"/><stop offset=".166" stop-color="#f7eda0"/><stop offset=".285" stop-color="#f3e591"/><stop offset=".65" stop-color="#fcd118"/><stop offset=".802" stop-color="#f7a50c"/><stop offset=".929" stop-color="#f38603"/><stop offset="1" stop-color="#f27b00"/></radialGradient><linearGradient x1="252.821" y1="-194.258" x2="252.693" y2="-194.736" id="x" gradientUnits="userSpaceOnUse" gradientTransform="matrix(1 0 0 -1 -270.96 -122.075)"><stop offset="0" stop-color="#de980d"/><stop offset="1" stop-color="#a85d10"/></linearGradient><linearGradient x1="252.829" y1="-184.025" x2="258.914" y2="-184.025" id="y" gradientUnits="userSpaceOnUse" gradientTransform="matrix(1 0 0 -1 -270.96 -122.075)"><stop offset="0" stop-color="#deb150"/><stop offset="1" stop-color="#fff8b3"/></linearGradient><linearGradient x1="258.853" y1="-173.294" x2="258.853" y2="-173.69" id="z" gradientUnits="userSpaceOnUse" gradientTransform="matrix(1 0 0 -1 -270.96 -122.075)"><stop offset=".006" stop-color="#c67c0c"/><stop offset="1" stop-color="#de980d"/></linearGradient><linearGradient x1="257.981" y1="-172.829" x2="258.228" y2="-173.24" id="A" gradientUnits="userSpaceOnUse" gradientTransform="matrix(1 0 0 -1 -270.96 -122.075)"><stop offset=".006" stop-color="#fed40f"/><stop offset="1" stop-color="#a85d10"/></linearGradient><linearGradient x1="258.626" y1="-173.145" x2="258.473" y2="-173.327" id="B" gradientUnits="userSpaceOnUse" gradientTransform="matrix(1 0 0 -1 -270.96 -122.075)"><stop offset=".006" stop-color="#fed40f"/><stop offset="1" stop-color="#a85d10"/></linearGradient><linearGradient x1="233.971" y1="-173.117" x2="257.971" y2="-173.117" id="C" gradientUnits="userSpaceOnUse" gradientTransform="matrix(1 0 0 -1 -270.96 -122.075)"><stop offset="0" stop-color="#fff8fb"/><stop offset="1" stop-color="#fec236"/></linearGradient><linearGradient x1="255.342" y1="-183.53" x2="254.807" y2="-183.377" id="D" gradientUnits="userSpaceOnUse" gradientTransform="matrix(1 0 0 -1 -270.96 -122.075)"><stop offset="0" stop-color="#b37e00"/><stop offset="1" stop-color="#ff9e00"/></linearGradient><linearGradient x1="252.55" y1="-193.978" x2="252.283" y2="-194.577" id="E" gradientUnits="userSpaceOnUse" gradientTransform="matrix(1 0 0 -1 -270.96 -122.075)"><stop offset=".006" stop-color="#ffd100"/><stop offset="1" stop-color="#a8710a"/></linearGradient><linearGradient x1="227.626" y1="-194.564" x2="252.086" y2="-194.564" id="F" gradientUnits="userSpaceOnUse" gradientTransform="matrix(1 0 0 -1 -270.96 -122.075)"><stop offset="0" stop-color="#de980d"/><stop offset=".4" stop-color="#fdda10"/><stop offset="1" stop-color="#de980d"/></linearGradient><linearGradient x1="227.456" y1="-192.882" x2="227.063" y2="-192.445" id="G" gradientUnits="userSpaceOnUse" gradientTransform="matrix(1 0 0 -1 -270.96 -122.075)"><stop offset="0" stop-color="#de980d"/><stop offset=".1" stop-color="#de980d"/><stop offset=".7" stop-color="#fdda10"/><stop offset="1" stop-color="#de980d"/></linearGradient><linearGradient x1="227.468" y1="-192.15" x2="227.745" y2="-192.65" id="H" gradientUnits="userSpaceOnUse" gradientTransform="matrix(1 0 0 -1 -270.96 -122.075)"><stop offset="0" stop-color="#de980d"/><stop offset=".4" stop-color="#febf0f"/><stop offset=".8" stop-color="#fed40f"/><stop offset="1" stop-color="#de980d"/></linearGradient><radialGradient cx="233.66" cy="-170.85" r=".302" id="I" gradientUnits="userSpaceOnUse" gradientTransform="matrix(1 0 0 -1 -270.96 -122.075)"><stop offset="0" stop-color="#feeb71"/><stop offset="1" stop-color="#de980d"/></radialGradient><linearGradient x1="230.946" y1="-181.772" x2="230.383" y2="-181.61" id="J" gradientUnits="userSpaceOnUse" gradientTransform="matrix(1 0 0 -1 -270.96 -122.075)"><stop offset=".006" stop-color="#ffefbb"/><stop offset="1" stop-color="#ffbf00"/></linearGradient><linearGradient x1="232.795" y1="-173.376" x2="258.867" y2="-173.376" id="K" gradientUnits="userSpaceOnUse" gradientTransform="matrix(1 0 0 -1 -270.96 -122.075)"><stop offset=".006" stop-color="#fca859"/><stop offset=".213" stop-color="#fdc30f"/><stop offset="1" stop-color="#b51c00"/></linearGradient><linearGradient x1="233.006" y1="-173.716" x2="258.914" y2="-173.716" id="L" gradientUnits="userSpaceOnUse" gradientTransform="matrix(1 0 0 -1 -270.96 -122.075)"><stop offset=".006" stop-color="#fff6d8"/><stop offset=".525" stop-color="#fdda10"/><stop offset="1" stop-color="#f9bd0c"/></linearGradient><linearGradient x1="252.125" y1="-194.017" x2="251.763" y2="-193.704" id="M" gradientUnits="userSpaceOnUse" gradientTransform="matrix(1 0 0 -1 -270.96 -122.075)"><stop offset="0" stop-color="#eab949"/><stop offset=".072" stop-color="#edc25a"/><stop offset=".278" stop-color="#f3d883"/><stop offset=".478" stop-color="#f8e9a4"/><stop offset=".67" stop-color="#fcf5bc"/><stop offset=".848" stop-color="#fefcca"/><stop offset="1" stop-color="#ffffcf"/></linearGradient><radialGradient cx="231.44" cy="-164.997" r="29.215" id="N" gradientUnits="userSpaceOnUse" gradientTransform="matrix(1 0 0 -1 -270.96 -122.075)"><stop offset=".004" stop-color="#efd916"/><stop offset=".105" stop-color="#efd516"/><stop offset=".216" stop-color="#edc715"/><stop offset=".331" stop-color="#ebb213"/><stop offset=".449" stop-color="#e89312"/><stop offset=".567" stop-color="#e36d0f"/><stop offset=".65" stop-color="#e04d0d"/><stop offset=".785" stop-color="#ce2907"/><stop offset=".922" stop-color="#bf0b02"/><stop offset="1" stop-color="#b90000"/></radialGradient><linearGradient x1="213.862" y1="-142.182" x2="213.982" y2="-142.182" id="O" gradientUnits="userSpaceOnUse" gradientTransform="matrix(1 0 0 -1 -270.96 -122.075)"><stop offset="0" stop-color="#fd7e36"/><stop offset="1" stop-color="#bd6f4f"/></linearGradient><linearGradient x1="213.921" y1="-141.493" x2="238.016" y2="-141.493" id="P" gradientUnits="userSpaceOnUse" gradientTransform="matrix(1 0 0 -1 -270.96 -122.075)"><stop offset="0" stop-color="#fc2b21"/><stop offset=".236" stop-color="#ff590a"/><stop offset=".248" stop-color="#fb570b"/><stop offset=".327" stop-color="#e74c0e"/><stop offset=".417" stop-color="#d84511"/><stop offset=".525" stop-color="#d04013"/><stop offset=".697" stop-color="#cd3f13"/><stop offset=".796" stop-color="#d04213"/><stop offset=".869" stop-color="#d84b14"/><stop offset=".933" stop-color="#e65b16"/><stop offset=".993" stop-color="#f97219"/><stop offset="1" stop-color="#fc7519"/></linearGradient><linearGradient x1="207.718" y1="-153.405" x2="214.489" y2="-153.405" id="Q" gradientUnits="userSpaceOnUse" gradientTransform="matrix(1 0 0 -1 -270.96 -122.075)"><stop offset="0" stop-color="#fd7e36"/><stop offset="1" stop-color="#bd6f4f"/></linearGradient><linearGradient x1="239.424" y1="-144.728" x2="215.336" y2="-139.359" id="R" gradientUnits="userSpaceOnUse" gradientTransform="matrix(1 0 0 -1 -270.96 -122.075)"><stop offset="0" stop-color="#fe560d"/><stop offset="1" stop-color="#8c1501"/></linearGradient><linearGradient x1="225.955" y1="-144.433" x2="225.681" y2="-136.954" id="S" gradientUnits="userSpaceOnUse" gradientTransform="matrix(1 0 0 -1 -270.96 -122.075)"><stop offset="0" stop-color="#fe560d"/><stop offset="1" stop-color="#8c1501"/></linearGradient><linearGradient x1="231.084" y1="-154.559" x2="238.115" y2="-154.559" id="T" gradientUnits="userSpaceOnUse" gradientTransform="matrix(1 0 0 -1 -270.96 -122.075)"><stop offset="0" stop-color="#fd7e36"/><stop offset="1" stop-color="#fc895b"/></linearGradient><linearGradient x1="207.735" y1="-163.009" x2="231.804" y2="-163.009" id="U" gradientUnits="userSpaceOnUse" gradientTransform="matrix(1 0 0 -1 -270.96 -122.075)"><stop offset="0" stop-color="#fd9b20"/><stop offset=".25" stop-color="#fd9b20"/><stop offset=".336" stop-color="#fdb830"/><stop offset=".429" stop-color="#fed23e"/><stop offset=".485" stop-color="#fedb43"/><stop offset=".75" stop-color="#fe8411"/><stop offset="1" stop-color="#fe560d"/></linearGradient><linearGradient x1="213.862" y1="-142.182" x2="213.983" y2="-142.182" id="V" gradientUnits="userSpaceOnUse" gradientTransform="matrix(1 0 0 -1 -270.96 -122.075)"><stop offset="0" stop-color="#fd7e36"/><stop offset="1" stop-color="#bd6f4f"/></linearGradient><linearGradient x1="213.92" y1="-141.493" x2="238.016" y2="-141.493" id="W" gradientUnits="userSpaceOnUse" gradientTransform="matrix(1 0 0 -1 -270.96 -122.075)"><stop offset="0" stop-color="#fc2b21"/><stop offset=".236" stop-color="#ff590a"/><stop offset=".248" stop-color="#fb570b"/><stop offset=".327" stop-color="#e74c0e"/><stop offset=".417" stop-color="#d84511"/><stop offset=".525" stop-color="#d04013"/><stop offset=".697" stop-color="#cd3f13"/><stop offset=".796" stop-color="#d04213"/><stop offset=".869" stop-color="#d84b14"/><stop offset=".933" stop-color="#e65b16"/><stop offset=".993" stop-color="#f97219"/><stop offset="1" stop-color="#fc7519"/></linearGradient><radialGradient cx="232.245" cy="-168.24" r="33.43" id="X" gradientUnits="userSpaceOnUse" gradientTransform="matrix(1 0 0 -1 -270.96 -122.075)"><stop offset=".005" stop-color="#d1e787"/><stop offset=".123" stop-color="#cee583"/><stop offset=".247" stop-color="#c4de76"/><stop offset=".375" stop-color="#b3d361"/><stop offset=".505" stop-color="#9cc443"/><stop offset=".636" stop-color="#7fb01d"/><stop offset=".65" stop-color="#7bae19"/><stop offset=".779" stop-color="#578d19"/><stop offset=".922" stop-color="#366e1a"/><stop offset="1" stop-color="#29621a"/></radialGradient><linearGradient x1="241.248" y1="-147.935" x2="265.393" y2="-147.935" id="Y" gradientUnits="userSpaceOnUse" gradientTransform="matrix(1 0 0 -1 -270.96 -122.075)"><stop offset="0" stop-color="#d3ed89"/><stop offset="1" stop-color="#5f821c"/></linearGradient><linearGradient x1="238.196" y1="-156.675" x2="237.623" y2="-156.511" id="Z" gradientUnits="userSpaceOnUse" gradientTransform="matrix(1 0 0 -1 -270.96 -122.075)"><stop offset=".282" stop-color="#d3ed89"/><stop offset=".405" stop-color="#d3ed89"/><stop offset="1" stop-color="#5f821c"/></linearGradient><linearGradient x1="241.273" y1="-145.81" x2="240.721" y2="-145.771" id="aa" gradientUnits="userSpaceOnUse" gradientTransform="matrix(1 0 0 -1 -270.96 -122.075)"><stop offset="0" stop-color="#7aa922"/><stop offset=".2" stop-color="#d3ed89"/><stop offset=".525" stop-color="#d3ed89"/><stop offset="1" stop-color="#7aa922"/></linearGradient><linearGradient x1="259.502" y1="-158.343" x2="266.219" y2="-158.343" id="ab" gradientUnits="userSpaceOnUse" gradientTransform="matrix(1 0 0 -1 -270.96 -122.075)"><stop offset=".006" stop-color="#7aa922"/><stop offset=".169" stop-color="#1d4a20"/><stop offset=".382" stop-color="#26551b"/><stop offset="1" stop-color="#7aa922"/></linearGradient><linearGradient x1="259.539" y1="-168.946" x2="258.996" y2="-168.909" id="ac" gradientUnits="userSpaceOnUse" gradientTransform="matrix(1 0 0 -1 -270.96 -122.075)"><stop offset="0" stop-color="#7aa922"/><stop offset="1" stop-color="#d3ed89"/></linearGradient><linearGradient x1="259.782" y1="-168.996" x2="259.439" y2="-169.378" id="ad" gradientUnits="userSpaceOnUse" gradientTransform="matrix(1 0 0 -1 -270.96 -122.075)"><stop offset="0" stop-color="#5f821c"/><stop offset="1" stop-color="#26551b"/></linearGradient><linearGradient x1="234.824" y1="-169.67" x2="259.277" y2="-169.67" id="ae" gradientUnits="userSpaceOnUse" gradientTransform="matrix(1 0 0 -1 -270.96 -122.075)"><stop offset="0" stop-color="#7aa922"/><stop offset=".4" stop-color="#d3ed89"/><stop offset="1" stop-color="#7aa922"/></linearGradient><linearGradient x1="234.675" y1="-167.797" x2="234.288" y2="-167.368" id="af" gradientUnits="userSpaceOnUse" gradientTransform="matrix(1 0 0 -1 -270.96 -122.075)"><stop offset="0" stop-color="#1d3a19"/><stop offset=".1" stop-color="#26551b"/><stop offset=".65" stop-color="#7aa922"/><stop offset="1" stop-color="#d3ed89"/></linearGradient><linearGradient x1="234.661" y1="-167.104" x2="234.942" y2="-167.611" id="ag" gradientUnits="userSpaceOnUse" gradientTransform="matrix(1 0 0 -1 -270.96 -122.075)"><stop offset="0" stop-color="#5f821c"/><stop offset=".405" stop-color="#7aa922"/><stop offset=".8" stop-color="#5f821c"/><stop offset="1" stop-color="#5f821c"/></linearGradient><linearGradient x1="265.943" y1="-147.652" x2="266.023" y2="-147.38" id="ah" gradientUnits="userSpaceOnUse" gradientTransform="matrix(1 0 0 -1 -270.96 -122.075)"><stop offset="0" stop-color="#5b7f30"/><stop offset="1" stop-color="#d3ed89"/></linearGradient><linearGradient x1="265.448" y1="-151.081" x2="240.864" y2="-144.031" id="ai" gradientUnits="userSpaceOnUse" gradientTransform="matrix(1 0 0 -1 -270.96 -122.075)"><stop offset="0" stop-color="#1d3419"/><stop offset=".228" stop-color="#26551b"/><stop offset="1" stop-color="#7aa922"/></linearGradient><linearGradient x1="262.679" y1="-158.141" x2="262.11" y2="-157.978" id="aj" gradientUnits="userSpaceOnUse" gradientTransform="matrix(1 0 0 -1 -270.96 -122.075)"><stop offset="0" stop-color="#5f821c"/><stop offset="1" stop-color="#75c146"/></linearGradient><linearGradient x1="265.25" y1="-147.547" x2="266.354" y2="-147.547" id="ak" gradientUnits="userSpaceOnUse" gradientTransform="matrix(1 0 0 -1 -270.96 -122.075)"><stop offset="0" stop-color="#d3ed89"/><stop offset="1" stop-color="#5f821c"/></linearGradient><linearGradient x1="265.343" y1="-151.339" x2="240.831" y2="-144.31" id="al" gradientUnits="userSpaceOnUse" gradientTransform="matrix(1 0 0 -1 -270.96 -122.075)"><stop offset="0" stop-color="#93bf81"/><stop offset=".228" stop-color="#26551b"/><stop offset="1" stop-color="#bde256"/></linearGradient><linearGradient x1="265.945" y1="-147.654" x2="266.026" y2="-147.381" id="am" gradientUnits="userSpaceOnUse" gradientTransform="matrix(1 0 0 -1 -270.96 -122.075)"><stop offset="0" stop-color="#5b7f30"/><stop offset="1" stop-color="#d3ed89"/></linearGradient><linearGradient x1="265.25" y1="-147.548" x2="266.356" y2="-147.548" id="an" gradientUnits="userSpaceOnUse" gradientTransform="matrix(1 0 0 -1 -270.96 -122.075)"><stop offset="0" stop-color="#d3ed89"/><stop offset="1" stop-color="#5f821c"/></linearGradient><linearGradient id="ao"><stop offset="0" stop-color="#911935"/><stop offset="1" stop-color="#dd6876"/></linearGradient></defs><g transform="matrix(.13917 0 0 -.13917 1.326 1.26)"><path d="M12-95.03C6.49-95.03 1.97-90.51 1.97-85v71C1.97-8.49 6.49-3.97 12-3.97h72c5.51 0 10.03-4.52 10.03-10.03v-71c0-5.51-4.52-10.03-10.03-10.03z" opacity=".08" fill="url(#ap)"/><path d="M12-94.03c-4.972 0-9.03 4.058-9.03 9.03v71c0 4.972 4.058 9.03 9.03 9.03h72c4.972 0 9.03-4.058 9.03-9.03v-71c0-4.972-4.058-9.03-9.03-9.03z" opacity=".1" fill="url(#aq)"/><path d="M12-93c-4.41 0-8 3.59-8 8v71c0 4.41 3.59 8 8 8h72c4.41 0 8-3.59 8-8v-71c0-4.41-3.59-8-8-8z" opacity=".2" fill="url(#ar)"/><rect width="86" height="85" rx="7" ry="7" x="5" y="-92" opacity=".3" fill="url(#as)"/><rect width="84" height="84" rx="6" ry="6" x="6" y="-91" opacity=".45" fill="url(#at)"/></g><g transform="translate(1.326 1.26) scale(.13917)" fill="#fff"><rect width="84" height="84" rx="6" ry="6" x="6" y="6"/><path d="M12 6c-3.324 0-6 2.676-6 6v72c0 .335.04.65.094.97.048.294.097.596.187.874l.032.094c.1.287.235.547.375.812.145.274.316.536.5.78a6.105 6.105 0 0 0 2.094 1.78c.28.142.575.25.876.346a4.843 4.843 0 0 1-.72-.375c-.006-.003-.022.006-.03 0-.032-.018-.062-.04-.094-.06-.12-.078-.23-.165-.343-.25-.107-.082-.215-.162-.314-.25a5.042 5.042 0 0 1-.5-.532 5.092 5.092 0 0 1-.312-.407c-.025-.037-.04-.085-.063-.124-.064-.103-.13-.204-.186-.312a5.37 5.37 0 0 1-.282-.625c-.007-.023-.023-.042-.03-.064-.033-.092-.037-.187-.063-.28-.032-.108-.072-.204-.095-.314A5.098 5.098 0 0 1 7 85V13c0-2.782 2.218-5 5-5h72c2.782 0 5 2.218 5 5v72c0 .364-.052.72-.125 1.063a4.896 4.896 0 0 1-.156.593c-.01.022-.025.04-.032.063a5.482 5.482 0 0 1-.22.53c-.04.083-.078.17-.124.25-.055.097-.127.188-.188.28-.094.142-.205.277-.312.407a5.05 5.05 0 0 1-.47.5l-.03.032a4.818 4.818 0 0 1-.438.343c-.102.073-.204.153-.312.218-.008.006-.024-.003-.03 0-.234.14-.464.276-.72.376.3-.097.596-.204.875-.344a6.105 6.105 0 0 0 2.093-1.78c.184-.246.355-.508.5-.782a5.69 5.69 0 0 0 .374-.813l.032-.093c.09-.278.138-.58.186-.875.053-.32.094-.635.094-.97V12c0-3.324-2.676-6-6-6z" opacity=".6"/><path d="M12 90c-3.324 0-6-2.676-6-6V12c0-.335.04-.65.094-.97.048-.294.097-.596.187-.874l.032-.094c.1-.287.235-.547.375-.812.145-.274.316-.536.5-.78a6.105 6.105 0 0 1 2.094-1.78c.28-.142.575-.25.876-.346-.256.1-.486.236-.72.375-.006.003-.022-.006-.03 0-.032.018-.062.04-.094.06-.12.078-.23.165-.343.25-.107.082-.215.162-.314.25-.178.163-.347.347-.5.532-.107.13-.218.266-.312.407-.025.037-.04.085-.063.124-.064.103-.13.204-.186.312a5.37 5.37 0 0 0-.282.625c-.007.023-.023.042-.03.064-.033.092-.037.187-.063.28-.032.108-.072.204-.095.313A5.098 5.098 0 0 0 7 11v72c0 2.782 2.218 5 5 5h72c2.782 0 5-2.218 5-5V11c0-.364-.052-.72-.125-1.063a4.896 4.896 0 0 0-.156-.593c-.01-.022-.025-.04-.032-.063a5.482 5.482 0 0 0-.22-.53c-.04-.083-.078-.17-.124-.25-.055-.097-.127-.188-.188-.28a5.092 5.092 0 0 0-.312-.408 5.05 5.05 0 0 0-.47-.5l-.03-.03a4.818 4.818 0 0 0-.438-.345c-.102-.073-.204-.153-.312-.218-.008-.006-.024.003-.03 0a4.843 4.843 0 0 0-.72-.376c.3.097.596.204.875.343a6.105 6.105 0 0 1 2.093 1.782c.184.244.355.506.5.78.14.265.276.525.374.813l.032.093c.09.278.138.58.186.875.053.32.094.635.094.97v72c0 3.324-2.676 6-6 6z" opacity=".2"/></g><rect width="66" height="66" rx="12" ry="12" x="15" y="15" clip-path="url(#au)" opacity=".5" stroke="#fff" stroke-width=".5" stroke-linecap="round" filter="url(#av)" transform="translate(1.326 1.26) scale(.13917)" fill="#e6e6e6"/><path d="M11.515 12.984c-.04-.017-.235-.197-.436-.4-.2-.2-.382-.367-.403-.367-.02 0-.154.067-.297.15a4.8 4.8 0 0 1-2.283.62c-.672.02-1.122-.044-1.73-.242a5.017 5.017 0 0 1-2.934-2.566 4.728 4.728 0 0 1-.498-2.003 4.89 4.89 0 0 1 .497-2.38 5.02 5.02 0 0 1 3.85-2.778c.33-.043.933-.05 1.23-.014 1.273.154 2.453.784 3.243 1.732.787.945 1.185 2.024 1.19 3.227a4.83 4.83 0 0 1-.513 2.24c-.083.17-.15.325-.15.343 0 .018.164.197.366.397.202.2.383.4.4.44.027.06.034.235.034.816 0 .687-.003.743-.043.78-.04.034-.126.038-.75.037-.542 0-.72-.008-.775-.033zm-3.01-2.075c1.206-.23 2.143-1.162 2.4-2.392.052-.246.058-.824.012-1.083a3.41 3.41 0 0 0-.278-.834c-.11-.213-.263-.46-.29-.46-.007 0-.386.372-.84.83l-.83.83-.01.176c-.045.76-1.04.974-1.384.298a.673.673 0 0 1 0-.666.72.72 0 0 1 .696-.404l.125.01.832-.833.83-.833-.067-.055a2.44 2.44 0 0 0-.24-.154c-.7-.4-1.493-.513-2.254-.32a2.897 2.897 0 0 0-1.45.847 2.987 2.987 0 0 0-.797 1.57c-.058.333-.036.92.045 1.23a2.95 2.95 0 0 0 .79 1.4 3.025 3.025 0 0 0 1.775.878c.224.03.686.013.932-.033zM8.113 8.18a.298.298 0 0 0 .02-.475c-.074-.06-.118-.072-.244-.062-.267.022-.345.407-.112.55.09.057.24.05.335-.013zm2.69-2.51l.44-.44-.288-.29-.29-.287-.445.446c-.246.247-.442.45-.436.456.11.08.326.285.425.404.07.085.132.155.14.155.005 0 .21-.2.452-.442z" fill="#129ded"/></svg>