<svg xmlns="http://www.w3.org/2000/svg" xmlns:xlink="http://www.w3.org/1999/xlink" height="16" width="16.013"><title>Gnome Symbolic Icon Theme</title><defs><linearGradient x1="32.251" y1="6.132" x2="32.251" y2="90.239" id="w" xlink:href="#a" gradientUnits="userSpaceOnUse" gradientTransform="matrix(1.0238 0 0 1.0119 -1.143 -98.07)"/><linearGradient x1="45.448" y1="92.54" x2="45.448" y2="7.017" id="a" gradientUnits="userSpaceOnUse" gradientTransform="matrix(1.00587 0 0 .99417 100 0)"><stop offset="0"/><stop offset="1" stop-opacity=".588"/></linearGradient><linearGradient x1="32.251" y1="6.132" x2="32.251" y2="90.239" id="x" xlink:href="#a" gradientUnits="userSpaceOnUse" gradientTransform="translate(0 -97)"/><linearGradient id="b"><stop offset="0" stop-color="#523823"/><stop offset=".118" stop-color="#79563a"/><stop offset=".238" stop-color="#875c38"/><stop offset="1" stop-color="#a66e40"/></linearGradient><linearGradient id="c"><stop offset="0" stop-color="#b30707"/><stop offset="1" stop-color="#e42c0d"/></linearGradient><linearGradient id="d"><stop offset="0" stop-color="#e6e6e6"/><stop offset="1" stop-color="#f5f5f5"/></linearGradient><linearGradient id="e"><stop offset="0" stop-color="#501616"/><stop offset="1" stop-color="#501616" stop-opacity="0"/></linearGradient><linearGradient id="f"><stop offset="0" stop-color="#fff" stop-opacity=".718"/><stop offset="1" stop-color="#fff"/></linearGradient><linearGradient x1="48" y1="88" x2="48" y2="-40" id="D" xlink:href="#g" gradientUnits="userSpaceOnUse" gradientTransform="matrix(1 0 0 -1 0 92)"/><linearGradient id="g"><stop offset="0" stop-color="#fff"/><stop offset="1" stop-color="#fff" stop-opacity="0"/></linearGradient><linearGradient x1="48" y1="82" x2="112.124" y2="82.455" id="E" xlink:href="#g" gradientUnits="userSpaceOnUse" spreadMethod="reflect"/><linearGradient id="h"><stop offset="0" stop-color="#e1e1e1"/><stop offset="1" stop-color="#f0f0f0"/></linearGradient><linearGradient x1="64" y1="88" x2="16" y2="-16" id="y" xlink:href="#i" gradientUnits="userSpaceOnUse"/><linearGradient id="i"><stop offset="0" stop-color="#d6650c"/><stop offset="1" stop-color="#f3aa0c"/></linearGradient><linearGradient x1="32" y1="64" x2="68" y2="24" id="z" xlink:href="#j" gradientUnits="userSpaceOnUse" spreadMethod="reflect"/><linearGradient id="j"><stop offset="0" stop-color="#ffe680"/><stop offset=".5" stop-color="#ffe680" stop-opacity="0"/><stop offset="1" stop-color="#ffe680" stop-opacity="0"/></linearGradient><linearGradient id="k"><stop offset="0" stop-color="#c1c7cc"/><stop offset=".216" stop-color="#eaeced"/><stop offset="1" stop-color="#c6ccd0"/></linearGradient><clipPath id="A"><rect width="84" height="84" rx="6" ry="6" x="6" y="6" fill="#f0f"/></clipPath><linearGradient x1="54.126" y1="239.691" x2="350.864" y2="269.365" id="B" xlink:href="#k" gradientUnits="userSpaceOnUse" gradientTransform="rotate(-45 10.23 104.947) scale(.38127)"/><linearGradient x1="18.875" y1="252.484" x2="334.031" y2="268.415" id="C" xlink:href="#l" gradientUnits="userSpaceOnUse" gradientTransform="rotate(-45 10.23 104.947) scale(.38127)"/><linearGradient id="l"><stop offset="0" stop-color="#7a8288"/><stop offset=".529" stop-color="#9fa3a7"/><stop offset="1" stop-color="#7d858b"/></linearGradient><linearGradient x1="90" y1="88" x2="48" y2="88" id="F" xlink:href="#m" gradientUnits="userSpaceOnUse" spreadMethod="reflect"/><linearGradient id="m"><stop offset="0" stop-opacity=".588"/><stop offset=".118" stop-opacity=".471"/><stop offset=".238" stop-opacity=".392"/><stop offset="1" stop-opacity=".314"/></linearGradient><linearGradient x1="43.477" y1="26" x2="43.477" y2="34.001" id="G" xlink:href="#n" gradientUnits="userSpaceOnUse" gradientTransform="matrix(.72414 0 0 .75 1.655 4.5)"/><linearGradient id="n" gradientUnits="userSpaceOnUse"><stop offset="0"/><stop offset=".2" stop-opacity=".355"/><stop offset=".553" stop-opacity="0"/><stop offset="1" stop-opacity="0"/></linearGradient><linearGradient x1="50.464" y1="16.036" x2="50.464" y2="20.33" id="H" xlink:href="#o" gradientUnits="userSpaceOnUse" gradientTransform="translate(0 -.68)"/><linearGradient id="o"><stop offset="0" stop-color="#fff"/><stop offset=".3" stop-color="#fff" stop-opacity=".498"/><stop offset="1" stop-color="#fff" stop-opacity="0"/></linearGradient><linearGradient x1="48" y1="16" x2="48" y2="11.925" id="I" xlink:href="#n" gradientUnits="userSpaceOnUse" gradientTransform="matrix(1 0 0 1.25 0 -4.598)"/><linearGradient x1="48" y1="16" x2="48" y2="11.925" id="J" xlink:href="#n" gradientUnits="userSpaceOnUse" gradientTransform="matrix(1 0 0 1.25 0 4.402)"/><linearGradient x1="14" y1="8" x2="14" y2="25" id="X" xlink:href="#p" gradientUnits="userSpaceOnUse"/><linearGradient id="p"><stop offset="0" stop-color="#5d5d5d"/><stop offset="1" stop-color="#171717"/></linearGradient><radialGradient cx="22.723" cy="22.181" r="3.742" fx="22.723" fy="22.181" id="L" xlink:href="#q" gradientUnits="userSpaceOnUse" gradientTransform="matrix(.68767 0 0 .67722 7.415 7.544)"/><linearGradient id="q"><stop offset="0" stop-color="#fff"/><stop offset="1" stop-color="#a5a5a5"/></linearGradient><linearGradient x1="27.734" y1="21.092" x2="19.766" y2="21.092" id="U" xlink:href="#q" gradientUnits="userSpaceOnUse"/><linearGradient x1="20" y1="23.371" x2="26.162" y2="23.371" id="V" xlink:href="#r" gradientUnits="userSpaceOnUse"/><linearGradient id="r"><stop offset="0"/><stop offset="1" stop-opacity="0"/></linearGradient><linearGradient x1="19" y1="23.371" x2="28.485" y2="23.371" id="W" xlink:href="#s" gradientUnits="userSpaceOnUse"/><linearGradient id="s"><stop offset="0" stop-color="#6d6d6d"/><stop offset="1" stop-color="#fff"/></linearGradient><radialGradient cx="22.723" cy="22.181" r="3.742" fx="22.723" fy="22.181" id="P" xlink:href="#q" gradientUnits="userSpaceOnUse" gradientTransform="matrix(.68767 0 0 .67722 7.415 7.544)"/><radialGradient cx="22.723" cy="22.181" r="3.742" fx="22.723" fy="22.181" id="T" xlink:href="#q" gradientUnits="userSpaceOnUse" gradientTransform="matrix(.68767 0 0 .67722 7.415 7.544)"/><linearGradient xlink:href="#a" id="t" gradientUnits="userSpaceOnUse" gradientTransform="matrix(1.0238 0 0 1.0119 -1.143 -98.07)" x1="32.251" y1="6.132" x2="32.251" y2="90.239"/><linearGradient xlink:href="#a" id="u" gradientUnits="userSpaceOnUse" gradientTransform="matrix(1.0238 0 0 1.0119 -1.143 -98.07)" x1="32.251" y1="6.132" x2="32.251" y2="90.239"/><linearGradient xlink:href="#a" id="v" gradientUnits="userSpaceOnUse" gradientTransform="matrix(1.0238 0 0 1.0119 -1.143 -98.07)" x1="32.251" y1="6.132" x2="32.251" y2="90.239"/><linearGradient xlink:href="#p" id="K" gradientUnits="userSpaceOnUse" x1="14" y1="8" x2="14" y2="25"/><linearGradient xlink:href="#q" id="M" gradientUnits="userSpaceOnUse" x1="27.734" y1="21.092" x2="19.766" y2="21.092"/><linearGradient xlink:href="#r" id="N" gradientUnits="userSpaceOnUse" x1="20" y1="23.371" x2="26.162" y2="23.371"/><linearGradient xlink:href="#s" id="O" gradientUnits="userSpaceOnUse" x1="19" y1="23.371" x2="28.485" y2="23.371"/><linearGradient xlink:href="#q" id="Q" gradientUnits="userSpaceOnUse" x1="27.734" y1="21.092" x2="19.766" y2="21.092"/><linearGradient xlink:href="#r" id="R" gradientUnits="userSpaceOnUse" x1="20" y1="23.371" x2="26.162" y2="23.371"/><linearGradient xlink:href="#s" id="S" gradientUnits="userSpaceOnUse" x1="19" y1="23.371" x2="28.485" y2="23.371"/></defs><g transform="matrix(.1406 0 0 -.1406 1.258 1.236)"><path d="M12-95.03C6.49-95.03 1.97-90.51 1.97-85v71C1.97-8.49 6.49-3.97 12-3.97h72c5.51 0 10.03-4.52 10.03-10.03v-71c0-5.51-4.52-10.03-10.03-10.03z" opacity=".08" fill="url(#t)"/><path d="M12-94.03c-4.972 0-9.03 4.058-9.03 9.03v71c0 4.972 4.058 9.03 9.03 9.03h72c4.972 0 9.03-4.058 9.03-9.03v-71c0-4.972-4.058-9.03-9.03-9.03z" opacity=".1" fill="url(#u)"/><path d="M12-93c-4.41 0-8 3.59-8 8v71c0 4.41 3.59 8 8 8h72c4.41 0 8-3.59 8-8v-71c0-4.41-3.59-8-8-8z" opacity=".2" fill="url(#v)"/><rect width="86" height="85" rx="7" ry="7" x="5" y="-92" opacity=".3" fill="url(#w)"/><rect width="84" height="84" rx="6" ry="6" x="6" y="-91" opacity=".45" fill="url(#x)"/></g><g transform="matrix(.1406 0 0 .1406 1.258 1.236)"><rect width="84" height="84" rx="6" ry="6" x="6" y="6" fill="url(#y)"/><rect width="84" height="84" rx="6" ry="6" x="6" y="6" opacity=".15" fill="url(#z)"/><g clip-path="url(#A)"><path d="M55.094 1c-1.606 14.28-9.838 30.65-23.657 44.47C17.573 59.332 1.125 67.59-13.187 69.155L6.53 106c.29-.025.587-.065.876-.094l-18.593-34.75c14.312-1.567 30.76-9.823 44.624-23.687C47.258 33.65 55.487 17.28 57.094 3L91.75 21.344c.027-.29.07-.585.094-.875z" opacity=".05" fill="#a40" fill-rule="evenodd"/><path d="M56.094 2c-1.606 14.28-9.838 30.65-23.657 44.47C18.573 60.332 2.125 68.59-12.187 70.155L7.53 107c.146-.012.294-.05.44-.063l-19.157-35.78c14.312-1.568 30.76-9.824 44.624-23.688C47.258 33.65 55.487 17.28 57.094 3L92.78 21.906c.014-.145.052-.292.064-.437z" opacity=".2" fill="#a40" fill-rule="evenodd"/><path d="M93.75 23.344c-1.786 18.98-11.465 39.496-28.28 56.312-16.742 16.74-37.156 26.4-56.064 28.25L10.53 110c19.15-1.634 39.942-11.347 56.94-28.344C84.542 64.582 94.275 43.69 95.843 24.47z" opacity=".06" fill="#a40" fill-rule="evenodd"/><path d="M-11.176 71.15L8.538 108c19.15-1.634 39.93-11.353 56.927-28.35 17.074-17.074 26.8-37.96 28.367-57.18L57.108 3c-1.606 14.28-9.847 30.656-23.666 44.475C19.578 61.34 3.136 69.582-11.176 71.15z" fill="url(#B)" fill-rule="evenodd"/><path d="M-10.68 71.36l1.163 2.174c.36.37.716.744 1.08 1.112-.1.12-.195.234-.288.354l1.037 1.93.134-.187c.36-.007.72-.02 1.08-.033.47.477.94.957 1.406 1.44-.288.356-.558.718-.834 1.037.013.014.03.028.042.042l-.59.016.143.278.708-.017c.25.252.502.497.734.75l-.598.817.21.396.902-1.222c.42-.016.836-.036 1.255-.06.467.487.945.96 1.407 1.442-.253.33-.49.647-.74.96l-2.183.076.168.32 2.15-.075c.272.282.54.574.807.843l-.952 1.272-.008-.008c-.286.017-.583.036-.876.05l1.668 3.118.54.556c-.05.058-.102.112-.153.17l1.046 1.937c.356-.008.71-.02 1.08-.034.462.497.93.98 1.397 1.466-.29.333-.613.68-.9 1.035l.192.21h-.337l.16.296.464-.008c.17.183.342.375.514.548l-.405.522.212.396.666-.867c.462-.018.914-.04 1.373-.058.473.49.953.966 1.425 1.457-.298.348-.59.715-.877 1.044.02.02.04.038.06.06l-1.753.033.17.32 1.886-.034c.17.182.332.377.506.556L4.36 99.406l1.02 1.895c.142-.168.284-.34.428-.514l2.587-.06c.25.263.503.533.74.793L8 103.013c-.437.013-.86.017-1.273.026-.322-.335-.64-.673-.96-1.01L7.5 105.26c.26-.01.515-.015.783-.025.467.496.928.99 1.39 1.49-.29.352-.55.692-.834 1.037l.11.194a71.918 71.918 0 0 0 3.666-.43c-.3-.326-.6-.647-.876-.977-.14.003-.275.004-.413.01l1.162-1.534.025.025c.59-.008 1.19-.018 1.794-.04.454.49.918.956 1.38 1.43l-.547.683c.96-.17 1.926-.354 2.89-.564-.062-.07-.123-.135-.185-.203l.985-1.475c.514-.03 1.037-.07 1.55-.1.314.327.626.655.936.985.14-.037.286-.07.428-.11-.346-.365-.69-.735-1.036-1.103.24-.314.458-.622.674-.944l2.216-.16c.283.302.566.6.85.885l-.43.665c.2-.06.4-.115.6-.177l.31-.48c.416-.04.83-.092 1.248-.135.03.032.063.06.093.093.138-.044.274-.096.412-.142-.065-.07-.137-.133-.202-.202.19-.267.38-.53.565-.8l2.367-.245c.068.07.136.135.202.203.99-.37 1.986-.76 2.974-1.17-.162-.17-.328-.334-.487-.506l.977-1.736c.416-.056.832-.125 1.255-.193.38.395.766.785 1.154 1.17.126-.056.252-.117.38-.175-.412-.426-.833-.85-1.24-1.273.158-.248.324-.496.472-.742l2.4-.345c.22.232.434.462.65.682l-.438.792c.196-.096.393-.19.59-.287l.126-.227.017.017c.14-.02.28-.045.42-.068.57-.288 1.143-.582 1.71-.884.102-.186.204-.37.304-.556l1.07-.177c.292-.16.58-.333.87-.497l-2.04.354c-.278-.297-.557-.582-.834-.885-.046.008-.088.01-.135.017l.878-1.77c.452-.078.928-.155 1.398-.235.457.473.923.95 1.39 1.423-.178.35-.37.7-.556 1.044 1.01-.57 2.016-1.172 3.016-1.786l.64-1.38c.334-.07.677-.135 1.003-.21.113.115.223.236.336.353l.33-.21c-.126-.128-.247-.26-.372-.388.17-.336.34-.687.514-1.054l2.03-.445c.08.086.157.17.236.253.814-.563 1.63-1.136 2.435-1.727-.093-.103-.177-.216-.27-.32l.75-1.895c.372-.1.76-.2 1.145-.303.243.245.496.482.742.724l.328-.26a179.5 179.5 0 0 0-.758-.776c.144-.324.27-.636.396-.952l2.098-.58c.163.177.332.342.498.512.757-.628 1.503-1.274 2.25-1.93a34.736 34.736 0 0 1-.64-.656l.664-1.93c.382-.11.77-.22 1.155-.345.328.33.65.662.977.993l.278-.26c-.332-.336-.662-.673-.994-1.012.154-.46.32-.917.455-1.364-.055-.054-.107-.105-.16-.16l1.862-.615c-.015.044-.037.094-.05.136.287.344.58.647.884.952l-.07.22c.28-.273.56-.543.835-.818.478-.478.95-.965 1.416-1.45l-.058-.058.177-.06c.176-.184.345-.37.52-.555l-.968.345c-.203-.205-.39-.41-.59-.623l.514-1.83c.433-.14.85-.295 1.273-.463l1.12 1.12c.09-.1.178-.203.27-.302l-1.122-1.12c.137-.466.25-.928.362-1.39l-.084-.085 1.677-.65c.316.38.692.71 1.028 1.046l.127-.042c.597-.696 1.178-1.4 1.752-2.107.004-.017.012-.033.016-.05l.05-.017c.164-.2.328-.405.49-.607l-.784.33c-.15-.145-.305-.296-.447-.448l.523-2.325c.296-.125.59-.247.876-.37.38.384.76.766 1.146 1.145.08-.105.155-.214.236-.32-.382-.388-.756-.78-1.138-1.17.124-.487.248-.964.363-1.442-.027-.025-.056-.058-.084-.084l1.584-.692c.194.21.392.406.59.607l-.295 1.44c.16-.216.314-.44.472-.657l.1-.505.144.143.026-.008c.68-.946 1.34-1.9 1.98-2.857l-.446.212-.81-.81c-.093.048-.182.097-.277.145l.413-2.233.236.236c.41-.18.833-.387 1.23-.59.33.325.664.65.994.977l.21-.328c-.332-.324-.662-.648-.994-.978.098-.512.22-1.017.33-1.542l1.482-.775c.244.262.493.505.74.74a98.62 98.62 0 0 0 1.518-2.66l-.506-.507.27-2.19c.368-.2.718-.415 1.078-.624l.59.59c.058-.115.12-.23.177-.345l-.614-.616c.064-.507.134-1.02.21-1.56-.14-.13-.274-.26-.412-.395l1.87-1.096c-.028.2-.064.398-.093.598.117.126.24.235.355.354.447-.964.88-1.94 1.29-2.907l-.11-.11c-.047.028-.08.064-.127.092l.177-2.232.135.135c.346-.213.698-.427 1.036-.65.115-.297.226-.594.337-.892.042-.398.078-.795.118-1.197-.122-.112-.247-.235-.37-.353l1.045-.69c.07-.207.142-.41.21-.616l-1.533 1.028c-.142-.14-.295-.263-.438-.405-.082.05-.153.1-.236.152l.135-2.46c.353-.23.728-.495 1.087-.75.455.438.906.885 1.356 1.323.047-.146.09-.293.135-.438-.43-.422-.862-.842-1.296-1.264.035-.548.075-1.11.11-1.677-.066-.066-.136-.137-.203-.202l1.78-1.255c-.015.228-.033.46-.052.69l.58.58c.345-1.27.652-2.54.928-3.807l.042-2.317c.158-.12.32-.24.48-.362a74.9 74.9 0 0 0 .354-2.09c0-.048.007-.094.008-.143-.048-.043-.094-.098-.143-.142l.21-.16c.028-.188.05-.377.077-.565l-.573.455c-.127-.12-.25-.24-.378-.362l-.017-2.696c.23-.19.46-.377.69-.573.2.19.392.383.59.573.02-.18.034-.36.05-.54l-.437-.42c.004-.164.013-.326.017-.49l-2.47-1.305c.07.066.143.128.212.194 0 .22.003.436 0 .656l-1.854 1.483c-.24-.23-.474-.46-.724-.692-.043.032-.078.07-.12.1l-.025-2.45.17.168.504-.438-1.618-.876c0 .067.003.134 0 .202.21.228.417.456.632.665l.008 2.973c-.204.16-.407.32-.607.472-.505-.485-.995-.98-1.5-1.466.014-.55.012-1.11.017-1.686l1.433-1.162-.405-.22-1.28 1.045c-.233-.22-.47-.433-.708-.657l-.025-1.457-.304-.17.026 1.576c-.29.233-.58.465-.878.707-.503-.49-1.024-.98-1.533-1.466.005-.533.02-1.08.04-1.642l.304-.252-.38-.21-.133.117c-.14-.135-.285-.276-.43-.413l-.622-.337c-.045.038-.088.08-.135.118v-.184l-.312-.16.01.58c-.143.117-.293.224-.44.338-.51-.485-1.02-.962-1.532-1.45l.008-.513-2.553-1.355c.106.1.215.2.32.303-.015.506-.015 1.01-.016 1.5l-1.34 1.103c-.312-.293-.63-.595-.944-.91-.018.017-.032.036-.05.052l-.024-2.587c.13-.106.274-.228.41-.345l-1.97-1.045-1.306 1.104-.606-.608-.034-1.533-.295-.16.033 1.852c-.258.224-.5.447-.76.658-.5-.493-.998-.99-1.498-1.483.01-.596.016-1.206.017-1.786l-.008-.008.303-.253-.42-.22-.203.17c-.22-.207-.45-.41-.674-.64l-.337-.187.008.228c-.253.237-.51.47-.774.692-.5-.48-1.01-.963-1.517-1.45 0-.23.004-.455.007-.682l-2.772-1.474c.2.193.4.386.598.58-.003.38-.022.752-.033 1.13l-1.567 1.247c-.316-.31-.64-.622-.96-.944-.01.005-.01.01-.018.016l-.016-2.274c.03.028.06.064.09.092.21-.167.425-.342.642-.522l-1.72-.91c0 .017.002.034 0 .05L57.26 5.14v-.034c-.125-.114-.253-.24-.38-.362a53.443 53.443 0 0 1-.556 3.117c.242-.186.477-.375.717-.58.507.504 1.027 1 1.534 1.5-.018.47-.03.945-.042 1.406L57.1 11.282c-.28-.273-.566-.542-.843-.843-.01.007-.014.016-.025.024l.025-2.3c-.103.48-.212.96-.328 1.44l-.027 1.105c-.107.08-.212.156-.32.235a61.886 61.886 0 0 1-.7 2.418l.12-.085c.263.285.534.548.8.8l-.102 2.46c-.282.208-.56.415-.84.607-.315-.308-.632-.616-.945-.926-.046.127-.088.258-.135.386.304.31.604.625.91.927-.032.46-.064.908-.1 1.348l-1.56.987c-.128-.126-.26-.245-.387-.37-.395.94-.804 1.887-1.247 2.83.085.082.177.162.26.244l-.218 2.326c-.32.183-.632.367-.944.54-.143-.144-.293-.28-.438-.422-.057.11-.12.22-.177.33l.437.437c-.054.396-.118.783-.176 1.172l-1.634.91a84.77 84.77 0 0 1-1.617 2.73l-.338 2.173c-.316.167-.63.318-.936.464l-.252-.254c-.072.108-.147.212-.22.32l.262.26c-.088.51-.18 1.012-.278 1.543l.033.033-1.48.707-.178-.177c-.57.79-1.15 1.577-1.753 2.36l.176.176c.42-.147.833-.32 1.24-.515l1.44 1.44c-.09.406-.183.808-.287 1.214l-1.796.783c.005-.024.003-.035.008-.06-.335-.334-.687-.656-1.02-1.02-.07.036-.132.052-.2.086l.42-2.09-.455.59-.337 1.667c-.216.1-.43.196-.65.278l-.32-.32c-.077.096-.156.19-.235.286l.33.33c-.113.49-.242.955-.38 1.424l.016.017-1.608.616c-.068-.068-.133-.136-.202-.202a97.41 97.41 0 0 1-1.954 2.156l.134.135-.53 1.997c-.36.134-.73.272-1.087.38l-.464-.464-.287.286c.156.158.316.313.472.472-.143.452-.28.92-.422 1.348l-1.684.556c-.133-.13-.265-.264-.397-.396a97.707 97.707 0 0 1-2.15 1.98l.254.252-.7 2.048c-.314.1-.637.197-.943.27-.242-.243-.485-.484-.724-.725-.098.08-.197.16-.295.243.24.243.478.49.716.733-.152.4-.31.807-.454 1.196l-1.913.514c-.2-.196-.404-.4-.598-.615a93.46 93.46 0 0 1-2.317 1.78c.21.223.406.45.615.665l-.724 1.803c-.39.09-.77.18-1.146.27-.355-.358-.712-.724-1.07-1.088-.103.07-.21.14-.312.21.36.366.714.73 1.07 1.088-.18.393-.354.78-.54 1.146l-2.02.387c-.283-.275-.557-.56-.81-.858l.143-.33c-.19.124-.38.25-.573.372-.007.004-.018.004-.025.008-.564.356-1.128.715-1.693 1.053-.06.11-.12.22-.177.33l-.556.1c-.26.152-.522.298-.783.447l1.297-.22c.258.274.504.528.75.784l-.8 1.694c-.404.067-.82.14-1.23.202a360.77 360.77 0 0 0-1.466-1.483l.135-.237c-.384.21-.77.413-1.155.615.243-.038.485-.078.733-.11.455.47.914.93 1.375 1.39-.18.336-.354.65-.54.978l-2.25.345c-.204-.21-.413-.424-.614-.647l.92-1.76c-.2.103-.4.21-.6.31l-.68 1.323c-.423.068-.855.12-1.282.17-.117-.12-.236-.237-.354-.355-.127.06-.25.12-.38.178.13.13.252.266.38.396-.155.277-.313.527-.463.783l-2.518.312c-.082-.084-.164-.174-.244-.262a69.85 69.85 0 0 1-2.94 1.137c.22.23.44.458.665.683.06-.008.125-.01.185-.017l-.986 1.627c-.462.054-.94.076-1.415.1-.463-.468-.925-.94-1.382-1.415-.2.062-.398.118-.598.177.076-.006.15-.004.228-.01.465.472.927.935 1.398 1.4-.192.268-.38.524-.564.783l-2.596.185c-.155-.165-.314-.34-.472-.505l1.036-1.576c-.188.053-.376.11-.564.16l-.742 1.13c-.05-.056-.11-.105-.16-.16-.527.03-1.04.052-1.558.092-.126-.127-.254-.252-.38-.38-.147.032-.3.062-.446.093.14.146.28.294.42.438-.22.296-.435.584-.647.885l-2.426.118a27.236 27.236 0 0 1-.75-.783c-.315.113-.63.21-.943.32zM57.235 5.688L58.8 4.424c.194.205.386.406.583.598v2.78c-.226.183-.46.368-.674.54-.506-.497-1.002-.987-1.51-1.492.01-.377.02-.77.034-1.162zM-8.784 72.11l2.182-.11c.316.316.644.65.944.978.11-.01.22-.034.33-.043l-1.08 1.55c-.54 0-1.096.02-1.634.034-.495-.5-.98-1.026-1.475-1.526.254-.292.494-.573.733-.884zm3.977.792c.287-.02.565-.04.86-.068.47.49.928.977 1.39 1.458-.19.254-.374.497-.548.75l-2.603.143c-.137-.138-.27-.283-.405-.42l1.306-1.863zm1.752-1.08l2.385-.16c.328.36.69.696 1.02 1.054l-.886 1.34-.033-.034c-.513.04-1.046.077-1.558.11-.5-.51-1.006-1.02-1.5-1.534.193-.255.387-.514.573-.775zm60.39-60.27l1.323-.986c.236.247.466.472.708.707l-.084 2.95c-.186.137-.37.288-.557.42-.492-.487-.996-.97-1.5-1.466.03-.535.068-1.08.11-1.626zm3.43-2.62l1.465-1.147c.35.38.703.733 1.07 1.07l-.008 2.2-.042-.043c-.33.267-.67.533-.994.792-.507-.49-1.01-.98-1.517-1.483.014-.46.016-.922.025-1.39zM-5.43 75.46l2.114-.092c-.005.008-.01.01-.017.017.332.362.688.708 1.02 1.07l.126-.008-1.053 1.507c-.476.016-.954.036-1.424.06-.488-.504-.98-1.02-1.474-1.526.262-.322.504-.624.758-.977l-.05-.05zm61.535-61.215c.323-.212.63-.436.944-.674l1.515 1.5a86.47 86.47 0 0 1-.075 1.07l-1.626 1.154c-.285-.265-.56-.527-.843-.81l.085-2.24zm3.54-2.763c.306-.23.614-.49.925-.74.52.498 1.042.992 1.55 1.48-.016.43-.042.87-.067 1.316l-1.5 1.112c-.257-.26-.518-.513-.774-.792-.063.047-.117.097-.178.143l.042-2.52zM3.364 68.622c.34-.038.68-.086 1.02-.127.456.472.913.953 1.373 1.424-.22.33-.424.646-.632.968l-2.3.228c-.195-.202-.38-.412-.573-.624zM63.57 8.652c.24-.193.475-.38.707-.572.52.5 1.038.992 1.55 1.5 0 .34-.005.693-.016 1.045l-1.634 1.263a39.255 39.255 0 0 1-.606-.573V8.653zM5.202 67.426l2.317-.26c-.007.008.004.024 0 .033.308.338.622.653.934.986L7.628 69.6c-.498.06-1.006.13-1.508.176-.484-.504-.967-1.03-1.457-1.542.18-.275.364-.54.54-.81zm48.056-47.23l1.44-.935c.27.287.545.564.818.817l-.186 2.612c-.254.164-.503.317-.75.48l-1.474-1.475c.054-.492.1-.982.152-1.5zM.82 72.7a30.99 30.99 0 0 0 1.256-.093c.464.476.935.954 1.4 1.432l-.448.614-2.814.202c-.157-.166-.32-.33-.48-.497zm2.233-1.323l2.048-.194.936.935c.047-.003.104-.013.152-.017l-.978 1.636c-.454.06-.906.098-1.365.135-.48-.5-.973-.986-1.457-1.49a16.2 16.2 0 0 0 .665-1.003zM51.927 22.74c.33-.198.658-.42.994-.658.504.498 1.01 1 1.5 1.5-.028.292-.06.577-.092.868l-1.896 1.154c-.237-.23-.472-.46-.7-.7l.194-2.164zm5.03-5.013l1.5-1.08c-.002.008 0 .012 0 .018.237.26.474.5.715.733l-.11 2.654c-.24.177-.49.348-.724.522-.488-.478-.978-.946-1.474-1.423.034-.456.055-.94.092-1.423zM-1.64 76.407A69.38 69.38 0 0 1-.55 76.33c.46.48.905.954 1.364 1.433-.275.365-.528.725-.8 1.104l.093.092-2.14.117c.014-.02.02-.047.033-.067a28.12 28.12 0 0 1-.842-.876l1.205-1.728zM.4 75.142l2.375-.17c-.03.042-.056.096-.084.136.317.344.66.682.978 1.027l-.9 1.356c-.533.03-1.045.063-1.55.1C.73 77.09.24 76.588-.26 76.087c.224-.31.435-.627.658-.943zm60.432-60.196l1.272-.952c.336.332.684.65 1.02.985.037-.026.07-.065.11-.092l-.06 2.502c-.32.23-.63.458-.944.657-.495-.49-1-.967-1.5-1.45.05-.552.088-1.1.118-1.634l-.016-.017zM55.82 20.06c.3-.173.602-.356.892-.556.492.488.976.962 1.466 1.433-.03.386-.057.77-.1 1.145l-1.703 1.08a17.33 17.33 0 0 1-.69-.71c-.014.01-.03.018-.043.026l.177-2.417zm8.516-7.742l1.45-1.13c0 .024-.007.054-.008.077.306.306.64.596.952.9l-.017 2.394c-.298.24-.597.464-.893.69-.512-.493-1.025-.995-1.534-1.5l.05-1.432zM48.733 28.224l1.416-.825c.294.337.617.636.926.942l-.278 2.368c-.286.178-.568.355-.85.513-.48-.472-.965-.958-1.442-1.44.078-.5.15-1.01.227-1.56zM8.867 68.21c.417-.054.838-.13 1.263-.186.465.47.923.955 1.382 1.432a24.4 24.4 0 0 1-.42.74l-2.57.313c-.204-.205-.404-.41-.607-.624zM-2.28 79.37l2.67-.126c.23.222.462.44.675.674.036-.003.082-.014.118-.017l-1.06 1.533c-.478.02-.964.038-1.434.05-.487-.5-.98-.998-1.467-1.5.166-.2.337-.41.497-.614zm61.738-61.704l.076.076c.34-.238.678-.463 1.01-.708l1.526 1.457c-.018.3-.04.598-.06.885l-1.768 1.247c-.282-.274-.57-.536-.85-.817l.066-2.14zM11.032 66.7l1.988-.286c.29.313.582.616.885.92l-.902 1.726c-.376.068-.748.134-1.13.185-.48-.495-.958-.98-1.44-1.474.203-.356.403-.7.6-1.07zm36.168-36c.37-.17.736-.363 1.104-.58l1.457 1.457c-.066.476-.148.95-.235 1.4l-1.727.884c.013-.068.038-.132.05-.202-.316-.317-.628-.61-.943-.943L47.2 30.7zm16.344-16.04c.2-.15.4-.3.6-.463.515.496 1.026.985 1.532 1.483-.012.343-.028.696-.042 1.036l-1.677 1.238c-.155-.15-.314-.31-.47-.472l.058-2.822zm-10.9 11.273l1.633-.978c-.005.054-.013.115-.017.17.262.284.52.55.784.816l-.228 2.37c-.3.17-.586.357-.893.52-.487-.478-.974-.96-1.457-1.44.072-.485.108-.965.177-1.457zM6.633 72.06c.35-.035.695-.074 1.053-.11.47.475.94.955 1.4 1.432-.165.26-.34.508-.507.758l-2.527.27a14.66 14.66 0 0 1-.497-.53zM67.066 12.2c.277-.21.544-.418.81-.64.513.494 1.035.988 1.55 1.483-.006.27-.016.532-.026.8l-1.76 1.373c-.196-.192-.4-.37-.6-.564l.026-2.452zM8.563 70.82l2.317-.277-.034.05c.29.29.556.58.826.86l-.9 1.61c-.43.05-.854.082-1.282.134-.492-.5-.982-.996-1.483-1.5.19-.293.373-.578.556-.876zm7.777-7.64a38.2 38.2 0 0 0 1.364-.237c.465.483.924.952 1.39 1.424-.133.266-.262.527-.395.784l-2.453.43c-.236-.237-.482-.482-.708-.74zm35.056-34.94c.295-.165.596-.325.884-.496.48.464.958.935 1.44 1.407-.065.523-.14 1.038-.226 1.56.016.018.034.033.05.05l-1.432.81c-.328-.327-.662-.642-.994-1.03l.278-2.3zm-7.776 8.064l1.828-.868c.198.2.402.39.598.58l-.413 2.386c-.274.13-.55.258-.81.387l-1.448-1.45c.077-.345.166-.685.244-1.036zm13.058-12.857l1.373-.884c.27.288.552.557.827.825l-.21 2.772c-.21.136-.425.27-.632.396-.486-.47-.972-.95-1.466-1.432.056-.544.115-1.094.167-1.618-.02-.02-.038-.04-.06-.06zM18.505 61.654l2.064-.38c.237.263.49.51.732.768l-.85 1.896c-.344.07-.69.136-1.03.202-.478-.494-.947-.985-1.43-1.483.174-.332.35-.657.513-1.003zm-14.382 14.5c.438-.032.88-.058 1.315-.085.457.476.92.934 1.373 1.406-.255.376-.512.746-.766 1.104l-2.367.177c.045-.062.082-.13.126-.194-.248-.248-.495-.5-.74-.758l1.06-1.65zm2.208-1.466l2.03-.194c.332.36.658.697.978 1.045l-1.01 1.667c-.38.05-.762.104-1.146.118-.48-.495-.972-.992-1.458-1.49.24-.34.488-.69.708-1.046l-.1-.102zM23.5 57.703c.433-.1.887-.226 1.332-.337.466.48.93.966 1.39 1.44-.143.312-.27.633-.404.944l-2.19.506c-.28-.277-.557-.54-.818-.834l.69-1.72zM38.06 43.33l1.903-.74c.133.138.27.267.404.403l-.64 2.63c-.176.07-.353.135-.53.21L37.763 44.4c.102-.36.205-.712.295-1.07zm22.41-22.393l1.516-1.062c-.005.073-.01.146-.017.22.35.382.707.703 1.077 1.044l-.1 2.122c-.015-.013-.02-.02-.034-.034-.35.244-.704.5-1.054.75-.507-.487-1.016-.968-1.517-1.45.04-.516.09-1.043.126-1.59zm-5.115 5.215c.348-.212.68-.442 1.028-.674.495.487.988.973 1.483 1.45-.05.485-.082.947-.135 1.397l-1.6.944c.003-.014-.01-.03-.007-.043-.315-.314-.65-.638-.97-.952l.203-2.123zM36.4 45.142c.374-.122.76-.29 1.145-.44.477.485.937.98 1.407 1.46-.108.376-.205.755-.312 1.12l-1.904.69c-.293-.293-.56-.592-.842-.893zM1.69 79.87c.368-.03.737-.055 1.102-.077.464.483.925.974 1.39 1.458-.263.37-.503.72-.758 1.08l-2.098.11c-.276-.275-.558-.548-.825-.844l1.19-1.727zM25.606 56l1.87-.487c.21.232.43.435.65.648l-.81 2.192-.766.194c-.47-.478-.947-.958-1.423-1.44.156-.363.314-.736.48-1.105zM14.317 67.31c.407-.06.826-.132 1.24-.194.458.474.907.947 1.364 1.415-.17.308-.352.62-.53.934l-2.266.33c-.23-.244-.47-.485-.708-.742l.902-1.744zm15.72-15.62l.044.042c.468-.105.937-.263 1.39-.413.466.477.928.96 1.4 1.432-.116.332-.235.65-.363.985l-2.064.615c-.326-.326-.64-.645-.952-.986l-.016-.017.564-1.66zm2.015-1.71l1.963-.666c.238.25.477.494.716.733l-.597 2.064c-.338.12-.67.25-1.003.378-.474-.49-.94-.973-1.415-1.45.11-.347.225-.7.337-1.06zm15.68-15.68l1.987-1.01c.215.228.43.465.648.682l-.346 2.148c-.332.17-.677.323-1.002.497-.482-.48-.96-.96-1.45-1.432.05-.293.106-.592.16-.884zM16.355 65.893l2.166-.38c-.01.018-.025.035-.034.052.267.292.553.568.826.842l-.85 1.744c-.4.062-.797.122-1.19.177-.48-.49-.956-.988-1.448-1.483.18-.317.356-.626.53-.952zM46.374 36.01c.336-.16.665-.327.995-.49.48.478.955.947 1.43 1.416-.086.45-.16.91-.252 1.398l-1.61.767c-.3-.3-.59-.596-.875-.91-.024.013-.052.014-.076.026l.387-2.207zM3.45 79.05l2.864-.185.615.615-.962 1.482c-.462.047-.926.096-1.373.127-.497-.517-.994-1.024-1.49-1.54.117-.164.225-.336.344-.498zm60.81-60.794l1.357-.986c0 .023-.015.044-.017.067.338.366.717.717 1.07 1.07l-.067 2.51c-.284.206-.57.397-.843.59-.5-.486-.996-.976-1.5-1.466.053-.555.104-1.103.135-1.652-.043-.043-.09-.092-.134-.134zm-5.097 5.282c.343-.203.69-.407 1.037-.632.5.48 1 .958 1.49 1.44-.04.53-.1 1.05-.176 1.593l-1.373.87c-.322-.32-.65-.62-.993-.962-.053.034-.116.067-.17.102l.186-2.41zM-1.04 83.76c.437-.015.88-.033 1.322-.058.462.475.933.953 1.398 1.433-.253.31-.49.617-.724.91l-2.427.1c.005-.007.02-.017.025-.025-.227-.248-.476-.503-.717-.766l1.12-1.593zm68.957-68.266l1.466-1.13-.008.33c.296.322.607.613.91.91l-.025 2.4c-.303.244-.608.466-.902.7-.5-.487-1-.966-1.508-1.458.03-.567.05-1.142.076-1.743l-.008-.01zM12.01 71.638c.483-.054.972-.14 1.448-.202.47.477.923.97 1.39 1.44-.108.198-.212.385-.32.573l-2.797.353c-.192-.194-.385-.39-.58-.598l.86-1.567zm9.663-9.562a14.47 14.47 0 0 0 1.246-.287c.463.466.92.947 1.38 1.415-.14.323-.29.628-.445.935l-2.258.455a9.548 9.548 0 0 1-.69-.742c-.008.002-.02-.01-.026-.008l.793-1.77zM40.63 43.288l.066.067c.436-.136.875-.322 1.29-.514.484.47.966.936 1.44 1.408-.11.47-.237.93-.37 1.382l-1.67.64a15.278 15.278 0 0 1-.9-.968l-.37.15.513-2.164zM1.207 82.742l2.444-.118c.237.25.482.496.716.75l-1.104 1.558c-.396.025-.788.053-1.18.068-.508-.502-1-1.01-1.482-1.517.206-.24.415-.486.606-.74zm41.224-41.206l1.97-.86c.22.244.448.452.675.674l-.43 2.165c-.334.16-.663.29-.994.422l-1.44-1.44c.08-.31.15-.632.22-.96zm9.663-9.53l1.71-.968c.212.214.443.43.657.64l-.295 2.452c-.272.16-.54.317-.808.455-.48-.464-.956-.934-1.434-1.4.062-.38.11-.778.17-1.178zm-28.51 28.578l2.13-.48c.234.233.46.466.684.7l-.8 1.962c-.32.074-.646.142-.962.22-.49-.492-.982-.982-1.466-1.483.143-.308.275-.606.413-.92zm47.896-47.88l1.323-1.102c0 .04-.008.087-.008.126.317.317.642.627.96.927l.026 2.89c-.222.186-.443.384-.664.564-.496-.477-.985-.97-1.483-1.45.003-.602.008-1.19.008-1.794l-.16-.16zm-8.12 8.224c.234-.164.468-.328.698-.497.52.5 1.044.998 1.56 1.492-.032.447-.072.902-.102 1.348l-1.542 1.037c0-.01.008-.015.008-.026-.246-.224-.49-.473-.733-.715l.11-2.637zm-48.984 49.15l1.92-.285c.308.306.6.61.886.918l-.935 1.796c-.35.055-.696.11-1.045.15-.475-.49-.963-.982-1.45-1.482.213-.364.424-.718.624-1.095zm36.287-36.015c.35-.174.706-.366 1.044-.556.49.482.977.948 1.466 1.432-.06.406-.122.807-.193 1.204l-1.76.884c-.282-.28-.582-.57-.877-.86l.32-2.105zm-52.37 52.403l2.696-.118c.244.26.496.513.75.766l-1.037 1.44c-.472.025-.95.037-1.416.052-.49-.518-.974-1.035-1.466-1.55.165-.193.322-.387.473-.59zM28.455 56.32c.43-.11.872-.23 1.305-.36l1.39 1.39c-.14.375-.28.768-.43 1.153l-1.996.514c-.262-.265-.526-.53-.767-.817-.07.02-.14.024-.21.042l.708-1.92zm8.163-7.91l2.08-.75.43.43-.648 2.418c-.23.085-.465.16-.69.236-.49-.477-.97-.954-1.458-1.44.098-.297.194-.594.286-.894zm-1.525 1.542c.34-.106.68-.216 1.01-.337l1.425 1.424c-.12.393-.254.78-.387 1.16l-1.86.633c-.26-.26-.52-.532-.776-.808zm-4.718 4.77l2.048-.616c.268.29.552.57.834.834l-.607 1.82c-.395.13-.79.25-1.18.353l-1.465-1.466c.12-.305.25-.61.37-.926zm36.59-36.507c.245-.184.478-.376.724-.573.512.493 1.018.97 1.524 1.458-.02.514-.022 1.044-.042 1.56l-1.39 1c-.302-.29-.59-.586-.893-.892zM9.785 75.53c.413-.05.835-.108 1.264-.168.472.477.943.96 1.406 1.44l-.784 1.17.1.102-2.012.21c.007-.012.008-.037.016-.05-.33-.33-.653-.65-.977-1.027l.985-1.677zm46.253-45.78l1.828-1.088c.18.187.356.38.54.556l-.254 2.545a18.68 18.68 0 0 1-.783.43c-.488-.48-.978-.946-1.475-1.425.052-.34.093-.68.143-1.02zM12 74.072l2.317-.278c-.045.075-.088.16-.134.235.258.283.533.566.8.835l-.9 1.626c-.415.058-.836.092-1.248.135-.494-.502-.99-1.003-1.483-1.516.222-.34.44-.677.657-1.03l-.01-.007zm7.608-7.49c.478-.075.952-.174 1.433-.27.467.474.935.947 1.4 1.416l-.38.748-2.502.447c-.242-.23-.484-.467-.716-.716l.766-1.627zm50.988-50.887c.286-.216.577-.453.86-.69.523.504 1.042 1.012 1.558 1.524-.01.438-.032.87-.05 1.298l-1.5 1.13c-.287-.288-.608-.583-.91-.878l.042-2.384zM54.808 31.653c.3-.17.595-.353.9-.547.488.483.993.96 1.484 1.432-.058.48-.14.96-.22 1.432l-1.55.86c-.293-.288-.595-.57-.892-.894zm-7.785 7.818l1.72-.807c.248.256.493.496.75.75l-.414 2.316c-.297.128-.593.263-.877.387-.49-.474-.968-.95-1.45-1.432.09-.4.18-.8.27-1.214zM21.9 64.88l1.845-.36c.263.262.517.535.767.8l-.927 2.038c-.277.052-.547.113-.817.16-.486-.486-.973-.977-1.458-1.474.202-.38.406-.764.598-1.154l-.008-.01zm23.472-23.336c.38-.15.76-.332 1.137-.514.492.486.984.956 1.465 1.432-.086.378-.168.77-.26 1.155l-1.838.792-.9-.903zM7.308 79.624c.49-.03.982-.06 1.49-.11.46.48.925.957 1.374 1.425-.232.323-.46.637-.682.95l-2.342.17c.005-.008.01-.01.017-.017-.287-.287-.556-.598-.826-.91l.968-1.508zm52.875-52.352l1.617-1.01c.26.26.523.505.776.757.05-.032.1-.054.15-.085l-.184 2.376c-.35.22-.698.44-1.036.65-.486-.472-.966-.95-1.45-1.433.04-.415.086-.84.127-1.255zM26.66 61.082c.013.013.03.028.042.042.486-.12.97-.258 1.458-.38.47.48.93.96 1.398 1.433-.117.268-.238.528-.354.792l-2.342.538c-.286-.28-.572-.548-.834-.834l.632-1.593zM39.4 48.36l.2.202c.405-.154.836-.326 1.264-.49.487.475.983.934 1.458 1.408-.093.328-.188.658-.278.986l-2.056.758c-.298-.298-.6-.623-.893-.943-.078.027-.156.057-.236.085l.54-2.005zm2.02-1.736l1.862-.733.7.7-.54 2.258c-.298.118-.59.228-.884.346l-1.424-1.424c.113-.39.194-.764.287-1.146zM9.55 78.597l2.484-.26.615.614-1.02 1.71c-.364.04-.72.087-1.078.12-.484-.493-.973-.994-1.458-1.492.15-.225.303-.46.455-.69zm49.15-49.1l.067.067c.363-.218.726-.444 1.096-.674.493.486.99.962 1.482 1.45-.036.383-.074.765-.117 1.145l-1.728 1.02-.96-.96c-.017.008-.034.022-.05.032l.21-2.08zM4.83 83.38c.427-.036.865-.064 1.307-.092.467.47.92.937 1.382 1.415-.255.36-.485.702-.75 1.053l-2.175.118c-.28-.3-.577-.6-.842-.91zm24.122-24.07l1.81-.48c.294.287.604.57.886.85l-.733 1.998c-.346.09-.703.16-1.045.236l-1.44-1.44c.174-.39.345-.774.522-1.164zm-11.332 11.4c.416-.067.84-.15 1.255-.21.466.483.933.957 1.4 1.43-.133.248-.273.5-.414.75l-2.535.38c-.2-.203-.405-.405-.606-.624zm15.974-15.688c.405-.114.797-.217 1.188-.346.47.472.942.946 1.407 1.424-.108.313-.193.61-.296.902l-2.174.657c-.253-.253-.495-.513-.74-.774l.614-1.862zm1.828-1.828l1.82-.64.522.522-.733 2.536c-.186.066-.383.14-.572.202l-1.424-1.424c.136-.398.268-.798.388-1.196zm15.73-15.713l1.86-.918c.242.24.51.472.76.708l-.33 2.182c-.335.176-.666.337-.993.505-.49-.48-1-.953-1.492-1.44.068-.34.13-.688.193-1.037zm12.788-12.62l1.72-1.197c.257.274.525.544.8.8l-.11 2.216c-.35.234-.674.467-1.003.7-.49-.485-.983-.97-1.474-1.458.027-.35.042-.7.067-1.06zM19.71 69.228l2.156-.37c-.018.035-.032.082-.05.118l.707.707-.91 1.887c-.335.06-.66.128-.985.177-.484-.502-.972-1-1.466-1.5.187-.33.357-.67.547-1.02zm30.11-29.89c.312-.15.63-.303.935-.465.49.475.973.952 1.458 1.424-.082.446-.164.894-.244 1.34l-1.66.8c-.29-.284-.574-.547-.86-.86zM6.904 82.404l2.637-.194.708.71-.985 1.524c-.448.035-.896.084-1.332.118-.483-.505-.972-1.02-1.465-1.534.152-.208.296-.416.44-.623zm-4.794 4.86c.5-.014 1.015-.05 1.542-.075.463.49.913.99 1.38 1.466-.206.267-.396.526-.597.784l-2.595.1c-.252-.27-.52-.536-.775-.808l1.045-1.466zM63.073 26.71c.206-.13.41-.26.615-.396.498.483 1 .96 1.49 1.44-.048.466-.095.94-.142 1.39l-1.55.96c-.212-.21-.413-.434-.624-.656l.21-2.738zm4.836-4.634l1.473-1.07c.27.277.54.54.8.8l-.092 2.587c-.267.186-.54.365-.8.548-.5-.485-.996-.975-1.5-1.465.04-.463.078-.922.12-1.4zM24.84 65.48c.467-.087.955-.19 1.416-.304.465.48.93.945 1.398 1.415-.13.303-.265.596-.413.886l-2.324.472c-.23-.234-.457-.47-.682-.716-.057.01-.112.022-.17.033l.776-1.786zm-9.537 9.604c.49-.053.99-.142 1.49-.228.464.482.933.963 1.4 1.45-.212.357-.42.71-.623 1.06l-2.317.296c.027-.046.056-.09.084-.135-.293-.293-.584-.625-.876-.944l.843-1.5zm30.515-30.246l1.92-.842c.255.27.517.52.776.775l-.396 2.048c-.363.165-.723.332-1.07.48-.488-.477-.968-.952-1.457-1.44.08-.326.15-.672.228-1.02zm9.74-9.655l1.592-.884.65.647-.33 2.637c-.225.13-.454.256-.674.37-.48-.465-.955-.938-1.432-1.414.07-.457.122-.9.194-1.357zM4.578 86.18l2.376-.12c.243.258.49.506.725.76l-1.13 1.65c-.375.018-.747.036-1.112.05-.487-.51-.977-1.032-1.466-1.55.21-.257.408-.52.606-.79zM26.98 63.81l2.08-.48c-.017.043-.04.068-.058.11l.893.893-.7 1.728c-.423.104-.837.218-1.238.312-.483-.495-.973-.99-1.466-1.482.162-.357.32-.712.49-1.08zM44.327 46.6c.342-.136.696-.28 1.045-.422.483.48.964.954 1.45 1.432-.1.393-.212.765-.32 1.146l-1.863.716c-.266-.258-.532-.508-.793-.792l.48-2.08zm27.128-27.113l1.618-1.213c.24.242.472.478.7.716l-.06 2.57c-.266.2-.533.4-.792.607-.503-.497-1.013-.983-1.524-1.475.014-.394.04-.796.06-1.205zM17.62 73.373l2.04-.32c-.018.03-.035.054-.052.084.274.3.556.572.826.86l-1.01 1.954c-.288.046-.58.084-.87.128-.48-.49-.97-.988-1.456-1.475.212-.373.424-.734.64-1.112l-.118-.117zm49.134-48.915c.278-.194.555-.39.834-.598.52.5 1.05 1 1.56 1.49-.027.37-.057.734-.094 1.105l-1.66 1.137c-.254-.254-.51-.49-.766-.733l.126-2.402zM38.05 53.364l.06.06c.454-.13.9-.31 1.347-.456l1.424 1.424c-.107.368-.233.74-.36 1.104l-1.922.657c-.268-.26-.536-.513-.8-.8-.123.04-.24.082-.362.126l.615-2.116zm16.016-15.93a19.58 19.58 0 0 0 1.07-.55c.494.483 1 .95 1.483 1.433-.062.38-.128.757-.195 1.12l-1.836.91-.852-.85.328-2.064zM1.746 89.835l2.495-.085c.28.28.55.577.818.87l-1.053 1.474c-.433.023-.873.038-1.314.067-.506-.52-1.02-1.037-1.524-1.574.19-.24.384-.494.58-.75zM40.03 51.57l1.896-.683.8.8-.547 2.065c-.338.124-.678.243-1.012.354l-1.475-1.475c.117-.35.227-.702.337-1.06zm-8.012 8.062c.357-.097.722-.216 1.095-.32.468.468.928.95 1.39 1.424-.116.314-.238.63-.362.952l-2.164.58c-.222-.223-.434-.43-.657-.673l.698-1.963zm1.72-1.634l2.004-.573c.183.2.373.395.565.58l-.76 2.26-.748.227-1.46-1.458c.134-.343.264-.693.397-1.036zm41.5-41.45l1.373-1.138c.296.31.582.614.903.884.033-.024.06-.05.093-.075l.025 2.585c-.306.254-.61.515-.91.758-.494-.49-.994-.973-1.507-1.457.017-.515.015-1.037.025-1.56zM13.096 78.975c.433-.047.878-.1 1.314-.152.455.475.9.95 1.357 1.424-.243.367-.484.727-.717 1.104l-2.072.22c-.298-.304-.58-.623-.868-.936zm57.4-57.315c.252-.18.485-.385.74-.59.512.508 1.03 1 1.542 1.493-.02.436-.03.878-.06 1.322l-1.55 1.096-.766-.766.093-2.553zM59.542 32.935l1.685-.994c.327.354.655.688.985 1.02l-.194 1.996-.043-.042c-.39.223-.766.473-1.162.69-.487-.475-.97-.973-1.45-1.466.06-.395.116-.797.178-1.204zM22.8 69.96l.052.052a31.17 31.17 0 0 0 1.508-.295c.472.48.945.96 1.407 1.44-.09.19-.19.374-.286.557l-2.704.497c-.225-.236-.45-.462-.674-.707h-.017l.716-1.542zm-7.75 8.022l2.654-.312c.172.176.34.35.506.522l-.986 1.744c-.35.05-.7.098-1.053.144a86.212 86.212 0 0 1-1.482-1.517c.123-.19.244-.388.362-.58zm43.052-42.866c.353-.197.705-.392 1.07-.615.486.476.96.956 1.432 1.433-.057.45-.113.895-.177 1.34l-1.617.893a29.167 29.167 0 0 1-.834-.868c-.05.03-.093.063-.144.093l.27-2.274zm-7.65 7.666l1.668-.792c.246.262.496.53.75.784l-.43 2.334c-.28.128-.568.25-.842.37-.483-.468-.973-.94-1.45-1.415.1-.425.21-.847.304-1.28zM74.06 19.226c.332-.252.665-.502.976-.758.523.503 1.035 1.005 1.56 1.508-.015.357-.015.706-.035 1.062l-1.65 1.23c-.29-.282-.588-.544-.885-.818l.034-2.224zm-48.883 49l1.87-.37.01.007c.318.35.632.693.968 1.003l-.81 1.837c-.378.075-.76.15-1.145.22-.485-.49-.957-.973-1.432-1.467.208-.382.412-.768.606-1.163l-.067-.067zm-14.61 14.878c.482-.037 1.004-.082 1.535-.135.462.476.923.965 1.39 1.44-.21.307-.4.6-.607.893l-2.443.185c-.27-.293-.553-.598-.826-.91zm38.26-38.224a32.78 32.78 0 0 0 1.11-.488l1.45 1.45c-.077.318-.158.627-.227.934l-2.022.893c-.235-.252-.467-.518-.708-.776zm29.09-28.906c.19-.153.38-.294.573-.455.52.494 1.043.984 1.56 1.474.003.43.002.86 0 1.297l-1.526 1.206c-.2-.193-.386-.396-.58-.598l-.027-2.924zM63.687 30.44l1.483-.91.902.9c.007-.003.01-.01.017-.015l-.22 2.392c-.31.196-.596.376-.893.556-.494-.478-.98-.946-1.466-1.432.06-.498.128-1.002.178-1.49zM44.876 49.775l1.668-.657c.28.3.56.594.85.885l-.522 2.173c-.317.13-.634.25-.95.38l-1.424-1.44c.132-.462.27-.9.38-1.34zm-14.643 14.66c.427-.112.846-.218 1.264-.32.467.474.937.95 1.407 1.423-.104.244-.206.49-.312.733l-2.442.574c-.208-.215-.41-.44-.615-.666l.7-1.744zm2.005-1.905l1.77-.455c.217.24.433.45.657.674l-.868 2.4c-.197.052-.396.103-.59.152-.472-.477-.94-.966-1.415-1.45.183-.407.347-.832.532-1.237a95.41 95.41 0 0 1-.085-.085zm4.34-4.27c.063.06.13.13.193.193.462-.104.916-.256 1.365-.405l1.407 1.407c-.087.25-.166.49-.253.725l-2.36.708a44.95 44.95 0 0 1-.767-.818c-.076.025-.15.052-.227.076l.64-1.887zM12.968 81.882l2.308-.22c.203.205.392.414.59.624l-1.096 1.87c-.3.037-.605.054-.9.076-.484-.503-.968-.997-1.45-1.5.186-.272.365-.56.547-.85zm7.792-7.71c.478-.078.963-.165 1.433-.252.45.47.91.932 1.38 1.4-.216.405-.427.813-.656 1.213.02.02.04.038.058.06l-1.963.294a33.844 33.844 0 0 1-.977-1.028c-.05.006-.092.016-.143.024l.867-1.71zm22.26-22.258c.417-.154.83-.333 1.246-.49l1.424 1.425c-.094.31-.174.615-.26.918l-2.116.784c-.26-.26-.51-.54-.767-.817l.47-1.82zM8.116 86.87c.445-.038.894-.07 1.356-.11.464.484.943.958 1.407 1.44-.222.31-.434.617-.64.91l-2.427.153c-.25-.278-.514-.542-.766-.817l1.07-1.576zm30.71-30.44l1.71-.58c.268.29.52.57.8.85l-.616 2.166c-.306.106-.622.218-.926.32-.47-.474-.934-.962-1.407-1.44.148-.444.298-.88.44-1.315zm23.698-23.665l.792-.49c.503.493 1.002.987 1.5 1.484-.035.352-.087.704-.127 1.052l-1.77 1.045-.63-.632.235-2.46zm-7.928 8.012l1.82-.91c.207.24.423.46.65.683l-.372 2.342c-.29.15-.57.298-.86.438-.476-.476-.95-.95-1.44-1.424.07-.372.13-.744.202-1.13zM67.47 28.005l1.55-1.062.902.902-.126 2.283c-.33.224-.657.46-.978.674-.49-.483-.97-.964-1.466-1.45.04-.43.077-.89.118-1.347zM23.02 72.49l2.267-.414c-.05.09-.1.18-.152.27.278.303.588.594.885.884l-.81 1.685c-.425.073-.853.145-1.28.22-.476-.496-.958-.99-1.45-1.484.222-.357.428-.703.616-1.085l-.076-.076zm30.178-29.724c.33-.162.657-.357.986-.53.482.48.96.952 1.44 1.423-.07.38-.157.766-.235 1.144l-1.846.868a56.43 56.43 0 0 0-.716-.733l.37-2.174zM10.265 85.834l2.56-.22c.214.214.415.44.625.658l-1.08 1.685c-.383.03-.755.055-1.128.084-.478-.51-.966-1.012-1.457-1.524.158-.225.32-.448.48-.682zM5.42 90.796c.52-.028 1.04-.047 1.56-.076.466.485.936.967 1.406 1.44-.283.37-.567.74-.85 1.088l.058.06-2.502.108c.062-.084.124-.166.185-.253-.284-.31-.596-.607-.876-.926l1.02-1.44zm60.99-60.584c.252-.16.512-.322.774-.505.493.488.983.978 1.466 1.466-.04.445-.074.872-.118 1.297l-1.61.986c-.244-.24-.49-.477-.724-.725zm5.028-4.928l1.365-.96c.266.28.53.55.8.8l-.11 2.77c-.227.16-.455.315-.68.465-.5-.48-.994-.963-1.492-1.442.05-.55.087-1.085.118-1.634zM18.478 78.48c.015.012.03.027.043.04.518-.062 1.07-.152 1.602-.235.464.482.93.958 1.39 1.424-.18.323-.363.628-.54.926l-2.324.303c-.317-.346-.64-.682-.97-1.037l.8-1.424zm30.77-30.483l1.82-.808-.018.066c.252.3.517.566.792.843l-.43 2.113c-.33.154-.67.313-1.002.447-.484-.48-.958-.953-1.45-1.433.102-.405.2-.81.287-1.23zm-20.82 20.835c.39-.074.78-.18 1.155-.278.453.472.9.943 1.357 1.407-.114.26-.227.51-.346.768l-2.45.497c-.18-.18-.354-.355-.524-.54l.81-1.853zm1.914-1.693l2.09-.49c-.027.06-.06.125-.085.186.18.196.37.39.564.58l-.858 2.124c-.26.064-.527.135-.792.202-.48-.487-.948-.978-1.432-1.466.168-.38.322-.753.514-1.137zm28.653-28.654l1.56-.85c.293.312.6.616.883.9.043-.024.083-.052.127-.076l-.287 2.292c-.357.203-.698.413-1.053.598-.474-.473-.956-.95-1.44-1.424l.21-1.44zM8.058 89.524l2.13-.126c.242.278.478.542.726.792L9.71 91.967c-.318.02-.63.032-.945.05-.473-.51-.963-1.01-1.45-1.516.255-.318.517-.652.743-.976zm39.698-39.58c.33-.133.663-.258.994-.405l1.407 1.406c-.09.374-.18.738-.286 1.095l-1.912.75c-.236-.237-.48-.477-.707-.723l.506-2.123zm27.28-27.264l1.483-1.095c-.002.013 0 .02 0 .034.363.363.72.73 1.086 1.07l-.05 2.122-.018-.017c-.35.266-.697.545-1.036.8-.505-.484-1.016-.984-1.525-1.474.024-.475.033-.948.06-1.44zM34.942 63.028l.075.075c.47-.142.95-.268 1.433-.42.464.468.922.932 1.38 1.398-.115.304-.23.6-.344.902l-2.233.615c-.207-.22-.41-.442-.615-.665-.144.038-.285.07-.43.11l.734-2.014zm-14.07 14.204l2.367-.362c.22.237.444.477.665.7l-.885 1.743c-.392.073-.776.145-1.154.194-.476-.496-.967-.993-1.45-1.483.153-.262.31-.527.456-.792zm49.37-49.336c.29-.205.58-.395.868-.6.516.494 1.04.974 1.55 1.467-.025.353-.067.708-.1 1.062l-1.703 1.146-.74-.724.125-2.35zM57.335 40.82l.042.04c.382-.195.784-.384 1.18-.605.492.49.98.978 1.474 1.457-.047.295-.104.586-.16.868l-1.987 1.01-.85-.85.302-1.92zm-13.91 14.044l1.888-.69c-.008.025-.01.057-.017.083l.825.826-.53 1.996c-.368.13-.74.258-1.095.387l-1.44-1.44c.125-.388.256-.77.37-1.163zm-6.284 6.318l1.98-.58c-.022.057-.036.117-.06.176l.793.792-.632 1.946c-.364.112-.744.224-1.102.33-.47-.484-.948-.965-1.432-1.45.152-.4.305-.795.454-1.214zm4.584-4.465c.364-.122.73-.25 1.095-.387.47.475.924.95 1.39 1.423-.097.31-.178.627-.28.936l-2.122.706c-.218-.23-.44-.452-.65-.682-.01.003-.022-.004-.032 0l.598-1.997zM4.864 93.71l3.008-.125.422.438-1.138 1.61c-.373.018-.748.04-1.12.058-.495-.52-.99-1.048-1.492-1.574.11-.132.217-.27.32-.405zm73.972-73.92l1.272-1.02c.176.19.367.374.547.55l-.008 3.428c-.11.09-.218.172-.328.26-.503-.48-1.01-.96-1.51-1.44.015-.586.042-1.167.043-1.76l-.017-.017zM16.213 82.43c.476-.056.978-.116 1.483-.185.47.485.932.97 1.398 1.45-.245.366-.456.705-.682 1.052l-2.106.236c-.282-.302-.587-.584-.86-.91-.072.01-.13.024-.202.034l.97-1.677zm57.702-57.247c.284-.197.573-.426.877-.657.515.49 1.037.983 1.54 1.474-.025.41-.035.82-.05 1.23l-1.608 1.137c-.257-.25-.517-.495-.767-.766-.028.02-.057.048-.084.068l.093-2.485zm-10.918 11.07l1.643-.97v.018c.287.315.612.62.918.92l-.236 2.173c-.354.198-.732.4-1.087.598a147.6 147.6 0 0 0-1.45-1.43c.072-.432.146-.87.212-1.307zm-36.64 37.112c.43-.08.858-.18 1.314-.27.474.48.94.968 1.408 1.44-.195.38-.39.76-.573 1.113l-2.132.362c.012-.02.03-.037.043-.06-.29-.29-.56-.585-.843-.892l.784-1.693zm-7.903 7.92l2.485-.312c.255.274.515.55.766.817l-.876 1.55c-.445.064-.893.127-1.34.177-.495-.516-.99-1.02-1.482-1.533.15-.232.297-.468.446-.7zm35.35-35.352l1.568-.724c.26.278.514.546.775.808l-.463 2.52c-.234.107-.475.215-.708.32l-1.432-1.434c.11-.472.22-.96.312-1.44l-.05-.05zm-25.41 25.562l2.04-.405-.06.127c.213.253.44.492.658.724l-1.027 2.26c-.2.04-.402.067-.6.108-.465-.48-.944-.96-1.43-1.45.194-.387.403-.786.59-1.195-.057-.056-.113-.11-.17-.168zm33.558-33.237c.217-.118.424-.242.64-.37.484.483.985.962 1.475 1.44-.058.37-.11.73-.17 1.095l-1.802.995c-.16-.163-.316-.328-.48-.498l.337-2.662zM13.736 86.575l.017.017c.545-.042 1.13-.086 1.702-.152.463.475.917.953 1.373 1.424-.19.264-.348.523-.522.775l-2.612.218a87.892 87.892 0 0 1-.85-.9zm64.19-64.088c.235-.174.464-.364.7-.548a59.48 59.48 0 0 0 1.558 1.507c-.01.336-.016.664-.034.994l-1.702 1.248a157.37 157.37 0 0 0-.58-.564l.058-2.637zm-25.764 25.78c.37-.163.764-.334 1.138-.514.483.482.967.966 1.457 1.44-.07.294-.135.587-.202.877l-2.106.91c-.233-.24-.45-.486-.684-.733l.396-1.98zM80.976 19.64l.16.16c.332-.25.667-.53 1.002-.8.524.497 1.04.98 1.56 1.473-.003.41-.01.826-.018 1.23l-1.576 1.24a56.227 56.227 0 0 1-.766-.75c-.118.093-.246.2-.37.302l.007-2.856zM33.19 67.677c.062.06.112.12.176.177.445-.126.957-.244 1.44-.362l1.4 1.415c-.077.188-.14.373-.22.556l-2.637.65c-.233-.236-.477-.473-.7-.717-.058.016-.118.027-.177.042l.716-1.762zm33.985-33.92l1.44-.883c.302.322.605.63.92.918l-.21 2.4c-.295.19-.578.373-.87.55-.484-.47-.973-.937-1.456-1.408.05-.518.1-1.034.175-1.576zm-18.94 19.31l1.627-.63c.29.307.588.602.868.9l-.53 2.217c-.305.122-.61.238-.902.362a177.43 177.43 0 0 0-1.432-1.416c.12-.47.248-.933.38-1.422l-.01-.01zm-12.72 12.807l1.828-.48-.008.025c.296.323.586.632.876.944l-.724 2.055c-.31.082-.627.157-.943.235-.48-.483-.958-.962-1.44-1.44.184-.406.354-.808.538-1.214l-.125-.125zM11.26 90.367c.52-.034 1.046-.085 1.566-.118.462.478.924.965 1.39 1.44-.255.368-.533.76-.8 1.137.043.046.084.08.126.126l-2.198.143c.02-.03.046-.052.067-.084-.33-.362-.685-.71-1.002-1.087-.062.004-.13.005-.193.01l1.044-1.568zm5.063-5.064l2.232-.244c.273.287.543.575.818.85l-.97 1.66c-.403.048-.81.1-1.213.134-.477-.494-.956-.994-1.44-1.49.198-.29.386-.597.573-.91zm30.12-30.068c.38-.143.77-.303 1.17-.464.486.482.974.97 1.457 1.442-.076.248-.146.485-.22.724l-2.3.85c-.198-.21-.395-.43-.597-.647l.49-1.905zm-4.382 4.43l1.728-.563c.316.345.645.686.952 1.02l-.615 2.097c-.326.112-.647.22-.97.327l-1.43-1.432c.148-.45.305-.905.43-1.356l-.094-.094zM24.353 77.528c.377-.06.74-.145 1.145-.22.464.48.934.955 1.4 1.433-.2.373-.39.736-.6 1.12l-2.063.33a27.77 27.77 0 0 1-.792-.877zm15.796-15.73c.438-.11.88-.244 1.323-.395.478.476.955.952 1.433 1.415-.082.234-.17.452-.252.674l-2.443.742c-.21-.222-.422-.457-.632-.682l.573-1.752zm17.878-17.86l1.753-.876c-.01.04-.02.088-.027.127.344.374.698.714 1.045 1.06l-.312 1.93-.067-.067c-.398.21-.79.4-1.18.59-.484-.476-.97-.956-1.45-1.432.078-.433.158-.883.236-1.33zm7.844-7.692c.294-.178.6-.38.91-.573.503.485 1.005.975 1.49 1.457-.027.288-.065.575-.1.86l-1.913 1.136c-.21-.192-.41-.4-.615-.598l.228-2.283zm5.097-4.878l1.55-1.045c0 .013-.007.03-.008.042.28.28.56.523.833.784l-.168 2.477c-.29.206-.562.414-.843.59-.498-.48-.984-.97-1.483-1.45.055-.464.08-.93.117-1.398zm-44.78 44.997l2.436-.43c.137.147.275.286.413.43l-.986 2.048c-.27.042-.532.1-.8.143-.48-.5-.955-1.002-1.44-1.508.124-.223.252-.452.378-.683zM56.452 46.17c.373-.18.747-.366 1.13-.557l1.432 1.433a51.8 51.8 0 0 1-.21 1.07l-1.888.893a24.99 24.99 0 0 1-.682-.718c-.058.027-.12.05-.177.076l.396-2.2zM13.72 89.152l2.35-.177c-.005.008-.02.018-.025.026.314.314.615.612.91.926l-.936 1.475c-.47.047-.925.08-1.39.126-.5-.52-1.01-1.023-1.51-1.543.206-.285.406-.56.6-.834zm-5.13 5.165c.56-.02 1.16-.054 1.75-.1.463.49.932.978 1.4 1.465-.248.33-.484.654-.75.985l-2.41.118c.024-.03.035-.06.06-.092a17.716 17.716 0 0 1-.987-1.053zm22.704-22.1c.018.022.04.04.06.06.497-.11 1.004-.218 1.507-.345.47.482.942.957 1.416 1.432-.2.428-.4.854-.598 1.24.003.002.005.003.008.007l-1.87.387c-.318-.32-.628-.65-.944-.995l-.404.084.825-1.87zm38.57-38.568c.268-.168.55-.34.816-.514.49.484.975.96 1.466 1.432-.032.362-.054.728-.092 1.087l-1.795 1.087c-.207-.208-.414-.414-.616-.632l.22-2.46zm5.096-4.996l1.34-.952c.33.358.667.697 1.028 1.028.032-.02.077-.038.11-.06l-.11 2.452c-.327.216-.66.45-.978.658-.512-.48-1.007-.97-1.508-1.458.055-.55.11-1.097.152-1.634l-.034-.034zM52.617 51.3l1.837-.792c-.008.037-.026.082-.034.118.224.244.46.473.69.708l-.462 2.3c-.3.132-.596.27-.893.387l-1.433-1.43c.106-.423.207-.854.295-1.29zM5.977 97.957c.527 0 1.08-.02 1.626-.042.455.488.91.98 1.365 1.466-.292.34-.563.685-.86 1.046l-2.14.05c-.337-.34-.664-.702-.977-1.044-.05 0-.108.008-.16.008l1.147-1.483zm16.066-16.05l1.382-.2c.465.477.943.944 1.398 1.43-.17.305-.344.612-.513.902l-2.385.294a19.76 19.76 0 0 1-.766-.8zm11.55-11.55l2.242-.54c-.052.125-.106.246-.152.372.266.264.514.538.767.8l-.733 1.86c-.387.098-.76.19-1.137.28-.484-.486-.964-.982-1.44-1.475.187-.393.375-.795.546-1.205l-.092-.093zm28.772-28.67l1.49-.8c.336.363.688.717 1.03 1.028l-.287 2.258c-.324.184-.638.37-.944.54-.478-.475-.968-.937-1.458-1.408.09-.514.154-1.05.228-1.56-.02-.02-.04-.037-.06-.058zm-11.29 11.627c.343-.134.69-.267 1.037-.413l1.415 1.416c-.075.31-.16.605-.244.902l-2.08.817c-.205-.207-.408-.406-.608-.623l-.016-.017.496-2.08zm-39.95 40.102l2.704-.16c.198.21.387.422.58.632l-1.044 1.6c-.41.02-.818.037-1.222.06-.49-.51-.984-1.03-1.474-1.542.152-.19.305-.387.455-.59zM78.617 26.06l1.516-1.113c-.002.043-.014.092-.017.135.162.175.338.34.506.505l-.11 3.11c-.15.112-.305.24-.455.353-.506-.487-1.003-.976-1.508-1.474.017-.497.03-1.003.067-1.517zM24.25 80.51l2.174-.338c.164.18.337.346.506.523l-1.096 2.14c-.222.038-.438.07-.657.1-.476-.495-.96-.99-1.44-1.49.173-.305.346-.625.514-.936zm22.563-22.445l1.904-.707c-.024.078-.053.166-.076.244l.843.842-.556 2.022c-.353.13-.71.24-1.07.363-.49-.492-.966-.986-1.45-1.484.135-.422.287-.85.406-1.28zM40.47 64.51l2.037-.59c-.027.076-.065.154-.092.228.292.293.557.59.834.885l-.6 1.828a30.11 30.11 0 0 1-1.238.346L40.005 65.8c.15-.43.318-.862.472-1.28l-.008-.01zm-1.863 1.88c.366-.112.736-.21 1.13-.32l1.397 1.398c-.094.246-.17.492-.26.733l-2.42.65c-.17-.18-.342-.362-.513-.548-.005 0-.01-.002-.016 0l.683-1.913zm34.997-34.98c.344-.224.676-.46 1.02-.7.52.5 1.05.988 1.575 1.49-.023.27-.06.546-.086.81l-1.878 1.238-.75-.75.118-2.09zM45.128 60.053c.335-.11.664-.226 1.01-.354.48.48.948.952 1.416 1.432-.095.292-.184.583-.278.868l-2.182.716c-.19-.2-.378-.395-.565-.598l.598-2.064zm16.015-15.982c.274-.14.554-.272.826-.422.495.485.996.963 1.482 1.45-.052.274-.107.536-.16.8l-2.04 1.01-.48-.463.37-2.375zM8.31 97.122l2.83-.133c.238.242.46.486.692.723l-.97 1.44c-.47.028-.952.043-1.423.077-.504-.528-1.035-1.042-1.542-1.576.136-.175.28-.354.413-.53zM82.4 23.238l1.297-1.028c.337.362.69.69 1.02 1.018l-.017 2.595c-.277.224-.544.457-.81.657-.494-.462-.988-.95-1.482-1.432.022-.594.03-1.178.042-1.76l-.05-.05zM19.86 85.86c.403-.05.81-.104 1.214-.152.45.468.898.94 1.348 1.398-.195.318-.376.64-.564.952l-2.368.278c-.217-.23-.438-.472-.648-.716zm46.642-46.456l1.61-.935c-.01.068-.018.14-.027.21.29.314.6.614.894.91l-.237 2.19c-.352.2-.697.405-1.054.58-.484-.475-.968-.952-1.458-1.423.092-.5.183-1.004.27-1.533zm-37.205 37.22c.06.064.102.132.16.195a74.12 74.12 0 0 0 1.525-.313c.473.474.93.95 1.39 1.424-.156.31-.3.63-.463.936l-2.276.405c-.31-.308-.635-.64-.927-.96-.076.013-.15.013-.227.026l.817-1.71zm48.443-48.19c.21-.148.424-.305.64-.47.51.5 1.006.993 1.51 1.49l-.06.986-1.753 1.213c-.148-.144-.3-.283-.446-.43l.11-2.788zM57.158 49.27l1.56-.75.016.017c.33.36.68.712 1.01 1.044.053-.023.108-.05.16-.074l-.404 2.207c-.388.176-.768.34-1.137.497-.476-.476-.963-.94-1.45-1.415.108-.48.227-.964.32-1.45l-.075-.075zM21.833 84.663l2.367-.278c.174.174.342.354.514.53L23.61 86.88c-.265.034-.54.054-.81.083-.48-.5-.963-1.01-1.456-1.508.167-.27.323-.534.49-.792zm59.075-58.79c.1.097.2.2.295.295a24.5 24.5 0 0 0 1.02-.75c.518.5 1.05.987 1.567 1.483-.01.246-.015.493-.026.734L81.87 28.99c-.25-.247-.508-.51-.768-.75-.094.073-.178.15-.27.22l.076-2.586zm-15.653 15.84c.263-.145.525-.295.783-.447.485.48.97.955 1.458 1.424-.045.35-.09.707-.144 1.053l-1.853 1.01c-.186-.187-.377-.38-.565-.58l.32-2.46zm-9.857 9.907l.05.05c.393-.164.804-.353 1.23-.555l1.45 1.45c-.055.223-.11.445-.16.664l-2.25.985a17.88 17.88 0 0 1-.69-.708l.37-1.887zM31.723 75.345l2.233-.43c.21.23.417.45.632.666l-.843 1.888c-.347.078-.697.16-1.036.227-.478-.493-.955-.975-1.433-1.465.15-.292.305-.584.446-.885zM17.36 90.03c.463-.04.943-.087 1.423-.144.462.482.92.97 1.38 1.45-.247.376-.493.758-.765 1.137l.025.025-2.4.21c.05-.075.1-.16.15-.235-.27-.272-.54-.57-.808-.876l.994-1.567zm53.17-53.02l1.473-.883v.033c.298.324.583.636.893.927l-.227 2.62c-.25.156-.495.3-.743.438-.49-.47-.972-.947-1.457-1.423.06-.533.13-1.078.16-1.61a96.366 96.366 0 0 1-.1-.1zM51.462 56.297l1.702-.64c-.006.02-.01.047-.017.067.28.305.56.59.843.86l-.59 2.375c-.25.103-.5.212-.75.312l-1.44-1.44c.126-.47.27-.917.396-1.39l-.143-.144zM38.725 69.12l1.996-.55c-.026.074-.055.147-.083.22.31.338.63.664.944.978l-.74 2.005-1.003.26c-.467-.483-.938-.97-1.424-1.457.19-.405.348-.82.53-1.22-.073-.082-.144-.158-.218-.237zm-1.947 2.08c.428-.107.882-.21 1.323-.33.47.484.945.963 1.408 1.442-.152.355-.31.697-.463 1.053l-2.064.53c.01-.02.01-.047.018-.067-.304-.303-.624-.588-.91-.91l.69-1.718zM85.01 23.05c.24-.183.493-.36.743-.555.516.503 1.04 1.006 1.558 1.508-.01.32-.016.636-.024.952l-1.72 1.315c-.184-.18-.378-.368-.563-.565l.008-2.654zM27.19 80.99l.035.033c.53-.09 1.07-.195 1.6-.286.456.474.92.947 1.382 1.415-.185.354-.372.707-.565 1.053l-2.165.346c-.267-.284-.546-.58-.8-.884-.124.024-.255.053-.38.076l.894-1.752zm-7.438 7.624l2.013-.244c.208.227.414.438.624.657L21.174 91.1c-.21.022-.42.054-.63.075-.484-.5-.96-1.003-1.442-1.508.233-.347.45-.695.65-1.053zm30.01-30.01c.387-.148.802-.3 1.22-.463.48.475.96.948 1.425 1.425-.072.225-.146.433-.21.65l-2.36.875c-.193-.195-.382-.386-.573-.59l.497-1.895zm-4.39 4.407l1.76-.597c-.005.02-.01.048-.016.067.292.348.62.662.943.96l-.53 1.83-1.257.395-1.204-1.205c.135-.444.28-.898.403-1.348-.03-.034-.07-.067-.1-.1zm-1.812 2.132c.412-.125.833-.26 1.264-.404l1.24 1.238-.23.75-2.425.742a29.375 29.375 0 0 1-.456-.472l.606-1.854zm17.912-17.91l1.72-.86c-.013.055-.015.12-.027.176l.944.944-.338 2.04c-.374.184-.74.352-1.104.53-.492-.48-.974-.958-1.466-1.45.092-.454.172-.907.27-1.38zM14.907 93.86c.424-.04.857-.08 1.28-.117.46.478.92.95 1.374 1.424-.273.386-.508.77-.774 1.145l.008.008-2.072.15c-.31-.312-.622-.644-.91-.96l1.095-1.65zm54.375-54.188c.32-.197.647-.4.986-.615.496.483.992.974 1.49 1.456-.03.27-.055.537-.092.8l-2.013 1.138c-.206-.196-.407-.39-.607-.59l.236-2.19zm5.223-5.156l1.56-1.02c-.01.09-.007.18-.018.27a17.642 17.642 0 0 0 1.07 1.07l-.16 2.08-.043-.042c-.37.245-.72.505-1.078.742-.495-.475-.98-.95-1.474-1.424.052-.553.084-1.098.143-1.677zm-44.93 45.115l2.224-.42.783.782-.843 1.77c-.39.074-.777.15-1.154.21-.495-.5-.98-1.024-1.474-1.525.155-.272.312-.54.463-.817zm30.71-30.304c.234-.117.467-.235.698-.347.484.48.96.953 1.433 1.432-.057.29-.11.584-.17.877l-2.046.97c-.126-.13-.256-.267-.38-.397l.464-2.536zm-43.482 43.7l2.89-.245c.105.11.215.21.32.32l-1.163 1.82c-.302.028-.61.077-.9.11-.486-.515-.978-1.03-1.467-1.55.105-.154.216-.302.32-.456zm-4.558 4.793c.474-.028.96-.057 1.44-.093.468.49.935.978 1.416 1.45-.24.32-.472.644-.723.976l-2.427.152c.016-.023.043-.053.06-.076a21.622 21.622 0 0 1-.818-.868l1.053-1.54zm12.74-12.638c.06.065.134.13.192.194a42.194 42.194 0 0 0 1.56-.262c.472.483.945.962 1.423 1.44-.138.25-.274.492-.413.733l-2.603.364c-.287-.28-.572-.556-.843-.876-.07.01-.14.014-.21.025l.894-1.618zM73.207 37.13c.323-.184.642-.4.977-.607l1.475 1.44c-.03.334-.068.657-.11.986l-1.87 1.145-.632-.632c-.02.012-.04.03-.06.042l.22-2.376zm5.173-5.174l1.408-.968c-.003.04.003.077 0 .118l.606.606-.168 3.252c-.12.08-.256.16-.37.236-.493-.473-.98-.954-1.467-1.432.045-.548.095-1.094.15-1.65-.055-.052-.105-.11-.16-.162zm-22.376 22.53l1.854-.81c-.025.102-.05.21-.076.312l1.045 1.044-.38 1.88c-.022-.025-.045-.044-.067-.068-.416.19-.828.362-1.238.53l-1.45-1.45c.12-.46.242-.922.346-1.406l-.034-.033zm-21.02 21.12a20.33 20.33 0 0 0 1.205-.278c.468.47.93.936 1.39 1.407-.168.367-.333.735-.498 1.087l-2.064.43c-.273-.28-.54-.564-.81-.86-.002-.004-.013-.013-.016-.017l.792-1.77zm30.793-30.574l1.508-.817v.017c.33.36.66.693.994 1.027l-.304 2.342c-.305.172-.618.34-.918.497-.487-.475-.96-.956-1.433-1.434.077-.51.17-1.035.253-1.533l-.1-.1zM54.285 56.726c.394-.14.8-.295 1.188-.464.474.47.958.93 1.433 1.4-.066.284-.143.563-.22.84l-2.173.844c-.196-.2-.393-.393-.58-.598l-.145.06.497-2.082zM36.82 74.258l2.275-.556.733.733-.7 1.778c-.417.1-.827.204-1.23.303-.483-.49-.95-.98-1.44-1.474.117-.26.243-.522.363-.784zM9.634 101.496c.44-.024.88-.052 1.315-.068.462.494.913.995 1.38 1.483-.27.32-.52.648-.765.953l-2.334.042a37.377 37.377 0 0 1-.785-.834l1.188-1.574zm4.93-4.693l2.526-.168.395.413-1.29 1.946c-.23.013-.46.048-.69.067a99.16 99.16 0 0 1-1.49-1.54c.186-.236.37-.473.547-.717zm29.115-29.066l2.022-.606-.05.152.927.927-.69 2.055c-.367.113-.73.2-1.088.295l-1.46-1.458c.157-.41.305-.825.465-1.238l-.127-.127zm38.486-38.45l1.558-1.122c-.007.126-.01.26-.017.388.296.32.595.6.893.893l-.075 2.384c-.314.225-.615.45-.92.666-.505-.487-1-.988-1.507-1.475.033-.55.064-1.108.1-1.7l-.032-.034zM50.107 61.358l1.954-.69c-.03.097-.068.204-.1.302.24.24.488.48.733.716l-.59 2.19c-.315.115-.63.217-.943.32l-1.433-1.432c.147-.45.293-.892.43-1.356l-.05-.05zM27.612 83.887l2.115-.346c.244.276.506.54.758.792l-.935 1.845c-.348.057-.71.115-1.062.168-.47-.49-.93-.995-1.407-1.49.18-.322.36-.644.532-.97zm14.365-14.146c.365-.105.728-.207 1.112-.32l1.372 1.373c-.16.442-.325.885-.48 1.306l-1.837.524c-.29-.31-.588-.63-.876-.944zm6.428-6.31c.353-.11.708-.25 1.07-.38l1.44 1.442c-.074.224-.16.448-.235.674l-2.24.74-.6-.597zm16.024-15.94c.316-.16.635-.32.968-.497.488.486.98.98 1.474 1.458-.036.205-.088.397-.126.598l-2.216 1.12-.472-.47.37-2.208zm-41.763 41.83l.033.034c.557-.043 1.133-.125 1.694-.194.458.477.91.96 1.365 1.432-.26.393-.502.79-.743 1.18l.1.1-2.046.245c.013-.022.022-.047.035-.068-.335-.336-.688-.674-1.02-1.037-.138.017-.282.018-.42.034l1.002-1.728zm54.745-54.678c.25-.165.507-.33.758-.505.506.49 1.025.974 1.542 1.456-.02.244-.037.477-.06.716l-1.98 1.29c-.14-.137-.296-.265-.437-.405l.177-2.553zm-65.69 65.976l2.713-.152c.146.148.285.296.43.447l-1.22 1.794c-.296.018-.59.037-.878.05-.498-.52-.983-1.05-1.474-1.576.15-.19.288-.373.43-.564zM85.88 26.58l1.39-1.085c-.002.06-.008.117-.01.176.26.26.528.505.785.75l-.05 3.152c-.17.128-.333.255-.498.38-.504-.485-1.013-.965-1.516-1.45.023-.574.057-1.173.068-1.752l-.17-.17zM69.946 42.733l1.652-.96c-.015.1-.03.21-.043.31.242.266.504.533.766.785l-.26 2.384c-.3.17-.605.33-.91.49-.484-.478-.978-.95-1.467-1.433.086-.518.173-1.034.26-1.575zM80.68 32l.178.175c.356-.252.708-.492 1.053-.75.52.5 1.03 1 1.543 1.492-.018.293-.05.58-.068.876l-1.82 1.247c-.195-.19-.39-.374-.58-.58-.147.095-.285.194-.43.294L80.68 32zM60.445 52.504l1.702-.775c-.01.056-.023.113-.034.168.332.363.693.71 1.028 1.045l-.387 2.19c-.333.15-.67.296-.995.44-.48-.48-.96-.953-1.44-1.425.115-.473.224-.964.328-1.44-.066-.068-.135-.136-.202-.203zM32.91 80.19c.463-.082.942-.176 1.425-.28.457.476.914.945 1.382 1.417-.15.293-.3.59-.455.876l-2.334.446c-.26-.28-.527-.554-.783-.852zm-7.657 7.76l2.292-.305-.076.127c.27.27.536.54.8.817l-.92 1.66c-.412.055-.804.12-1.204.176-.5-.51-.996-1.022-1.483-1.534.195-.316.386-.618.59-.943zM89.52 23.716l1.54-1.222-.008.464c.352.38.73.72 1.062 1.077l.008 2.233c-.35.265-.714.528-1.053.783a84.04 84.04 0 0 1-1.535-1.466c.02-.58.036-1.16.076-1.777-.03-.03-.06-.064-.092-.093zm-80.232 80.5l2.376-.05c.176.192.36.368.54.556l-1.374 1.862c-.25.01-.5.01-.742.017-.48-.52-.974-1.046-1.466-1.568.22-.266.446-.537.666-.817zm10.978-10.843l.168.17c.544-.043 1.108-.112 1.668-.17.46.478.93.96 1.4 1.432-.227.338-.458.666-.675.995l-2.342.22c.01-.016.014-.027.025-.042a17.177 17.177 0 0 1-1.003-1.104c-.068.007-.134.01-.202.017l.96-1.516zM35.12 78.572l2.03-.396c.26.297.547.574.808.86l-.826 1.836c-.378.08-.753.164-1.112.236-.47-.488-.95-.97-1.424-1.458.17-.345.344-.708.523-1.078zM68.64 45.116c.284-.155.582-.305.867-.463.482.477.964.95 1.448 1.415-.04.286-.085.57-.134.86l-2.014 1.086-.49-.488.322-2.41zm-9.436 9.74c.283-.126.568-.262.86-.405l1.465 1.467c-.048.196-.097.39-.142.58l-2.334 1.038c-.113-.114-.225-.238-.337-.354l.49-2.325zm14.76-14.475l1.525-.934c-.004.034-.02.076-.024.11.343.374.722.723 1.07 1.07.037-.02.08-.046.118-.068l-.22 2.36-1.02.614c-.5-.467-1-.93-1.49-1.407a42.57 42.57 0 0 0 .185-1.6l-.144-.144zM54.8 59.633l1.76-.682c-.012.042-.03.085-.042.126.33.39.693.71 1.028 1.045.06-.018.116-.037.177-.058l-.497 2.08c-.413.172-.82.323-1.213.49l-1.44-1.44c.124-.463.282-.93.395-1.39l-.17-.17zm30.118-30.12c.296-.206.602-.41.894-.64.523.505 1.044.998 1.567 1.5-.01.213-.038.43-.052.64l-1.963 1.39c-.175-.168-.363-.332-.54-.505l.094-2.384zM40.198 74.57c.398-.104.817-.23 1.24-.346.47.48.942.96 1.423 1.44-.14.315-.276.628-.412.936l-2.24.54a17.67 17.67 0 0 1-.734-.767l.725-1.803zm8.52-8.383l1.827-.615c-.03.088-.056.183-.084.27.277.3.553.585.835.867l-.7 2.282c-.248.088-.497.166-.75.245l-1.5-1.5.464-1.457-.093-.093zm4.262-4.246c.017.017.033.036.05.05.41-.155.86-.307 1.314-.487l1.433 1.432c-.05.15-.105.305-.152.455l-2.544.943c-.194-.198-.4-.4-.59-.606l.49-1.786zm35.36-35.224l.033.034c.332-.228.664-.508 1.002-.767.515.5 1.034.995 1.55 1.483-.004.296-.015.592-.025.885l-1.777 1.34c-.185-.18-.378-.36-.565-.548-.085.065-.16.13-.244.194l.025-2.62zM17.754 97.35c.016.018.035.034.05.05.57-.055 1.133-.13 1.71-.176.457.49.916.98 1.374 1.458-.257.362-.505.718-.742 1.078l-2.15.16c-.308-.315-.606-.647-.892-.96-.14.008-.28.01-.42.017l1.07-1.626zM42.18 72.945l2.012-.548c.233.26.473.523.716.767l-.758 2.005c-.335.085-.684.16-1.01.236-.466-.482-.932-.97-1.4-1.45l.44-1.01zm4.742-4.642l1.112-.354 1.525 1.525c-.14.396-.286.78-.43 1.154l-2.014.598-.008-.008a17.26 17.26 0 0 1-.843-.91l.657-2.005zM30.898 84.36c.423-.062.85-.105 1.272-.177.46.473.912.937 1.356 1.407-.154.304-.31.603-.48.9l-2.342.372c-.234-.245-.478-.49-.708-.742l.902-1.76zm33.91-33.91l1.845-.902c-.025.123-.04.247-.067.37.293.32.6.634.9.936l-.336 2.022c-.357.187-.72.37-1.078.556-.49-.484-.98-.952-1.474-1.44.097-.485.173-.967.27-1.484l-.06-.06zm-41.94 42.006l2.52-.295c.193.205.374.408.564.616l-1.02 1.744c-.356.046-.71.086-1.07.126-.483-.504-.958-1.006-1.44-1.508.154-.22.304-.453.447-.682zM72.627 43.12c.37-.207.725-.426 1.096-.658.498.49 1.004.974 1.508 1.458l-.076.564-2.174 1.264c-.196-.194-.39-.388-.59-.573l.237-2.056zm5.35-5.216l1.618-1.06c-.012.112-.028.23-.042.344.16.176.333.353.497.514l-.23 2.99c-.16.11-.325.22-.487.32-.498-.477-.985-.953-1.483-1.43.063-.542.115-1.085.16-1.644l-.034-.034zM32.91 82.986l2.183-.396c.294.294.576.59.86.893l-.775 1.652c-.432.074-.866.16-1.298.236-.476-.49-.954-.99-1.44-1.49.16-.295.316-.594.47-.894zm30.61-30.22c.282-.13.566-.256.85-.396l1.44 1.424c-.053.256-.1.504-.15.758l-2.132 1.003c-.146-.15-.29-.295-.43-.447l.42-2.342zM15.15 101.218c.052.054.107.107.16.16.553-.03 1.143-.088 1.735-.135.472.493.935.982 1.4 1.483-.21.274-.417.55-.616.817l-2.527.152c-.342-.32-.66-.668-.96-1.028-.06.005-.12.003-.177.008l.986-1.458zm5.088-4.853l2.646-.236.674.69-.986 1.56c-.433.047-.855.093-1.28.133-.496-.51-.99-1.01-1.483-1.533.145-.207.29-.41.43-.615zm39.092-38.552l1.946-.835c-.028.123-.063.24-.093.363.303.33.603.654.91.96l-.413 1.914c-.397.18-.776.35-1.162.505-.48-.474-.965-.937-1.45-1.416.112-.464.213-.94.33-1.424l-.068-.067zm22.537-22.47l1.473-1.002c-.004.064-.005.132-.008.194.33.36.692.695 1.028 1.028l-.127 2.52c-.284.19-.563.372-.842.555-.498-.48-.996-.973-1.49-1.457.047-.542.105-1.087.15-1.65-.062-.064-.12-.125-.185-.187zM38.36 78.983c.39-.08.78-.187 1.146-.285.476.477.94.96 1.4 1.432-.16.352-.32.69-.498 1.036l-2.124.44c-.248-.26-.504-.517-.74-.777zm38.62-38.618c.227-.137.443-.278.674-.422.492.485.994.962 1.49 1.44-.023.262-.042.524-.074.784l-2.03 1.205c-.106-.103-.2-.213-.304-.32l.244-2.687zm-7.894 7.927l1.634-.893c-.013.07-.01.14-.025.21.308.335.622.655.935.97l-.354 2.46c-.264.143-.53.298-.79.437-.482-.464-.96-.936-1.442-1.407.09-.526.178-1.052.253-1.567l-.212-.21zM28.606 88.808c.484-.084.972-.175 1.466-.253.47.48.934.965 1.4 1.45-.218.392-.427.77-.642 1.145l-2.3.312c.035-.057.076-.12.11-.177-.294-.32-.59-.632-.885-.952l.85-1.525zM40.2 77.468l2.088-.506.834.835-.707 1.786c-.406.114-.798.23-1.18.32-.486-.487-.968-.987-1.457-1.49.144-.314.286-.622.42-.945zm13.133-12.882l2.166-.8c-.057.184-.116.372-.17.556l1.036 1.036-.497 1.744-.034-.034c-.435.146-.878.32-1.315.472l-1.448-1.45c.142-.434.287-.872.447-1.338l-.187-.186zm4.76-4.66c.254-.096.516-.198.767-.31.473.48.95.954 1.424 1.423-.053.212-.113.417-.17.623l-2.35.918c-.08-.083-.162-.158-.243-.243zM30.965 87.14l1.93-.33c.313.342.646.672.96 1.012l-.893 1.77c-.383.063-.765.13-1.137.193-.487-.49-.946-.994-1.424-1.49.208-.368.406-.733.607-1.113l-.042-.042zm-13.008 13.11l2.393-.17c.233.247.476.492.707.742l-1.112 1.668c-.38.027-.75.05-1.12.076-.484-.506-.964-1.02-1.45-1.534.195-.253.39-.514.582-.783zm62.37-62.27c.102.1.21.194.312.295.337-.236.69-.477 1.052-.716.518.498 1.04.99 1.55 1.5-.018.166-.05.337-.068.504l-2.106 1.365c-.214-.21-.427-.41-.64-.624-.093.062-.18.107-.27.168l.17-2.494zM45.262 73.13c.383-.106.766-.238 1.155-.363.46.47.92.947 1.38 1.415-.143.373-.293.74-.437 1.112l-2.04.54c-.245-.26-.493-.506-.74-.776-.006.002-.02-.01-.025-.008l.707-1.92zm40.423-40.424l1.61-1.137-.034.437c.215.233.436.458.658.674l-.11 2.79c-.215.158-.423.325-.632.48-.514-.486-1.02-.985-1.533-1.483.036-.558.062-1.115.11-1.693l-.068-.068zM51.58 66.844c.408-.12.834-.264 1.256-.43l1.416 1.416c-.135.422-.268.84-.422 1.264l-1.82.606c-.29-.292-.58-.605-.867-.918-.05.018-.094.04-.143.06l.58-1.998zm-4.6 4.77l2.158-.642.632.632-.7 2.047c-.32.105-.638.207-.952.296-.483-.492-.974-.98-1.457-1.474.113-.285.214-.57.32-.86zm20.836-20.735c.334-.163.667-.34.994-.507.493.482.984.968 1.474 1.44-.03.185-.06.365-.092.55l-2.283 1.136-.456-.456.362-2.165zm-52.664 53.135l2.527-.152c.27.273.537.55.8.834l-1.045 1.517c-.43.03-.867.057-1.306.093a79.255 79.255 0 0 1-1.5-1.584c.17-.23.35-.47.522-.708zM26.4 92.785c.422-.055.86-.11 1.305-.177.46.47.92.94 1.373 1.407-.25.403-.477.802-.74 1.196l-1.998.228c-.307-.31-.616-.64-.91-.96l.97-1.694zM73.24 46.008l1.845-1.07c-.024.174-.043.362-.068.538.33.36.675.68 1.01 1.01l-.253 1.99c-.418.228-.79.436-1.18.64-.485-.48-.983-.94-1.473-1.424.085-.516.175-1.026.26-1.542l-.142-.143zm16.2-16.017l1.45-1.112-.008.262c.356.387.744.745 1.103 1.104.03-.023.054-.044.085-.067l-.034 2.543c-.312.237-.632.47-.952.7-.503-.484-.997-.966-1.5-1.45.035-.586.073-1.17.084-1.752-.08-.072-.15-.153-.227-.227zM63.807 55.85l1.76-.818c-.016.078-.033.14-.05.22.325.355.676.698 1.002 1.052l-.42 2.208c-.324.135-.64.283-.944.42-.484-.465-.973-.956-1.458-1.44.13-.48.234-.946.337-1.415l-.227-.228zM36.298 83.576c.453-.097.913-.192 1.348-.286.46.477.916.963 1.382 1.432-.126.25-.247.482-.37.724l-2.52.497c-.207-.214-.41-.44-.615-.665zm48.36-48.14c.275-.176.553-.37.817-.565.507.494 1.02 1 1.533 1.484-.015.23-.03.46-.05.69l-1.99 1.35-.437-.44.127-2.518zM28.327 91.8l2.73-.355c.205.212.405.434.606.64l-.867 1.61c-.464.074-.914.116-1.357.16-.48-.5-.963-1.01-1.45-1.517.114-.183.228-.358.338-.54zm10.17-9.9l1.92-.405c.274.294.542.592.826.876l-.826 1.888c-.36.078-.728.17-1.078.236a388.35 388.35 0 0 1-1.433-1.45c.2-.375.41-.75.59-1.145zM71.95 48.58c.33-.185.658-.364.978-.54.488.48.977.962 1.466 1.432-.04.25-.072.503-.118.758l-2.098 1.104c-.172-.17-.332-.334-.497-.514-.013.006-.03.018-.042.025l.312-2.266zm-9.503 9.704c.334-.14.67-.304 1.002-.463.488.486.976.975 1.466 1.45-.037.137-.076.276-.11.413l-2.494 1.095c-.11-.115-.22-.227-.328-.345l.463-2.15zm-4.432 4.567l1.988-.774c-.035.123-.08.246-.118.37.332.363.684.7 1.02 1.037.005-.003.01.002.016 0l-.505 2.072c-.37.15-.752.296-1.122.447l-1.38-1.382c.134-.49.28-.96.41-1.458l-.31-.31zM23.913 97.006a28.37 28.37 0 0 0 1.534-.168c.463.482.914.962 1.373 1.44-.22.328-.436.65-.64.96l-2.368.228c.006-.008.012-.01.017-.016-.285-.312-.568-.614-.852-.937l.936-1.508zM77.31 43.642l1.703-1.01c-.015.116-.045.226-.06.344.19.21.407.42.607.624l-.328 3.108c-.133.082-.26.175-.388.253l-1.45-1.448c.065-.53.15-1.072.203-1.6-.092-.092-.192-.178-.286-.27zm10.91-10.675l.127.127c.348-.247.71-.483 1.045-.742.52.51 1.044 1.012 1.567 1.517-.008.126-.02.25-.026.378l-2.115 1.49c-.2-.19-.398-.38-.6-.58-.03.023-.06.052-.092.076l.093-2.267zm-44.786 44.99c.427-.11.892-.232 1.34-.346.468.48.93.95 1.398 1.417-.116.29-.247.584-.37.876l-2.292.556c-.254-.255-.513-.514-.75-.785l.674-1.718zm2.123-1.82l1.837-.49c.237.256.483.503.716.75l-.8 2.166c-.274.073-.547.14-.818.21a92.817 92.817 0 0 1-1.44-1.423c.185-.41.346-.815.505-1.213zm4.482-4.263l.033.033c.452-.137.935-.283 1.382-.438.465.47.93.928 1.415 1.398-.106.315-.2.617-.312.918l-2.232.666c-.29-.297-.562-.603-.843-.91l.556-1.668zm18.147-18.097l1.92-.944c-.03.16-.067.33-.1.49.25.273.506.512.766.766l-.388 2.257c-.306.152-.613.307-.926.455-.496-.482-.976-.96-1.46-1.44.105-.487.202-.98.296-1.475l-.11-.11zM56.77 65.21c.29-.11.577-.217.868-.33l1.45 1.45c-.116.35-.213.7-.32 1.045l-1.955.724a48.676 48.676 0 0 1-.65-.666l.608-2.224zM26.28 95.784l2.318-.26c.24.25.486.488.74.723l-.985 1.727c-.39.05-.79.1-1.18.135-.466-.506-.95-1.015-1.43-1.517.177-.27.364-.534.538-.81zm8.005-7.987c.394-.067.785-.153 1.196-.236.46.473.912.95 1.366 1.416-.226.42-.43.828-.65 1.24.026.028.052.046.077.075l-1.938.32c-.33-.33-.644-.682-.96-1.027l.91-1.786zm17.8-17.768l1.905-.625c.272.288.548.58.818.85.072-.02.14-.05.21-.075l-.615 1.997c-.43.14-.858.29-1.272.43-.468-.472-.934-.944-1.406-1.424.13-.38.24-.768.362-1.154zM21.48 100.855c.458-.043.93-.09 1.38-.135.457.482.915.97 1.374 1.44-.224.334-.445.637-.666.953l-2.334.21c-.27-.278-.516-.57-.766-.867l-.01-.008 1.02-1.592zm59.866-59.683l1.786-1.13c-.02.198-.047.392-.067.59l.927.928-.177 2.233c-.33.218-.657.432-.978.64a147.39 147.39 0 0 1-1.508-1.44c.06-.54.116-1.087.185-1.65-.058-.054-.11-.115-.17-.17zm-45.023 45.04l2.157-.404c-.025.047-.06.102-.084.15.283.283.553.58.826.86l-.81 1.752c-.393.077-.786.138-1.18.202-.49-.498-.98-.995-1.465-1.5.188-.35.386-.706.556-1.06zm40.06-39.875c.26-.154.52-.308.793-.472.5.49.995.978 1.49 1.474-.02.163-.036.32-.058.48l-2.224 1.264c-.095-.092-.185-.184-.278-.278l.278-2.468zm-9.502 9.823c.29-.14.577-.286.868-.428.482.476.984.94 1.466 1.415-.04.202-.085.4-.126.598l-2.308 1.062c-.117-.116-.233-.242-.346-.363l.447-2.283zM23.594 99.803l2.62-.227c.255.26.493.52.733.783l-.952 1.525c-.453.038-.91.083-1.356.127-.497-.508-.99-1.03-1.483-1.55.153-.22.294-.44.438-.658zm38.966-38.78l2.14-.91c-.05.202-.1.393-.153.59.303.33.612.618.91.91l-.43 1.997c-.376.16-.746.317-1.112.454L62.44 62.59c.12-.44.24-.9.338-1.35-.077-.07-.145-.145-.22-.218zm17.295-17.127l.16.16c.396-.227.76-.455 1.146-.708.492.49.985.96 1.484 1.432-.03.235-.07.473-.1.707l-2.057 1.23c-.158-.162-.326-.312-.48-.48-.145.09-.284.187-.43.278zm5.392-5.224l1.65-1.11c-.014.142-.023.285-.04.43.26.26.504.497.757.74l-.168 3c-.18.118-.363.23-.54.336-.492-.49-.998-.966-1.5-1.45.057-.534.127-1.074.17-1.616l-.33-.33zm-43.6 43.7c.4-.086.807-.174 1.197-.268.45.464.906.925 1.357 1.39-.13.306-.26.61-.395.9l-2.326.49c-.213-.224-.43-.444-.632-.666zm30.836-30.75l1.677-.9c-.018.095-.024.2-.042.294.344.374.706.706 1.053 1.053.05-.026.093-.067.144-.093l-.32 2.292c-.38.21-.753.417-1.12.598l-1.433-1.432c.09-.508.2-1.047.296-1.56l-.253-.252zM32.01 92.212c.454-.068.9-.144 1.356-.228.475.487.95.98 1.407 1.474-.172.32-.352.64-.53.952l-2.284.312c-.29-.29-.568-.576-.835-.884zm11.542-11.408l2.098-.53c-.01.024-.016.05-.025.075.24.24.47.477.7.715l-.785 1.963c-.333.086-.672.17-1.01.253-.483-.486-.96-.97-1.44-1.456.15-.334.303-.68.462-1.02zm17.76-17.473c.316-.122.63-.262.943-.404l1.382 1.382c-.112.455-.228.91-.345 1.34l-1.786.69-.742-.74zm-12.9 13.22c.433-.132.893-.28 1.332-.405.465.465.907.945 1.365 1.416-.13.35-.256.695-.388 1.045l-2.098.582c-.242-.255-.483-.512-.725-.775l-.203.05.716-1.912zm-14.28 14.415l2.394-.388c.195.213.4.417.598.632l-.944 1.836c-.353.062-.694.124-1.045.185-.48-.5-.967-.996-1.45-1.5.144-.25.3-.507.448-.765zm16.27-16.185l1.988-.59c-.006.015-.002.03-.008.043.347.347.674.694.994 1.044.016-.004.034-.012.05-.016l-.58 1.71c-.023-.024-.046-.042-.068-.067-.467.16-.917.295-1.365.422-.484-.485-.954-.99-1.432-1.483.138-.357.284-.705.422-1.062zm6.352-6.335l1.963-.7c.298.296.602.59.893.877l-.514 1.862c-.413.163-.83.304-1.222.43-.48-.482-.943-.982-1.423-1.475.11-.33.205-.667.304-.995zm14.314-14.13c.385-.182.776-.355 1.162-.555.49.482.983.95 1.466 1.432-.017.107-.04.223-.06.33l-2.45 1.22-.447-.446.328-1.98zm-15.654 15.74c.247-.088.506-.17.767-.262.473.47.947.925 1.425 1.39-.132.364-.26.723-.37 1.078l-1.998.667c-.18-.182-.337-.378-.514-.565l.69-2.308zM84.278 41.61c.31-.204.623-.41.927-.622.524.506 1.045 1.013 1.55 1.516-.015.138-.035.267-.05.405L84.54 44.3c-.143-.14-.288-.272-.43-.414l.168-2.275zM29.803 96.206c.406-.048.81-.092 1.22-.143.46.483.914.97 1.374 1.44-.236.38-.482.743-.716 1.12l-2.063.245c-.278-.284-.55-.592-.825-.893zM76.67 49.37l1.862-1.036c-.025.177-.04.344-.067.523l.472.472-.363 2.888c-.177.096-.353.203-.53.295-.493-.48-.99-.958-1.483-1.45.09-.507.163-1.012.262-1.54-.05-.05-.1-.103-.152-.152zm-9.612 9.715l1.937-.91c-.03.147-.06.302-.092.446.297.325.595.613.893.91l-.472 2.428c-.27.12-.534.244-.8.362l-1.466-1.466c.117-.465.248-.938.353-1.432-.11-.112-.237-.225-.352-.337zM39.576 86.97c.45-.085.896-.163 1.356-.26.467.477.938.952 1.398 1.432-.196.386-.377.76-.564 1.138l-2.165.43c.022-.042.047-.076.068-.118-.303-.303-.604-.598-.884-.92l.792-1.7zm-7.844 8.148l2.51-.354c.235.24.464.495.69.742l-.892 1.634c-.424.068-.838.134-1.255.194a76.956 76.956 0 0 1-1.474-1.542c.135-.223.288-.45.422-.674zm10-9.966l1.904-.37c.266.316.545.593.826.875l-.927 2.073c-.284.06-.577.12-.86.185-.472-.493-.947-.988-1.43-1.483.194-.39.398-.787.58-1.188-.028-.03-.064-.062-.093-.092zm24.045-23.506a16.62 16.62 0 0 0 1.062-.472l1.448 1.45c-.098.35-.185.7-.27 1.044l-1.963.85c-.246-.246-.488-.506-.733-.766zm9.9-9.866c.23-.122.46-.24.69-.37.493.49.973.967 1.475 1.44-.033.19-.06.376-.093.565l-2.242 1.196c-.07-.07-.133-.145-.202-.218l.37-2.612zm-48.36 48.697c.474-.056.95-.103 1.44-.16.466.484.932.962 1.4 1.45-.183.275-.357.545-.53.816l-2.546.253c-.24-.26-.49-.51-.732-.767zM80.782 47.03l1.676-1.004c-.017.12-.016.235-.033.354l1.036 1.036-.243 2.385c-.305.184-.6.38-.893.54-.486-.47-.972-.932-1.458-1.407.064-.537.158-1.074.21-1.61-.093-.094-.2-.198-.294-.294zM46.61 81.37c.007.005.01.01.017.016.48-.142.953-.268 1.44-.396.472.482.947.962 1.408 1.44-.096.23-.19.47-.287.69l-2.52.6c-.24-.246-.47-.48-.698-.75l.64-1.6zm15.022-14.703l1.778-.682c.266.293.56.56.842.842l-.522 2.123c-.34.135-.68.262-1.02.396-.478-.48-.95-.96-1.423-1.44.108-.41.23-.82.345-1.24zm-12.755 12.79l1.828-.48c.306.33.598.637.893.96l.227-.06-.716 1.93c-.452.12-.898.25-1.332.354-.478-.48-.95-.96-1.424-1.44.18-.41.376-.84.54-1.247l-.017-.017zm22.57-22.453l2.106-1.028c-.045.23-.1.457-.143.682.33.36.684.7 1.028 1.045l.008.008-.337 1.94-.06-.06c-.43.212-.842.418-1.28.64l-1.4-1.398c.117-.526.208-1.046.32-1.584l-.243-.244zm-11.475 11.61c.342-.124.707-.25 1.07-.397.478.48.947.964 1.416 1.45-.095.3-.184.574-.27.86l-2.19.79c-.2-.2-.387-.415-.582-.63l.556-2.074zm-4.5 4.6l1.745-.582c.286.333.588.655.92.986.005-.002.018.01.024.008l-.606 1.99c-.366.117-.736.246-1.095.37-.462-.48-.94-.956-1.416-1.433.15-.44.294-.888.43-1.34zm-17.91 17.995c.41-.076.817-.14 1.222-.212.45.48.903.948 1.364 1.416-.2.38-.414.772-.623 1.162l-2.005.337c-.294-.3-.584-.608-.868-.918l.91-1.786zm-7.936 8.003l2.266-.295c.247.254.497.528.74.775l-1 1.76c-.383.054-.765.092-1.14.127-.468-.508-.94-1.004-1.422-1.508.188-.286.38-.562.556-.86zm49.606-49.59l.286.287c.373-.208.754-.426 1.138-.65.504.488 1.005.974 1.49 1.46-.01.09-.022.18-.033.268l-2.435 1.357c-.157-.153-.304-.318-.463-.464l-.295.162zm-25.418 25.52c.326-.1.65-.202.97-.312.467.48.93.964 1.397 1.45-.09.27-.183.528-.285.792l-2.275.708c-.168-.168-.338-.348-.506-.523l.7-2.114zm31.03-30.574l1.81-1.156c-.025.214-.05.44-.076.65l.632.63-.21 2.74c-.224.14-.468.28-.69.42-.502-.48-.99-.973-1.484-1.45.08-.538.144-1.077.202-1.65-.062-.056-.124-.128-.185-.185zM39.406 90.07l2.528-.455c.168.178.34.347.505.522l-.893 1.87c-.345.066-.688.148-1.02.21-.49-.496-.968-1-1.457-1.508.113-.21.223-.426.337-.64zM70.117 59.6c.34-.154.677-.314 1.01-.473l1.466 1.466c-.077.39-.168.765-.253 1.146l-1.794.816c-.264-.264-.532-.525-.784-.8-.024.01-.043.023-.067.033l.42-2.19zM44.764 85.79c.458-.084.922-.185 1.374-.295.455.474.912.937 1.372 1.39-.18.432-.385.883-.59 1.28.012.015.03.028.042.043l-1.87.404c-.33-.33-.656-.677-.96-1.01-.058.01-.112.02-.17.033l.8-1.845zm31.013-30.91l1.887-1.012c-.03.17-.065.35-.093.514.198.216.395.43.598.632l-.438 3c-.11.058-.218.12-.33.176l-1.507-1.508c.08-.468.163-.94.253-1.416-.125-.125-.245-.26-.37-.387zM35.254 95.69c.47-.08.942-.17 1.44-.262.473.484.938.97 1.407 1.458-.18.32-.367.626-.538.926l-2.3.312c-.287-.287-.583-.58-.85-.885l.842-1.55zM46.93 84.013l2.08-.497c-.026.065-.055.137-.083.202.347.346.69.694 1.01 1.044l.027-.008-.64 1.634c-.023-.024-.054-.05-.077-.076-.474.114-.928.242-1.39.362-.487-.478-.982-.963-1.466-1.466.192-.403.373-.797.54-1.196zm19.134-19.1l1.895-.816c.25.272.51.525.757.775l-.47 2.156c-.328.146-.662.28-.996.42-.49-.477-.97-.957-1.448-1.448.098-.367.176-.723.262-1.087zm17.734-17.65c.28-.17.567-.338.85-.513.494.486.993.962 1.492 1.44-.018.164-.038.335-.06.498l-2.23 1.306c-.103-.1-.21-.192-.313-.295l.26-2.435zM64.658 66.71c.31-.12.614-.246.925-.37.467.47.93.936 1.4 1.397-.094.363-.18.73-.288 1.095l-1.97.742c-.214-.215-.427-.428-.633-.65l.565-2.215zm-27.12 27.54l2.206-.37c.202.212.4.433.607.64l-.985 1.98c-.31.05-.608.106-.91.152-.476-.496-.96-.992-1.44-1.492.17-.306.353-.603.522-.91zm22.62-22.604l1.895-.682c-.01.03-.015.063-.025.093l.9.9-.53 1.897-1.17.413c-.493-.484-.978-.973-1.458-1.458.124-.39.262-.773.388-1.164zm-6.43 6.462l1.998-.598c-.013.034-.02.067-.034.1l.936.936-.6 1.76c-.415.118-.85.26-1.262.39-.49-.48-.97-.966-1.458-1.46.14-.37.272-.75.42-1.128zm-1.49 1.66c.278-.08.55-.16.826-.236.46.478.923.947 1.39 1.407-.11.29-.227.587-.345.884l-2.276.623c-.133-.14-.264-.27-.396-.413zm6.344-6.31c.313-.11.632-.213.944-.32.46.464.918.926 1.39 1.39a25.35 25.35 0 0 1-.337 1.044l-2.04.69c-.208-.208-.415-.416-.615-.63l.657-2.174zm16.2-15.915c.322-.155.64-.306.962-.472l1.398 1.4c-.07.38-.142.744-.22 1.112l-1.91.918c-.21-.205-.422-.412-.633-.615l.403-2.342zm5.183-4.93l2.09-1.144-.11.8c.27.295.56.574.842.858l-.295 2.233c-.343.186-.676.38-1.02.565l-1.448-1.45c.078-.512.165-1.02.252-1.55-.102-.1-.207-.207-.31-.31zm-37.23 37.82c.518-.11 1.035-.228 1.533-.336.462.472.92.954 1.382 1.432-.165.33-.327.65-.497.985l-2.2.446c-.318-.32-.627-.665-.943-1.01l.725-1.516zM70.79 62.852l1.643-.732c.298.318.594.628.884.918l.177-.076-.446 2.2c-.384.17-.78.35-1.163.505l-1.44-1.44c.113-.46.245-.924.345-1.374zm7.675-7.556c.052.048.108.095.16.143.386-.2.772-.404 1.18-.64l1.466 1.465c-.066.394-.137.786-.21 1.188l-1.727.92c-.265-.255-.527-.523-.784-.802-.155.084-.306.17-.456.253l.37-2.526zm-33.48 33.682l2.25-.48c.23.25.466.5.706.742.082-.018.157-.05.237-.068l-.792 1.82c-.468.11-.938.22-1.407.312-.467-.486-.955-.978-1.432-1.466.15-.285.296-.566.438-.86zm24.002-23.884c.406-.164.805-.338 1.222-.53.484.476.966.95 1.448 1.43l-.22.86-2.13.92c-.245-.246-.486-.502-.725-.76l.404-1.92zm-16.9 17.625l1.86-.514-.024.06c.332.36.684.717 1.02 1.052l.025-.01-.716 1.948c-.386.102-.76.2-1.138.294-.467-.485-.958-.973-1.44-1.457.193-.42.386-.837.547-1.238-.04-.043-.09-.092-.134-.135zM64.985 69.87l1.66-.65c.28.3.575.58.868.868l-.573 2.274-.868.346-1.424-1.424c.132-.47.257-.92.37-1.382l-.033-.033zM50.418 84.62c.32-.086.64-.156.96-.235.47.478.94.955 1.416 1.432-.164.38-.307.766-.463 1.137l-2.105.523c.014-.033.02-.068.033-.1-.218-.22-.436-.463-.657-.692l.818-2.064zm12.857-12.603c.358-.14.716-.285 1.104-.43l1.43 1.433c-.09.27-.183.538-.26.8l-2.208.81-.623-.625zm-4.482 4.516l1.693-.565c.323.35.66.678.986 1.003l-.615 2.014c-.366.12-.73.255-1.087.363-.463-.48-.938-.953-1.415-1.432.146-.45.33-.916.463-1.357l-.025-.025zm-1.803 2.005c.375-.12.736-.217 1.112-.337.472.476.948.948 1.415 1.433-.078.22-.153.423-.227.632l-2.485.75c-.163-.163-.308-.333-.464-.497l.65-1.98zm18.054-17.633l1.787-.86c.166.18.326.338.49.506l-.515 2.74c-.186.09-.358.18-.54.268-.487-.483-1-.958-1.49-1.44.087-.39.18-.798.27-1.213zM42.802 93.332l2.3-.446c.315.314.635.624.927.943.022-.006.05-.005.075-.01l-.742 1.585c-.018-.022-.05-.046-.067-.068-.5.095-.978.188-1.466.287-.487-.493-.963-.995-1.45-1.5.145-.264.282-.526.422-.792zm31.038-30.55c.238-.11.486-.218.724-.336l1.458 1.458c-.073.348-.16.685-.236 1.028l-1.946.867c-.16-.16-.313-.326-.472-.49l.472-2.527zM69.5 68.05l1.846-.785c-.015.056-.036.113-.05.17.33.36.7.685 1.02 1.035l.024-.008-.413 1.862c-.015-.018-.035-.033-.05-.05-.433.18-.844.364-1.264.538l-1.457-1.457c.125-.44.246-.862.345-1.306zM48.625 89.077c.278-.065.55-.15.834-.228.466.473.915.96 1.382 1.432-.184.393-.35.78-.53 1.155l-2.015.446c-.206-.22-.416-.438-.623-.657l.952-2.148zm1.415-1.197l2.4-.597c.256.256.486.516.733.784l-.657 1.634c-.45.12-.892.247-1.33.355-.49-.49-.983-.986-1.467-1.483.105-.234.215-.454.32-.69zm17.81-17.76c.363-.136.72-.277 1.078-.437l1.432 1.433c-.087.325-.18.64-.27.96l-2.055.81a47.54 47.54 0 0 0-.674-.692c-.004.003-.01-.002-.016 0l.506-2.073zM57.074 81.3l2.08-.63c-.034.095-.08.19-.117.286.3.3.595.607.885.918l-.607 1.803c-.408.126-.83.25-1.247.37-.48-.48-.96-.964-1.44-1.457l.48-1.255-.034-.034zm6.462-6.376l1.896-.683c-.017.058-.034.112-.05.17.274.275.54.558.79.825l-.58 2.03c-.338.127-.675.257-1.01.37l-1.467-1.464c.135-.407.285-.818.42-1.246zm-8.13 8.265c.323-.095.64-.172.977-.27.464.474.926.94 1.39 1.406-.17.44-.34.88-.497 1.306l-1.836.505c-.265-.286-.52-.565-.792-.86l.758-2.088zm6.48-6.345c.335-.114.68-.226 1.01-.337.46.47.91.944 1.38 1.415-.097.28-.19.546-.285.826l-2.248.765c-.17-.176-.336-.367-.506-.54z" opacity=".589" fill="url(#C)"/><path d="M57.094 3c-1.606 14.28-9.838 30.65-23.657 44.47C19.573 61.332 3.125 69.59-11.187 71.155L8.53 108c.146-.012.294-.05.44-.063l-19.157-35.78c14.312-1.568 30.76-9.824 44.624-23.688C48.258 34.65 56.487 18.28 58.094 4L93.78 22.906c.014-.145.052-.292.064-.437z" opacity=".4" fill="#fff" fill-rule="evenodd"/><path d="M93.78 22.906c-1.677 19.1-11.367 39.806-28.31 56.75-16.87 16.87-37.473 26.54-56.5 28.28L9.53 109c19.15-1.634 39.942-11.347 56.94-28.344C83.542 63.582 93.275 42.69 94.843 23.47z" opacity=".25" fill="#a40" fill-rule="evenodd"/><path d="M93.063 22.063C91.346 41.12 81.68 61.757 64.78 78.656 47.83 95.606 27.106 105.296 8 106.97l.53 1.03c19.15-1.634 39.942-11.347 56.94-28.344C82.542 62.582 92.275 41.69 93.843 22.47z" opacity=".12" fill-rule="evenodd"/></g><path d="M12 86c-3.324 0-6-2.676-6-6V12c0-3.324 2.676-6 6-6h72c3.324 0 6 2.676 6 6v68c0 3.324-2.676 6-6 6zm0-.97h72A4.998 4.998 0 0 0 89.03 80V12A4.998 4.998 0 0 0 84 6.97H12A4.998 4.998 0 0 0 6.97 12v68A4.998 4.998 0 0 0 12 85.03z" opacity=".3" fill="url(#D)"/><path d="M6 78v2c0 3.324 2.676 6 6 6h72c3.324 0 6-2.676 6-6v-2c0 3.324-2.676 6-6 6H12c-3.324 0-6-2.676-6-6z" opacity=".1" fill="url(#E)"/></g><path d="M6 80v4c0 3.324 2.676 6 6 6h72c3.324 0 6-2.676 6-6v-4c0 3.324-2.676 6-6 6H12c-3.324 0-6-2.676-6-6z" fill="url(#F)" transform="matrix(.1406 0 0 .1406 1.258 1.236)"/><path d="M2.102 12.765v.28c0 .47.376.845.843.845h10.123a.842.842 0 0 0 .844-.844v-.28a.842.842 0 0 1-.844.843H2.945a.842.842 0 0 1-.843-.845z" color="#000" overflow="visible" opacity=".1"/><path d="M2.102 12.906v.14c0 .468.376.844.843.844h10.123a.842.842 0 0 0 .844-.844v-.14a.842.842 0 0 1-.844.843H2.945a.842.842 0 0 1-.843-.844z" color="#000" overflow="visible" opacity=".15"/><g><path d="M2.945 2.08a.842.842 0 0 0-.844.843V4.61h11.812V2.924a.842.842 0 0 0-.844-.843z"/><path opacity=".8" fill="url(#G)" fill-rule="evenodd" d="M6 24h84v6H6z" transform="translate(1.258 1.236) scale(.1406)"/><path opacity=".3" fill="url(#H)" fill-rule="evenodd" d="M6 15h84v5H6z" transform="translate(1.258 1.236) scale(.1406)"/><g fill="#f0f0f0" fill-rule="evenodd"><path d="M5.382 2.08l-.75 1.265.75 1.266h1.5l-.75-1.265.75-1.265zM8.475 2.08l-.75 1.265.75 1.266h1.5l-.75-1.265.75-1.265zM11.568 2.08l-.75 1.265.75 1.266h1.5l-.75-1.265.75-1.265z"/></g><path opacity=".7" fill="url(#I)" fill-rule="evenodd" d="M6 10h84v5H6z" transform="translate(1.258 1.236) scale(.1406)"/><path opacity=".7" fill="url(#J)" fill-rule="evenodd" d="M6 19h84v5H6z" transform="translate(1.258 1.236) scale(.1406)"/><path d="M2.945 2.08a.842.842 0 0 0-.843.843V4.61h.14V2.923c0-.392.31-.703.703-.703h10.123c.393 0 .703.31.703.703V4.61h.142V2.923a.842.842 0 0 0-.844-.843z" opacity=".1" fill="#fff"/><path d="M2.945 2.365c-.386 0-.698.312-.698.7v1.273a.144.144 0 0 0 .044.1l.124.124a.144.144 0 0 0 .1.044H3.8a.144.144 0 0 0 .1-.044l.313-.312a.144.144 0 0 0 .027-.17l-.097-.177-.804-1.463a.144.144 0 0 0-.127-.075z" opacity=".5"/><path d="M2.945 2.51a.546.546 0 0 0-.553.554v1.274l.123.123h1.283l.312-.31-.097-.177L3.21 2.51z"/><path d="M12 8.063C9.78 8.063 8.062 9.78 8.062 12v9.063l.876.875h9.124l2.22-2.22-.688-1.25-5.72-10.405z" fill="url(#K)" transform="translate(1.258 1.236) scale(.1406)"/><path d="M27.485 23.37a3.742 3.685 0 1 1-7.485 0 3.742 3.685 0 1 1 7.485 0z" transform="matrix(.05166 0 0 .05246 1.648 1.487)" fill="url(#L)"/><path d="M27.485 23.37a3.742 3.685 0 1 1-7.485 0 3.742 3.685 0 1 1 7.485 0z" transform="matrix(0 -.05166 .05246 0 1.65 3.94)" fill="url(#M)" stroke="url(#N)" stroke-width="1.35" stroke-linecap="square" stroke-linejoin="round"/><path d="M27.485 23.37a3.742 3.685 0 1 1-7.485 0 3.742 3.685 0 1 1 7.485 0z" transform="matrix(0 .01952 -.01982 0 3.338 2.25)" fill="#747474" stroke="url(#O)" stroke-width="6.981" stroke-linecap="square" stroke-linejoin="round"/><path d="M27.485 23.37a3.742 3.685 0 1 1-7.485 0 3.742 3.685 0 1 1 7.485 0z" transform="matrix(.05166 0 0 .05246 1.507 2.752)" fill="url(#P)"/><path d="M27.485 23.37a3.742 3.685 0 1 1-7.485 0 3.742 3.685 0 1 1 7.485 0z" transform="matrix(0 -.05166 .05246 0 1.508 5.204)" fill="url(#Q)" stroke="url(#R)" stroke-width="1.35" stroke-linecap="square" stroke-linejoin="round"/><path d="M27.485 23.37a3.742 3.685 0 1 1-7.485 0 3.742 3.685 0 1 1 7.485 0z" transform="matrix(0 .01952 -.01982 0 3.197 3.514)" fill="#747474" stroke="url(#S)" stroke-width="6.981" stroke-linecap="square" stroke-linejoin="round"/><g><path d="M27.485 23.37a3.742 3.685 0 1 1-7.485 0 3.742 3.685 0 1 1 7.485 0z" transform="matrix(.05166 0 0 .05246 2.35 2.752)" fill="url(#T)"/><path d="M27.485 23.37a3.742 3.685 0 1 1-7.485 0 3.742 3.685 0 1 1 7.485 0z" transform="matrix(0 -.05166 .05246 0 2.352 5.204)" fill="url(#U)" stroke="url(#V)" stroke-width="1.35" stroke-linecap="square" stroke-linejoin="round"/><path d="M27.485 23.37a3.742 3.685 0 1 1-7.485 0 3.742 3.685 0 1 1 7.485 0z" transform="matrix(0 .01952 -.01982 0 4.04 3.514)" fill="#747474" stroke="url(#W)" stroke-width="6.981" stroke-linecap="square" stroke-linejoin="round"/></g><path d="M12 8.063C9.78 8.063 8.062 9.78 8.062 12v9.063l.876.875h9.124l2.22-2.22-.688-1.25-5.72-10.405zm0 .968h1.313l5.437 9.908.344.593-1.438 1.44H9.344l-.313-.314V12c0-1.717 1.253-2.97 2.97-2.97z" opacity=".1" fill="url(#X)" transform="translate(1.258 1.236) scale(.1406)"/></g></svg>