<svg xmlns="http://www.w3.org/2000/svg" height="16" width="16"><title>Gnome Symbolic Icon Theme</title><path d="M1.935 1.933H3.5c.386.017.773.195 1.042.474l3.46 3.46 3.508-3.46c.403-.35.677-.463 1.043-.474h1.516V3.45c0 .434-.053.835-.38 1.137l-3.46 3.46 3.413 3.413c.285.286.426.688.426 1.09v1.517h-1.517c-.403 0-.805-.14-1.09-.426l-3.46-3.46-3.46 3.46c-.286.286-.688.427-1.09.427H1.934V12.55c0-.402.142-.804.427-1.09l3.46-3.412-3.46-3.46a1.378 1.378 0 0 1-.427-1.138V1.933z" style="line-height:normal;-inkscape-font-specification:'Andale Mono';text-indent:0;text-align:start;text-decoration-line:none;text-transform:none;block-progression:tb" color="#bebebe" font-weight="400" font-family="Andale Mono" overflow="visible" fill="#666"/></svg>